<svg width="488" height="488" viewBox="0 0 488 488" fill="none" xmlns="http://www.w3.org/2000/svg">
<ellipse cx="342.5" cy="79.5" rx="0.5" ry="5.5" fill="#D9D9D9"/>
<g filter="url(#filter0_f_14_143)">
<circle cx="244" cy="244" r="200" fill="#FFAB24" fill-opacity="0.79"/>
</g>
<g filter="url(#filter1_f_14_143)">
<g filter="url(#filter2_f_14_143)">
<path d="M154.519 214.555C160.929 212.443 167.455 212.64 173.656 214.828C173.819 214.887 173.982 214.948 174.145 215.011C184.348 218.685 191.614 228.604 193.532 238.615C193.548 238.69 193.563 238.766 193.578 238.841C194.315 242.638 194.509 247.643 191.352 252.283C191.344 252.293 191.336 252.304 191.329 252.314C188.356 256.186 185.082 258.611 181.966 260.469C180.897 261.947 179.479 263.375 177.558 264.623C177.011 264.959 176.477 265.245 175.951 265.497C174.791 266.013 173.657 266.437 172.529 266.768C172.179 267.202 171.774 267.572 171.31 267.855C171.218 267.912 171.124 267.966 171.029 268.015C165.974 270.742 158.518 271.198 152.646 267.976C152.569 267.934 152.491 267.893 152.414 267.851C151.059 267.096 149.834 266.22 148.734 265.253C141.628 261.06 136.596 253.93 134.576 246.076C134.567 246.041 134.558 246.004 134.549 245.969C132.357 236.865 137.003 229.134 141.177 224.017C141.245 223.933 141.315 223.848 141.385 223.765C143.005 221.827 144.851 220.066 146.931 218.54C149.17 216.896 151.691 215.536 154.387 214.6C154.43 214.584 154.475 214.57 154.519 214.555Z" fill="#FF7070"/>
</g>
</g>
<g filter="url(#filter3_f_14_143)">
<path fill-rule="evenodd" clip-rule="evenodd" d="M319.256 224.477C325.039 222.329 331.054 222.58 336.571 224.866C336.599 224.878 336.628 224.89 336.657 224.902C345.997 228.765 351.492 238.141 352.989 246.833C352.993 246.856 352.996 246.879 353.001 246.902C353.563 250.308 353.8 254.553 351.206 258.941C351.178 258.987 351.149 259.033 351.121 259.079C348.833 262.412 346.245 264.625 343.766 266.321C343.026 267.445 342.067 268.596 340.794 269.754C340.467 270.027 340.12 270.289 339.757 270.535C338.629 271.235 337.538 271.802 336.46 272.246C336.074 272.889 335.576 273.424 334.948 273.796C334.882 273.835 334.816 273.875 334.75 273.913C330.078 276.857 322.199 277.279 316.738 273.787C316.733 273.784 316.727 273.78 316.721 273.777C314.273 272.252 312.393 270.399 310.973 268.374C306.583 264.308 303.764 258.866 302.462 253.283C302.453 253.241 302.443 253.198 302.434 253.155C300.734 245.183 304.338 238.237 307.862 233.448C307.892 233.407 307.923 233.365 307.954 233.323C309.245 231.584 310.735 229.965 312.457 228.519C314.388 226.898 316.634 225.501 319.116 224.531C319.162 224.513 319.21 224.494 319.256 224.477Z" fill="#FF7070"/>
</g>
<path d="M294.174 177.086C293.718 177.183 293.318 177.457 293.063 177.848C292.808 178.239 292.719 178.715 292.815 179.172C292.912 179.628 293.185 180.028 293.576 180.283C293.968 180.538 294.444 180.627 294.901 180.531C294.901 180.531 294.901 180.531 294.901 180.531C308.675 178.32 323.179 177.319 337.302 177.363C339.964 177.404 342.606 177.508 345.211 177.787C345.839 177.855 346.518 177.96 347.116 178.084C350.134 178.706 352.481 180.616 354.427 182.857C354.917 183.399 355.173 183.8 355.969 184.688C356.015 184.738 356.032 184.776 355.976 184.708C355.943 184.663 355.902 184.618 355.817 184.44C355.771 184.34 355.72 184.206 355.68 184.028C355.66 183.939 355.644 183.838 355.635 183.727C355.624 183.607 355.623 183.436 355.643 183.271C355.679 182.938 355.811 182.562 355.992 182.279C356.162 182.008 356.365 181.807 356.542 181.671C356.729 181.528 356.847 181.47 356.937 181.426C357.03 181.381 357.104 181.354 357.162 181.334C357.366 181.271 357.346 181.286 357.314 181.28C357.112 181.28 356.521 181.226 356.015 181.151C354.942 180.999 353.797 180.786 352.642 180.572C350.322 180.137 347.976 179.689 345.607 179.291C340.868 178.492 336.043 177.883 331.177 177.666C330.82 177.65 330.462 177.636 330.102 177.623C316.503 177.435 303.721 179.581 290.831 181.117C289.95 181.228 289.059 181.24 288.181 181.307C287.925 181.328 287.671 181.355 287.422 181.389C286.952 181.455 286.486 181.527 286.089 181.582C285.899 181.609 285.708 181.632 285.661 181.634C285.651 181.638 285.639 181.622 285.92 181.645C286.074 181.672 286.285 181.65 286.916 181.931C287.236 182.086 287.709 182.364 288.146 182.943C288.59 183.517 288.801 184.286 288.814 184.803C288.816 184.78 288.811 184.873 288.782 184.937C288.756 185.003 288.734 185.006 288.804 184.934C288.937 184.786 289.415 184.462 290.026 184.196C291.267 183.645 292.931 183.213 294.612 182.852C298.018 182.127 301.679 181.611 305.391 180.889C306.304 180.712 307.226 180.522 308.149 180.312C317.95 177.952 327.583 179.902 337.378 184.17C338.521 184.612 339.703 185.079 341.081 185.474C344.363 186.355 347.089 186.555 349.499 187.169C350.627 187.443 351.68 187.749 352.67 188.152C353.752 188.582 354.764 189.26 355.622 190.198C356.353 191 356.95 191.885 357.515 192.995C357.521 193.004 357.5 192.966 357.459 192.834C357.434 192.748 357.392 192.599 357.369 192.373C357.358 192.255 357.351 192.136 357.359 191.953C357.371 191.724 357.412 191.441 357.52 191.128C357.713 190.504 358.301 189.78 358.898 189.462C359.18 189.297 359.49 189.195 359.653 189.156C359.82 189.115 359.962 189.094 360.08 189.084C360.577 189.055 360.613 189.104 360.685 189.11C360.794 189.152 360.336 189.002 360.003 188.846C359.259 188.513 358.424 188.069 357.598 187.613C355.93 186.689 354.234 185.677 352.543 184.663C349.14 182.626 345.758 180.519 342.129 178.532C341.367 178.118 340.57 177.701 339.753 177.313C329.025 173.525 320.388 175.244 311.033 174.796C309.81 174.79 308.576 174.78 307.318 174.767C304.165 174.737 300.943 174.996 297.785 175.725C297.057 175.892 296.332 176.084 295.64 176.281C295.297 176.377 294.961 176.476 294.678 176.554C294.539 176.593 294.409 176.627 294.335 176.644C294.277 176.663 294.199 176.649 294.543 176.639C294.46 176.641 294.369 176.632 294.496 176.645C294.533 176.649 294.59 176.657 294.685 176.676C294.86 176.735 295.145 176.693 295.955 177.261C296.012 177.299 296.775 177.88 297.074 178.833C297.421 179.807 297.154 180.921 296.838 181.445C296.452 182.083 296.42 182.025 296.289 182.179C296.177 182.291 296.081 182.372 295.999 182.436C295.678 182.68 295.516 182.739 295.487 182.756C295.273 182.852 295.366 182.804 295.424 182.788C295.5 182.763 295.58 182.739 295.696 182.706C296.115 182.589 296.611 182.468 297.124 182.349C298.129 182.115 299.173 181.892 300.224 181.673C302.309 181.239 304.427 180.82 306.554 180.409C310.785 179.593 315.058 178.807 319.319 178.073C320.239 177.915 321.159 177.757 322.083 177.6C330.499 176.11 338.977 176.788 347.199 179.45C348.414 179.827 349.622 180.286 350.834 180.769C352.566 181.492 353.886 182.694 355.171 184.216C355.538 184.65 355.895 185.121 356.27 185.647C356.703 186.215 356.869 186.633 357.903 187.751C357.98 187.813 358.019 187.923 357.816 187.584C357.774 187.469 357.413 186.99 357.512 185.899C357.567 185.286 357.925 184.561 358.298 184.176C358.641 183.803 358.979 183.607 359.22 183.494C359.625 183.316 359.769 183.319 359.837 183.305C359.896 183.298 359.895 183.302 359.858 183.303C359.801 183.307 359.625 183.301 359.463 183.287C358.737 183.225 357.783 183.052 356.855 182.862C354.964 182.47 353.029 181.987 351.08 181.492C347.162 180.504 343.287 179.403 339.085 178.513C338.475 178.389 337.806 178.262 337.13 178.17C325.258 176.847 313.867 177.035 302.232 177.702C301.128 177.776 300.021 177.873 298.921 177.984C297.958 178.081 297.007 178.199 296.047 178.335C294.791 178.53 293.711 178.652 292.096 179.149C291.463 179.371 291.031 179.504 290.269 179.872C290.2 179.907 289.955 180.033 289.744 180.179C289.63 180.258 289.5 180.354 289.342 180.5C289.263 180.574 289.177 180.661 289.083 180.773C289.071 180.799 288.676 181.194 288.477 181.931C288.238 182.658 288.466 183.847 288.968 184.438C289.202 184.747 289.445 184.948 289.65 185.09C289.848 185.229 290.07 185.333 290.086 185.34C290.333 185.454 290.518 185.507 290.673 185.547C290.98 185.621 291.182 185.638 291.373 185.653C291.622 185.669 291.779 185.669 291.977 185.666C292.073 185.665 292.169 185.662 292.267 185.658C292.337 185.655 292.406 185.651 292.478 185.647C293.705 185.57 294.67 185.441 295.762 185.304C297.838 185.033 299.917 184.72 301.945 184.411C306.022 183.787 310.106 183.135 314.169 182.515C322.187 181.367 330.823 179.796 338.102 179.933C338.902 180.018 339.693 180.113 340.477 180.225C344.491 180.78 348.293 181.899 351.905 183.627C352.161 183.752 352.462 183.966 352.778 184.265C354.092 185.495 354.859 187.71 356.61 190.14C356.604 190.138 356.577 190.112 356.523 190.034C356.496 189.977 356.32 189.805 356.173 189.161C356.126 188.982 355.984 188.008 356.524 187.119C357.121 186.177 357.707 185.987 358.08 185.835C358.906 185.598 358.915 185.701 359.066 185.683C359.282 185.698 359.214 185.696 359.171 185.68C359.124 185.666 359.044 185.643 358.94 185.611C350.518 182.463 340.93 178.588 330.843 177.666C329.877 177.577 328.907 177.485 327.932 177.393C319.4 176.636 310.833 175.618 301.687 176.512C301.19 176.568 300.631 176.607 300.067 176.635C299.753 176.65 299.435 176.66 299.116 176.665C298.957 176.668 298.797 176.669 298.639 176.67C298.558 176.671 298.481 176.671 298.401 176.671C298.363 176.67 298.325 176.67 298.285 176.67C298.269 176.67 298.245 176.67 298.229 176.67C298.218 176.67 298.21 176.67 298.202 176.67C298.197 176.669 298.193 176.669 298.19 176.669C298.181 176.669 298.213 176.669 298.158 176.669C298.145 176.67 298.159 176.669 298.073 176.671C298.028 176.675 298.062 176.665 297.788 176.694C297.748 176.699 297.698 176.706 297.617 176.72C297.518 176.741 297.484 176.734 297.154 176.838C297.027 176.882 296.854 176.939 296.571 177.097C296.306 177.269 295.799 177.499 295.273 178.441C295.024 178.892 294.835 179.651 294.919 180.314C294.99 180.994 295.272 181.55 295.533 181.903C296.097 182.629 296.466 182.76 296.712 182.904C297.589 183.288 297.607 183.181 297.742 183.225C297.846 183.239 297.887 183.241 297.932 183.245C298.153 183.26 298.104 183.253 298.137 183.255C298.186 183.256 298.177 183.256 298.183 183.256C298.189 183.256 298.19 183.256 298.192 183.256C298.194 183.256 298.194 183.256 298.195 183.256C298.196 183.256 298.196 183.256 298.197 183.256C298.198 183.256 298.199 183.256 298.201 183.256C298.807 183.263 299.447 183.263 300.064 183.255C316.008 182.957 331.896 182.093 347.457 182.983C347.492 182.985 347.527 182.988 347.563 182.99C351.703 183.182 355.627 187.43 359.363 191.77C359.51 191.938 359.633 192.129 359.745 192.331C359.628 192.308 359.453 192.242 359.314 192.086C359.187 191.917 359.036 191.726 359.199 191.141C359.273 190.927 359.367 190.643 359.723 190.219C360.041 189.82 360.907 189.192 361.94 189.179C358.815 189.259 353.137 182.298 345.707 179.581C345.389 179.469 345.064 179.364 344.735 179.268C334.201 176.067 323.272 177.501 313.769 177.016C313.175 176.98 312.586 176.934 312.003 176.877C308.694 176.558 305.339 176.726 302.043 177.463C301.186 177.656 300.332 177.89 299.48 178.173C299.233 178.255 298.992 178.345 298.754 178.445C298.233 178.666 297.738 178.911 297.171 179.292C296.88 179.497 296.591 179.686 296.135 180.176C295.917 180.47 295.564 180.668 295.219 181.902C295.042 182.497 295.114 183.855 295.806 184.72C296.464 185.57 297.065 185.784 297.447 185.939C311.938 188.233 321.073 181.95 332.023 181.508C333.01 181.419 333.995 181.358 334.97 181.331C340.643 181.132 345.769 182.353 350.685 185.279C351.761 185.888 352.857 186.555 354.029 187.232C354.457 187.479 354.877 187.723 355.284 187.967C355.831 188.294 356.363 188.625 356.802 188.933C357.017 189.084 357.214 189.235 357.318 189.328C357.368 189.371 357.394 189.403 357.35 189.354C357.315 189.281 357.156 189.23 356.927 188.48C356.967 188.634 356.992 188.753 357.005 188.83C357.023 188.922 357.019 188.974 357.018 188.871C357.02 188.805 357.015 188.741 357.06 188.517C357.084 188.402 357.123 188.259 357.192 188.092C357.227 188.008 357.269 187.919 357.321 187.825C357.385 187.709 357.463 187.587 357.558 187.464C357.926 186.963 358.615 186.549 359.145 186.439C359.702 186.32 359.925 186.371 360.128 186.395C360.443 186.454 360.441 186.485 360.411 186.465C360.365 186.444 360.282 186.4 360.164 186.329C359.947 186.197 359.669 186.007 359.373 185.79C358.217 184.936 356.947 183.848 355.68 182.78C353.058 180.637 350.713 178.344 346.885 176.419C346.371 176.185 345.813 175.964 345.143 175.801C344.013 175.526 342.985 175.488 342.396 175.417C342.056 175.379 341.857 175.335 341.738 175.296C341.634 175.262 341.526 175.218 341.456 175.185C341.393 175.159 341.34 175.107 341.502 175.231C341.581 175.305 341.72 175.383 341.998 175.81C342.131 176.028 342.318 176.373 342.401 176.929C342.494 177.483 342.368 178.233 342.104 178.723C341.546 179.708 341.112 179.809 340.941 179.93C340.752 180.026 340.691 180.036 340.663 180.045C345.519 178.51 350.334 176.724 355.117 174.213C356.477 173.482 357.838 172.671 359.155 171.671C359.816 171.169 360.462 170.614 361.067 169.99C361.182 169.872 361.284 169.766 361.375 169.67C361.483 169.558 361.585 169.451 361.695 169.332C361.767 169.254 361.797 169.222 361.893 169.114C361.922 169.081 361.951 169.047 361.989 169.001C362.008 168.978 362.029 168.952 362.056 168.917C362.073 168.894 362.071 168.898 362.113 168.839C362.145 168.793 362.185 168.738 362.243 168.637C362.301 168.528 362.387 168.41 362.495 168.026C362.542 167.829 362.614 167.547 362.55 167.057C362.502 166.586 362.148 165.809 361.527 165.401C360.917 164.985 360.364 164.957 360.046 164.965C359.715 164.98 359.529 165.037 359.388 165.08C358.827 165.292 359 165.252 358.925 165.282C358.893 165.3 358.866 165.316 358.842 165.331C358.796 165.359 358.762 165.382 358.733 165.402C358.677 165.441 358.641 165.468 358.609 165.492C358.549 165.539 358.501 165.579 358.488 165.59C358.314 165.739 358.22 165.828 358.092 165.947C357.658 166.354 357.246 166.754 356.831 167.158C356.017 167.954 355.201 168.765 354.398 169.579C353.595 170.395 352.796 171.22 352.005 172.078C351.606 172.511 351.222 172.938 350.818 173.414C350.617 173.652 350.416 173.896 350.203 174.18C350.096 174.322 349.983 174.476 349.846 174.694C349.765 174.827 349.714 174.902 349.598 175.148C349.538 175.282 349.472 175.439 349.414 175.682C349.396 175.799 349.076 176.875 350.001 177.881L350.644 178.576L351.677 178.58C351.958 178.571 352.235 178.561 352.508 178.55C359.088 178.12 365.897 178.36 372.578 175.108L373.376 174.745L373.494 173.764C373.505 173.629 373.502 173.474 373.471 173.31C373.43 173.063 373.294 172.754 373.116 172.544C372.941 172.333 372.776 172.22 372.622 172.133C372.354 171.99 372.176 171.962 372.066 171.942C371.826 171.907 371.731 171.921 371.636 171.927C371.462 171.946 371.369 171.976 371.282 172.007C371.115 172.071 371.003 172.147 370.897 172.232C370.69 172.404 370.531 172.613 370.381 172.839C370.083 173.29 369.834 173.804 369.539 174.193C370.008 174.328 370.52 174.587 370.99 174.799C371.224 174.905 371.449 174.999 371.631 175.069C371.72 175.105 371.803 175.134 371.835 175.162C371.847 175.176 371.854 175.192 371.78 175.206C371.736 175.21 371.69 175.224 371.501 175.198C371.414 175.182 371.262 175.161 371.015 175.029C370.873 174.949 370.717 174.843 370.55 174.641C370.381 174.442 370.249 174.145 370.21 173.909C370.181 173.753 370.178 173.606 370.189 173.48L371.105 172.136C365.7 174.41 358.866 173.928 352.427 174.032C352.158 174.031 351.885 174.03 351.608 174.029L353.284 174.729C354.165 175.698 353.849 176.664 353.847 176.728C353.803 176.914 353.76 177.006 353.734 177.066C353.687 177.167 353.689 177.157 353.694 177.153C353.71 177.132 353.769 177.053 353.831 176.977C353.959 176.819 354.124 176.629 354.295 176.44C354.642 176.055 355.008 175.671 355.389 175.279C356.149 174.498 356.94 173.717 357.737 172.943C358.533 172.172 359.348 171.397 360.154 170.649C360.561 170.272 360.979 169.888 361.363 169.55C361.464 169.46 361.573 169.367 361.604 169.344C361.605 169.344 361.608 169.343 361.576 169.367C361.561 169.379 361.538 169.397 361.492 169.428C361.469 169.444 361.441 169.464 361.398 169.49C361.377 169.503 361.352 169.518 361.322 169.535C361.248 169.563 361.424 169.522 360.871 169.731C360.732 169.773 360.548 169.83 360.218 169.844C359.901 169.853 359.349 169.825 358.739 169.409C358.119 169.001 357.765 168.226 357.718 167.756C357.654 167.266 357.725 166.986 357.772 166.789C357.879 166.409 357.964 166.294 358.018 166.19C358.074 166.094 358.11 166.044 358.138 166.005C358.173 165.955 358.17 165.96 358.183 165.942C358.203 165.917 358.216 165.9 358.226 165.889C358.244 165.866 358.249 165.86 358.248 165.861C358.235 165.873 358.205 165.905 358.157 165.953C358.077 166.034 357.983 166.126 357.883 166.224C357.798 166.307 357.7 166.402 357.588 166.511C357.174 166.907 356.708 167.279 356.202 167.628C355.193 168.325 354.029 168.916 352.806 169.438C348.471 171.25 343.567 172.354 338.783 173.741C338.536 173.816 338.269 173.901 337.883 174.099C337.519 174.323 336.886 174.559 336.227 175.743C335.911 176.332 335.766 177.196 335.876 177.861C335.974 178.526 336.208 178.976 336.399 179.289C336.797 179.905 337.098 180.138 337.35 180.353C338.386 181.136 338.96 181.298 339.681 181.56C340.413 181.801 341.102 181.906 341.65 181.968C342.629 182.07 343.186 182.105 343.592 182.209C343.688 182.231 343.898 182.302 344.141 182.414C346.284 183.446 348.937 185.727 351.425 187.818C352.704 188.891 353.97 189.992 355.474 191.107C355.872 191.398 356.276 191.681 356.753 191.971C357.302 192.266 357.68 192.613 359.066 192.902C359.501 192.961 359.891 193.021 360.672 192.853C361.411 192.694 362.27 192.174 362.769 191.504C363.698 190.175 363.563 189.429 363.611 188.919C363.612 188.621 363.596 188.444 363.578 188.251C363.558 188.062 363.531 187.874 363.5 187.696C363.45 187.407 363.385 187.12 363.309 186.826C362.992 185.749 362.626 185.413 362.373 185.082C362.109 184.774 361.89 184.571 361.685 184.388C361.277 184.03 360.929 183.776 360.589 183.536C359.914 183.064 359.288 182.68 358.67 182.309C358.213 182.036 357.765 181.775 357.322 181.52C356.246 180.9 355.125 180.217 353.94 179.545C348.428 176.181 341.264 174.43 334.784 174.74C333.66 174.772 332.542 174.842 331.435 174.941C319.956 175.727 307.672 181.301 299.705 179.744C299.995 179.865 300.511 180.032 301.111 180.805C301.745 181.594 301.806 182.847 301.651 183.351C301.351 184.401 301.122 184.439 301.03 184.593C300.832 184.801 300.848 184.758 300.871 184.749C300.936 184.703 301.124 184.6 301.305 184.525C301.389 184.49 301.476 184.457 301.561 184.429C302.185 184.222 302.832 184.044 303.491 183.896C306.032 183.326 308.723 183.183 311.365 183.44C312.036 183.505 312.704 183.557 313.369 183.597C324.053 184.068 333.793 182.839 342.87 185.665C343.071 185.724 343.274 185.79 343.477 185.863C345.983 186.754 348.481 188.653 351.116 190.738C353.885 192.644 356.256 195.808 362.15 196.119C363.42 196.102 364.505 195.34 364.972 194.764C365.483 194.161 365.679 193.662 365.823 193.224C366.44 190.863 365.391 189.408 364.31 188.33C364.129 188.197 363.959 188.052 363.814 187.885C360.031 183.76 355.917 177.788 348.015 176.923C347.978 176.921 347.941 176.918 347.903 176.915C331.738 175.819 315.793 176.35 299.969 176.64C299.371 176.648 298.755 176.662 298.201 176.669C298.198 176.669 298.195 176.669 298.194 176.669C298.193 176.669 298.192 176.669 298.193 176.669C298.193 176.669 298.193 176.669 298.195 176.669C298.197 176.669 298.198 176.669 298.204 176.669C298.21 176.669 298.201 176.669 298.25 176.67C298.283 176.672 298.234 176.665 298.455 176.68C298.5 176.684 298.541 176.686 298.645 176.7C298.78 176.744 298.798 176.637 299.675 177.021C299.92 177.165 300.289 177.295 300.854 178.022C301.115 178.375 301.397 178.931 301.468 179.611C301.552 180.274 301.363 181.033 301.114 181.484C300.588 182.426 300.081 182.656 299.816 182.828C299.533 182.986 299.36 183.043 299.233 183.087C298.903 183.191 298.869 183.184 298.77 183.205C298.689 183.219 298.639 183.226 298.599 183.231C298.325 183.26 298.359 183.25 298.314 183.254C298.228 183.256 298.242 183.255 298.229 183.256C298.172 183.256 298.221 183.256 298.212 183.256C298.218 183.255 298.224 183.255 298.232 183.255C298.244 183.255 298.255 183.255 298.269 183.255C298.29 183.254 298.319 183.254 298.339 183.253C298.388 183.252 298.433 183.252 298.478 183.25C298.572 183.248 298.66 183.246 298.752 183.243C298.933 183.238 299.114 183.232 299.295 183.226C299.657 183.213 300.018 183.197 300.385 183.179C301.046 183.147 301.713 183.103 302.435 183.021C310.317 182.229 318.863 183.145 327.317 183.916C328.293 184.008 329.271 184.099 330.257 184.186C339.281 184.996 347.735 188.156 357.207 191.519C357.604 191.62 357.81 191.722 358.69 191.797C358.98 191.785 359.101 191.895 360.077 191.611C360.512 191.436 361.146 191.222 361.782 190.219C362.357 189.276 362.211 188.205 362.154 187.983C361.992 187.234 361.716 186.882 361.636 186.747C361.516 186.566 361.405 186.426 361.295 186.297C359.983 184.906 358.573 182.598 356.28 180.455C355.671 179.904 354.944 179.366 354.057 178.963C349.99 177.111 345.553 175.9 341.18 175.301C340.327 175.179 339.477 175.076 338.633 174.984C329.488 174.789 321.72 176.303 313.421 177.29C309.33 177.836 305.227 178.405 301.166 178.942C299.15 179.207 297.081 179.476 295.089 179.697C294.064 179.808 293.084 179.91 292.203 179.947C292.051 179.954 291.755 179.952 291.793 179.948C291.809 179.95 291.868 179.948 292.066 179.995C292.167 180.02 292.306 180.058 292.515 180.155C292.585 180.19 293.106 180.413 293.54 180.989C294.021 181.551 294.243 182.709 294.013 183.401C293.82 184.105 293.466 184.449 293.458 184.47C293.377 184.566 293.306 184.638 293.244 184.695C293.121 184.81 293.036 184.87 292.975 184.913C292.854 184.995 292.827 185.003 292.834 185.002C292.837 185.001 292.889 184.977 292.973 184.945C293.06 184.91 293.169 184.87 293.247 184.842C293.422 184.779 293.645 184.704 293.91 184.618C294.526 184.433 295.771 184.236 296.823 184.104C297.681 183.996 298.555 183.915 299.419 183.857C300.469 183.785 301.534 183.727 302.6 183.668C313.786 183.144 325.399 183.101 336.236 184.456C336.689 184.523 337.249 184.633 337.775 184.748C341.518 185.588 345.448 186.784 349.382 187.869C351.362 188.416 353.334 188.955 355.44 189.431C356.501 189.664 357.541 189.89 358.84 190.027C359.142 190.057 359.551 190.085 359.945 190.082C360.453 190.045 360.87 190.146 362.084 189.649C362.454 189.476 362.897 189.208 363.316 188.75C363.773 188.275 364.189 187.431 364.259 186.686C364.393 185.381 363.902 184.574 363.764 184.295C363.288 183.488 363.039 183.286 362.702 182.928C362.797 183.032 362.582 182.776 362.421 182.541C362.244 182.292 362.041 181.996 361.825 181.693C361.395 181.085 360.911 180.435 360.379 179.808C358.519 177.567 355.766 175.727 352.82 174.898C351.55 174.541 350.255 174.165 348.963 173.764C340.168 170.888 330.333 169.988 321.085 171.571C320.156 171.72 319.231 171.87 318.306 172.02C314.019 172.718 309.71 173.404 305.42 174.123C303.262 174.486 301.11 174.856 298.958 175.257C297.871 175.46 296.789 175.669 295.685 175.905C295.112 176.029 294.569 176.15 293.948 176.314C293.768 176.363 293.634 176.4 293.431 176.462C293.217 176.533 293.053 176.571 292.608 176.776C292.545 176.809 292.274 176.925 291.913 177.203C291.819 177.277 291.712 177.367 291.592 177.487C291.451 177.652 291.413 177.597 291.014 178.258C290.688 178.801 290.418 179.932 290.771 180.922C291.073 181.89 291.858 182.493 291.92 182.534C292.765 183.129 293.12 183.111 293.386 183.189C293.532 183.218 293.648 183.234 293.753 183.246C293.857 183.258 293.953 183.265 294.038 183.271C294.097 183.274 294.154 183.277 294.21 183.279C294.322 183.284 294.432 183.286 294.543 183.286C295.227 183.274 295.493 183.191 295.765 183.14C296.024 183.083 296.229 183.03 296.42 182.979C296.797 182.878 297.12 182.785 297.439 182.697C298.075 182.52 298.673 182.364 299.279 182.225C301.877 181.625 304.562 181.33 307.315 181.304C308.572 181.293 309.804 181.284 311.024 181.281C319.959 181.489 330.339 180.438 337.051 183.016C337.714 183.329 338.424 183.698 339.118 184.075C342.459 185.903 345.804 188.037 349.184 190.145C350.875 191.2 352.577 192.266 354.365 193.308C355.265 193.828 356.159 194.339 357.23 194.85C357.789 195.1 358.269 195.366 359.341 195.62C359.674 195.677 359.916 195.759 360.688 195.711C360.867 195.694 361.066 195.665 361.284 195.61C361.5 195.558 361.885 195.429 362.219 195.233C362.925 194.853 363.587 194.037 363.82 193.298C363.948 192.927 364.001 192.579 364.016 192.277C364.027 192.036 364.018 191.868 364.001 191.692C363.967 191.352 363.894 191.063 363.827 190.847C363.724 190.514 363.606 190.247 363.483 189.996C362.793 188.558 361.84 187.016 360.672 185.693C359.29 184.114 357.57 182.702 355.577 181.743C354.143 181.045 352.658 180.533 351.202 180.18C348.112 179.424 345.144 179.25 342.946 178.675C342.053 178.441 340.993 178.053 339.923 177.636C330.236 173.311 317.811 170.623 306.599 173.474C305.765 173.663 304.913 173.839 304.055 174.005C300.551 174.69 296.928 175.195 293.14 175.996C291.241 176.415 289.301 176.864 287.174 177.791C286.11 178.277 284.965 178.859 283.796 180.026C282.617 181.133 281.655 183.298 281.81 185.126C281.826 185.701 282.054 186.524 282.532 187.143C283.003 187.767 283.522 188.078 283.894 188.258C284.627 188.586 284.95 188.583 285.215 188.622C285.722 188.666 285.932 188.64 286.147 188.629C286.549 188.599 286.803 188.562 287.056 188.527C287.553 188.458 287.97 188.393 288.391 188.334C288.612 188.303 288.828 188.267 289.044 188.229C289.918 188.078 290.789 187.868 291.673 187.755C304.519 186.176 317.501 184.081 329.879 184.229C330.218 184.24 330.557 184.252 330.893 184.266C335.49 184.454 340.114 184.839 344.761 185.353C347.087 185.608 349.406 185.898 351.789 186.184C352.984 186.324 354.163 186.465 355.456 186.562C356.112 186.603 356.74 186.664 357.708 186.588C357.82 186.577 357.977 186.56 358.144 186.531C358.327 186.498 358.434 186.481 358.734 186.389C358.868 186.346 359.011 186.292 359.167 186.218C359.245 186.181 359.326 186.139 359.409 186.091C359.508 186.034 359.634 185.953 359.751 185.861C360.218 185.524 360.787 184.759 360.87 183.898C360.894 183.697 360.894 183.482 360.88 183.326C360.869 183.183 360.848 183.05 360.821 182.927C360.766 182.68 360.69 182.474 360.61 182.297C360.46 181.978 360.358 181.835 360.23 181.656C359.978 181.322 359.841 181.193 359.64 180.995C359.569 180.945 359.243 180.579 358.98 180.293C358.703 179.992 358.409 179.68 358.105 179.376C355.395 176.596 351.472 174.904 347.677 174.514C347.003 174.437 346.263 174.36 345.591 174.288C342.807 173.99 340.086 173.887 337.354 173.843C322.838 173.814 308.63 174.766 294.174 177.086Z" fill="black"/>
<path d="M210.557 189.551C210.958 189.79 211.437 189.86 211.89 189.746C212.342 189.632 212.731 189.342 212.97 188.941C213.209 188.54 213.279 188.061 213.165 187.608C213.05 187.156 212.761 186.767 212.36 186.528C212.36 186.528 212.36 186.528 212.36 186.528C206.829 182.934 200.737 179.433 194.189 177.217C193.918 177.126 193.646 177.036 193.372 176.947C186.926 175.128 180.705 175.67 174.579 176.09C162.677 177.17 151.005 179.294 139.465 182.562C138.702 182.785 137.855 182.6 137.088 182.863C136.865 182.939 136.646 183.015 136.431 183.091C136.179 183.19 135.598 183.281 135.308 183.279C135.292 183.28 135.324 183.274 135.496 183.296C135.645 183.329 135.906 183.313 136.595 183.664C136.682 183.711 136.776 183.767 136.877 183.835C136.986 183.906 137.296 184.137 137.531 184.406C138.043 184.934 138.508 186.015 138.434 186.951C138.398 187.871 137.96 188.563 137.905 188.651C137.77 188.866 137.645 189.019 137.537 189.14C137.109 189.595 136.897 189.675 136.863 189.706C136.793 189.749 136.756 189.768 136.737 189.778C136.704 189.794 136.734 189.779 136.77 189.764C136.949 189.688 137.271 189.573 137.592 189.467C138.228 189.257 138.977 189.035 139.667 188.839C141.107 188.429 142.579 188.044 144.052 187.671C147.006 186.926 149.992 186.228 152.994 185.558C158.978 184.226 165.011 183.01 171.047 181.934C171.681 181.822 172.316 181.71 172.949 181.601C183.012 179.934 193.417 179.179 201.485 184.097C202.306 184.558 203.154 185.071 204.116 185.605C205.337 186.28 206.544 187.123 207.765 188.07C208.634 188.73 209.27 189.324 210.606 190.267C210.651 190.296 210.654 190.305 210.566 190.233C210.511 190.175 210.345 190.091 209.983 189.573C209.938 189.505 209.889 189.427 209.839 189.335C209.779 189.216 209.771 189.243 209.612 188.836C209.347 188.236 209.221 186.705 210.03 185.601C210.78 184.525 211.773 184.278 211.811 184.253C212.049 184.173 212.232 184.137 212.38 184.113C212.948 184.037 213.091 184.091 213.123 184.086C213.179 184.091 213.199 184.095 213.2 184.095C213.191 184.094 213.144 184.085 213.08 184.071C212.797 184.008 212.407 183.903 212.025 183.797C211.26 183.584 210.401 183.33 209.613 183.098C207.97 182.614 206.312 182.125 204.649 181.653C201.317 180.705 197.958 179.812 194.561 179.007C187.78 177.406 180.867 176.124 173.793 175.534C173.178 175.484 172.562 175.439 171.947 175.401C163.596 174.54 155.192 177.886 148.383 180.256C147.534 180.542 146.703 180.814 145.85 181.083C144.142 181.62 142.506 182.396 141.016 183.359C140.514 183.684 140.03 184.027 139.568 184.383C139.337 184.56 139.114 184.738 138.907 184.907C138.804 184.991 138.705 185.072 138.626 185.136C138.558 185.194 138.444 185.274 138.585 185.175C138.341 185.338 138.123 185.486 137.924 185.629C137.795 185.721 137.644 185.833 137.508 185.939C137.435 185.997 137.385 186.037 137.283 186.123C137.15 186.238 137.01 186.361 136.817 186.575C136.768 186.63 136.716 186.691 136.659 186.763C136.63 186.799 136.6 186.838 136.569 186.881C136.554 186.903 136.538 186.925 136.521 186.949C136.513 186.96 136.505 186.972 136.497 186.985C136.472 187.02 136.447 187.06 136.421 187.101C136.237 187.438 135.854 187.956 135.886 189.174C135.847 190.434 137.157 191.901 137.871 192.119C138.715 192.492 139.145 192.449 139.455 192.46C139.761 192.454 139.948 192.424 140.11 192.397C140.429 192.34 140.626 192.282 140.84 192.219C141.118 192.135 141.446 192.02 141.656 191.944C142.63 191.589 143.452 191.254 144.322 190.906C146.026 190.217 147.706 189.53 149.39 188.857C152.766 187.505 156.116 186.216 159.493 185.02C166.234 182.661 173.15 180.498 179.823 179.779C180.111 179.75 180.401 179.723 180.692 179.698C190.538 178.896 201.369 179.673 208.413 185.137C208.487 185.195 208.56 185.255 208.632 185.314C209.486 186.025 210.521 186.842 211.091 187.349C211.116 187.371 211.134 187.391 211.096 187.352C211.077 187.33 211.041 187.296 210.954 187.185C210.902 187.117 210.848 187.049 210.737 186.865C210.653 186.672 210.421 186.481 210.288 185.447C210.282 185.315 210.253 185.077 210.397 184.602C210.526 184.13 211.005 183.455 211.5 183.157C211.978 182.852 212.298 182.81 212.454 182.784C212.606 182.764 212.644 182.773 212.634 182.771C212.545 182.774 211.979 182.652 211.458 182.478C210.365 182.123 209.129 181.609 207.883 181.081C205.343 180.028 202.885 178.81 199.627 177.931C199.535 177.908 199.442 177.885 199.349 177.863C192.939 176.44 187.15 176.411 181.474 175.613C181.316 175.593 181.158 175.572 181 175.551C171.8 174.31 161.574 173.657 152.15 176.693C151.583 176.858 151.026 177.026 150.473 177.195C146.048 178.536 141.719 180.244 137.624 181.854C136.909 182.13 136.206 182.397 135.57 182.61C135.185 182.738 134.854 182.855 134.55 182.973C134.321 183.064 134.061 183.17 133.773 183.318C133.695 183.359 133.635 183.391 133.52 183.459C133.269 183.634 132.952 183.735 132.342 184.536C132.06 184.94 131.631 185.705 131.702 186.826C131.79 188.001 132.404 188.791 132.872 189.205C133.858 190.007 134.321 189.971 134.65 190.067C134.814 190.097 134.944 190.112 135.058 190.122C135.19 190.133 135.175 190.131 135.23 190.134C135.313 190.139 135.39 190.141 135.463 190.142C135.609 190.144 135.741 190.141 135.873 190.136C136.181 190.123 136.284 190.113 136.473 190.098C136.649 190.084 136.831 190.066 137.024 190.046C137.21 190.026 137.331 190.012 137.494 189.993C138.826 189.831 139.942 189.66 141.212 189.465C143.627 189.088 145.976 188.694 148.356 188.294C153.138 187.487 157.835 186.681 162.576 185.904C171.753 184.495 182.421 182.444 189.886 182.803C191.081 183.082 192.268 183.38 193.444 183.697C198.38 185.018 203.132 186.67 207.804 188.809C208.094 188.939 208.412 189.109 208.698 189.285C208.841 189.372 208.979 189.463 209.075 189.534C209.121 189.567 209.161 189.6 209.149 189.59C209.141 189.582 209.124 189.57 209.048 189.491C209.01 189.449 208.957 189.396 208.852 189.254C208.802 189.185 208.729 189.083 208.634 188.905C208.581 188.805 208.523 188.684 208.465 188.525C208.397 188.337 208.319 188.075 208.289 187.728C208.287 187.711 208.286 187.686 208.285 187.656C208.287 187.535 208.279 187.204 208.526 186.727C208.761 186.256 209.25 185.88 209.51 185.767C210.042 185.548 209.899 185.645 209.706 185.61C205.828 185.106 200.907 182.226 194.517 181.146C193.323 181.018 192.095 180.849 190.84 180.68C183.414 179.616 175.833 179.098 168.374 178.822C167.454 178.787 166.537 178.757 165.619 178.731C158.965 178.602 152.121 178.396 145.033 180.276C144.411 180.447 143.776 180.638 143.143 180.853C142.333 181.127 141.534 181.438 140.772 181.765C140.187 182.026 139.801 182.154 138.869 182.696C138.786 182.748 138.687 182.811 138.531 182.93C138.441 183 138.372 183.051 138.197 183.217C138.055 183.41 137.797 183.428 137.33 184.582C137.208 184.948 137.108 185.466 137.192 186.071C137.264 186.685 137.605 187.393 138.002 187.815C138.193 188.03 138.423 188.215 138.571 188.316C138.699 188.404 138.82 188.475 138.933 188.534C139.159 188.65 139.35 188.718 139.513 188.767C139.691 188.819 139.773 188.833 139.857 188.849C139.94 188.865 140.014 188.875 140.081 188.883C140.213 188.898 140.338 188.903 140.395 188.904C140.689 188.908 140.814 188.887 140.942 188.871C141.371 188.804 141.542 188.732 141.747 188.658C142.141 188.507 142.445 188.344 142.762 188.183C143.16 187.973 143.559 187.779 143.976 187.669C156.934 184.458 170.794 180.71 183.105 181.254C183.226 181.272 183.339 181.29 183.442 181.309C188.475 182.242 193.411 182.676 198.1 183.587C198.452 183.654 198.802 183.724 199.153 183.796C200.536 184.08 201.933 184.556 203.429 185.128C203.855 185.288 204.267 185.455 204.814 185.645C204.95 185.691 205.083 185.743 205.075 185.742C205.067 185.738 205.031 185.729 204.884 185.648C204.862 185.636 204.852 185.63 204.812 185.606C204.751 185.568 204.672 185.518 204.561 185.43C204.449 185.339 204.301 185.219 204.1 184.963C203.912 184.709 203.611 184.276 203.54 183.506C203.504 183.165 203.568 182.595 203.776 182.158C203.977 181.712 204.266 181.392 204.511 181.187C205.015 180.781 205.337 180.71 205.551 180.643C205.758 180.587 205.914 180.571 205.966 180.566C206.005 180.562 206.038 180.559 206.067 180.557C206.287 180.546 206.321 180.557 206.327 180.555C206.338 180.555 206.329 180.554 206.31 180.551C206.135 180.526 205.824 180.469 205.529 180.412C204.938 180.296 204.316 180.164 203.696 180.03C202.452 179.762 201.203 179.482 199.946 179.212C197.419 178.674 194.908 178.142 192.176 177.849C192.136 177.844 192.095 177.84 192.055 177.836C183.353 177.031 174.874 177.536 166.421 178.223C166.1 178.25 165.764 178.28 165.446 178.308C158.189 178.987 150.999 179.558 143.533 180.989C142.854 181.13 142.172 181.284 141.46 181.475C141.411 181.488 141.358 181.5 141.301 181.512C141.15 181.541 140.972 181.56 140.832 181.561C140.766 181.562 140.702 181.557 140.712 181.557C140.722 181.559 140.741 181.557 140.867 181.587C140.937 181.606 141.023 181.623 141.249 181.721C141.373 181.78 141.533 181.85 141.808 182.059C142.062 182.296 142.735 182.71 142.926 184.115C142.931 184.163 142.938 184.299 142.886 184.492C142.837 184.683 142.715 184.903 142.606 185.028C142.371 185.284 142.359 185.213 142.54 185.161C142.907 185.027 143.712 184.904 144.536 184.849C146.233 184.719 148.107 184.789 150.344 184.54C150.971 184.461 151.634 184.363 152.438 184.112C152.744 184.007 152.951 183.956 153.479 183.672C153.662 183.557 154.143 183.33 154.672 182.619C155.035 182.137 155.39 181.251 155.284 180.337C155.208 179.44 154.679 178.695 154.467 178.469C154.211 178.178 153.982 177.999 153.784 177.861C153.622 177.749 153.504 177.68 153.381 177.613C153.122 177.475 152.976 177.415 152.817 177.35C152.483 177.218 152.288 177.158 152.054 177.086C151.205 176.837 150.524 176.698 149.831 176.552C148.457 176.272 147.16 176.042 145.872 175.804C143.357 175.333 140.612 174.851 138.843 174.224C138.843 174.224 138.843 174.223 138.842 174.223C135.687 173.046 132.967 170.693 130.319 167.655C130.21 167.533 130.098 167.409 129.985 167.284C129.907 167.2 129.841 167.113 129.901 167.193C129.926 167.231 129.925 167.221 130.017 167.372C130.063 167.452 130.125 167.561 130.203 167.749C130.242 167.844 130.285 167.959 130.327 168.109C130.348 168.185 130.369 168.269 130.388 168.365C130.392 168.385 130.42 168.531 130.433 168.667C130.448 168.808 130.455 168.969 130.448 169.152C130.463 169.848 129.972 171.155 129.027 171.78C128.608 172.092 128.063 172.274 127.867 172.316C127.669 172.365 127.494 172.39 127.341 172.404C126.733 172.446 126.451 172.36 126.25 172.316C126.032 172.257 126.011 172.243 125.952 172.222C125.901 172.203 125.865 172.188 125.837 172.176C125.659 172.091 125.806 172.161 125.867 172.2C125.954 172.252 126.064 172.321 126.175 172.392C126.635 172.688 127.144 173.038 127.656 173.394C128.666 174.097 129.715 174.845 130.749 175.579C132.829 177.056 134.931 178.545 137.107 179.996C138.51 180.926 139.928 181.852 141.531 182.735C142.077 183.033 142.634 183.287 143.194 183.5C145.02 184.23 147.335 184.263 148.365 184.3L147.987 178.413C147.644 178.555 147.295 178.688 146.942 178.806C141.721 180.544 136.312 181.82 130.874 182.727L131.105 182.702C130.987 182.712 130.862 182.722 130.742 182.731C127.778 182.881 124.786 184.904 121.456 184.578C124.073 186.715 127.704 188.493 131.075 188.39C131.211 188.384 131.356 188.377 131.492 188.369L131.723 188.344C137.505 187.545 143.182 186.234 148.773 184.524C149.152 184.407 149.535 184.301 149.918 184.2L160.858 180.27L149.541 178.314C147.505 177.916 146.702 177.587 145.628 177.172C145.334 177.058 145.059 176.929 144.801 176.786C143.557 176.093 142.211 175.215 140.9 174.334C138.846 172.948 136.793 171.48 134.729 170.001C133.7 169.264 132.652 168.509 131.592 167.764C131.047 167.382 130.517 167.011 129.904 166.613C129.751 166.514 129.589 166.411 129.403 166.299C129.316 166.247 129.216 166.187 129.088 166.116C128.957 166.046 128.868 165.992 128.589 165.868C128.525 165.84 128.454 165.81 128.371 165.779C128.28 165.747 128.233 165.722 127.959 165.649C127.71 165.592 127.389 165.501 126.751 165.546C126.591 165.56 126.409 165.586 126.204 165.637C126.002 165.681 125.444 165.868 125.017 166.186C124.056 166.822 123.556 168.147 123.571 168.867C123.563 169.057 123.571 169.224 123.586 169.371C123.6 169.514 123.629 169.67 123.634 169.691C123.654 169.794 123.676 169.885 123.699 169.967C123.746 170.132 123.794 170.262 123.84 170.373C123.932 170.594 124.013 170.742 124.085 170.865C124.169 171.005 124.19 171.035 124.227 171.091C124.261 171.142 124.294 171.188 124.326 171.232C124.454 171.409 124.561 171.537 124.63 171.619C124.708 171.712 124.787 171.802 124.87 171.894C124.967 172.003 125.072 172.12 125.179 172.241C127.984 175.485 131.665 178.956 136.41 180.716C136.41 180.716 136.411 180.716 136.412 180.717C139.619 181.81 142.154 182.022 144.833 182.409C146.147 182.582 147.449 182.74 148.683 182.926C149.286 183.017 149.91 183.125 150.321 183.225C150.421 183.249 150.498 183.272 150.504 183.271C150.501 183.267 150.489 183.264 150.392 183.211C150.343 183.184 150.286 183.151 150.19 183.084C150.071 183 149.905 182.876 149.698 182.64C149.532 182.463 149.059 181.813 148.987 180.989C148.889 180.153 149.221 179.343 149.528 178.939C149.986 178.336 150.278 178.24 150.35 178.186C150.569 178.072 150.519 178.115 150.464 178.132C150.288 178.202 149.927 178.286 149.528 178.344C148.013 178.565 146.09 178.567 144.02 178.757C142.959 178.87 141.873 178.965 140.452 179.47C139.749 179.745 138.875 180.119 138.015 181.1C137.13 182.07 136.787 183.658 136.922 184.661C137.117 186.108 137.82 186.555 138.108 186.818C138.414 187.052 138.612 187.142 138.775 187.218C139.077 187.351 139.243 187.391 139.396 187.432C139.684 187.502 139.869 187.525 140.045 187.546C140.389 187.583 140.661 187.587 140.929 187.583C141.46 187.573 141.95 187.519 142.457 187.421C142.645 187.384 142.834 187.341 143.026 187.289C143.572 187.142 144.155 187.009 144.751 186.886C151.528 185.58 158.816 184.969 165.98 184.305C166.291 184.278 166.618 184.249 166.932 184.223C175.155 183.547 183.465 183.247 191.444 183.992C191.481 183.996 191.518 184 191.555 184.003C193.882 184.247 196.4 184.619 198.888 184.99C200.135 185.177 201.386 185.373 202.654 185.577C203.289 185.679 203.924 185.782 204.581 185.884C204.932 185.937 205.215 185.984 205.687 186.036C205.863 186.047 205.85 186.076 206.41 186.06C206.446 186.057 206.487 186.054 206.532 186.049C206.594 186.043 206.771 186.024 206.989 185.965C207.215 185.895 207.546 185.819 208.056 185.409C208.304 185.201 208.595 184.878 208.797 184.43C209.007 183.99 209.07 183.417 209.035 183.074C208.788 181.514 208.172 181.337 207.984 181.111C207.862 181.015 207.772 180.957 207.696 180.91C207.647 180.88 207.633 180.873 207.605 180.856C207.409 180.747 207.279 180.695 207.194 180.659C206.912 180.546 206.757 180.498 206.552 180.43C206.239 180.33 205.802 180.163 205.375 180.001C203.807 179.403 202.093 178.802 200.259 178.425C199.882 178.348 199.507 178.273 199.132 178.201C194.092 177.229 189.144 176.795 184.435 175.916C184.255 175.883 184.072 175.853 183.885 175.826C168.848 175.199 156.01 179.138 142.589 182.364C142.166 182.475 141.718 182.504 141.262 182.519C140.961 182.522 140.664 182.511 140.429 182.496C140.33 182.487 140.187 182.478 140.301 182.444C140.346 182.437 140.394 182.422 140.611 182.423C140.653 182.423 140.751 182.427 140.864 182.44C140.921 182.446 140.986 182.455 141.061 182.469C141.136 182.484 141.21 182.496 141.376 182.545C141.528 182.59 141.71 182.655 141.927 182.767C142.036 182.823 142.154 182.892 142.278 182.978C142.423 183.077 142.647 183.258 142.835 183.468C143.226 183.883 143.563 184.582 143.633 185.186C143.716 185.783 143.617 186.292 143.498 186.647C143.044 187.766 142.818 187.752 142.701 187.919C142.56 188.053 142.515 188.085 142.459 188.129C142.365 188.201 142.336 188.218 142.318 188.23C142.257 188.263 142.508 188.129 142.691 188.046C142.891 187.953 143.112 187.855 143.334 187.761C143.975 187.486 144.599 187.244 145.235 187.029C145.732 186.86 146.24 186.707 146.769 186.561C152.447 185.022 158.971 185.098 165.436 185.249C166.33 185.274 167.227 185.304 168.129 185.338C175.494 185.612 182.719 186.104 189.966 187.141C191.218 187.31 192.495 187.486 193.818 187.629C197.99 188.227 202.539 191.078 209.273 192.116C209.98 192.134 210.759 192.225 212.132 191.644C212.809 191.349 213.663 190.671 214.111 189.806C214.58 188.928 214.64 188.131 214.636 187.574C214.634 187.442 214.627 187.312 214.617 187.186C214.585 186.826 214.504 186.549 214.43 186.346C214.368 186.175 214.303 186.04 214.243 185.927C214.135 185.724 214.044 185.595 213.978 185.504C213.838 185.315 213.746 185.217 213.668 185.133C213.511 184.968 213.409 184.878 213.312 184.793C213.123 184.63 212.976 184.518 212.834 184.413C212.552 184.206 212.299 184.04 212.042 183.88C211.532 183.564 211.024 183.286 210.462 183.024C205.584 180.728 200.421 178.743 195.188 177.31C193.938 176.965 192.682 176.641 191.422 176.338C179.716 175.562 171.295 177.849 161.489 179.139C156.711 179.89 151.99 180.672 147.219 181.456C144.847 181.845 142.506 182.228 140.154 182.588C138.926 182.775 137.827 182.938 136.678 183.075C136.541 183.091 136.44 183.102 136.294 183.118C136.143 183.134 136.011 183.146 135.899 183.155C135.785 183.164 135.709 183.17 135.607 183.174C135.569 183.175 135.549 183.175 135.562 183.175C135.569 183.175 135.584 183.175 135.61 183.177C135.626 183.179 135.688 183.174 135.925 183.216C136.161 183.294 136.559 183.235 137.512 184.006C137.962 184.405 138.566 185.178 138.653 186.332C138.722 187.43 138.301 188.172 138.037 188.551C137.464 189.299 137.223 189.339 137.09 189.444C137.031 189.479 137.009 189.49 136.986 189.502C136.903 189.544 136.976 189.506 137.082 189.466C137.224 189.411 137.46 189.326 137.77 189.223C138.625 188.937 139.38 188.648 140.138 188.356C144.362 186.694 148.369 185.118 152.51 183.861C153.046 183.698 153.574 183.538 154.099 183.385C162.366 180.727 171.079 181.267 180.069 182.459C180.238 182.482 180.406 182.504 180.574 182.526C186.556 183.342 192.623 183.475 197.722 184.641C197.794 184.658 197.867 184.676 197.939 184.694C200.024 185.237 202.603 186.418 205.159 187.498C206.466 188.049 207.777 188.608 209.321 189.113C210.121 189.357 210.877 189.619 212.185 189.727C212.83 189.721 213.733 189.924 215.324 188.986C216.112 188.498 216.803 187.534 217.035 186.731C217.283 185.924 217.269 185.358 217.233 184.852C217.097 183.779 216.844 183.548 216.741 183.323C216.608 183.102 216.533 183.005 216.454 182.902C216.319 182.73 216.227 182.632 216.153 182.554C216.005 182.399 215.904 182.305 215.812 182.22C214.696 181.236 213.947 180.673 213.073 179.942C212.971 179.857 212.868 179.774 212.765 179.691C202.762 172.211 190.873 172.009 180.086 172.753C179.767 172.781 179.449 172.811 179.134 172.842C171.286 173.71 164.185 176.031 157.171 178.49C153.679 179.736 150.244 181.07 146.817 182.451C145.111 183.137 143.41 183.837 141.74 184.514C140.902 184.853 140.071 185.189 139.312 185.466C139.154 185.524 138.929 185.601 138.852 185.623C138.796 185.642 138.777 185.639 138.924 185.612C139.001 185.6 139.118 185.577 139.366 185.573C139.619 185.585 140.006 185.535 140.82 185.894C141.509 186.101 142.802 187.546 142.762 188.779C142.792 189.97 142.421 190.453 142.264 190.748C142.241 190.785 142.219 190.819 142.198 190.849C142.191 190.859 142.184 190.87 142.177 190.879C142.164 190.899 142.15 190.918 142.138 190.935C142.112 190.97 142.088 191.002 142.066 191.03C142.022 191.086 141.984 191.13 141.951 191.166C141.694 191.438 141.753 191.356 141.767 191.352C141.792 191.333 141.86 191.281 141.934 191.229C142.047 191.147 142.207 191.037 142.405 190.905C142.749 190.669 142.829 190.59 142.957 190.49C143.069 190.399 143.163 190.322 143.254 190.248C143.434 190.101 143.597 189.971 143.763 189.844C144.092 189.59 144.416 189.36 144.752 189.144C145.743 188.503 146.801 188.004 147.913 187.658C148.81 187.378 149.682 187.097 150.565 186.806C158.099 184.252 164.41 181.883 171.491 182.597C172.06 182.634 172.63 182.676 173.201 182.723C179.772 183.27 186.369 184.483 192.897 186.026C196.171 186.802 199.422 187.665 202.676 188.591C204.301 189.053 205.925 189.531 207.574 190.018C208.37 190.251 209.236 190.508 210.091 190.746C210.535 190.868 210.947 190.984 211.528 191.115C211.686 191.149 211.772 191.169 212.035 191.214C212.15 191.232 212.273 191.25 212.418 191.265C212.507 191.266 212.849 191.332 213.493 191.24C213.663 191.213 213.866 191.172 214.121 191.086C214.168 191.059 215.208 190.792 215.969 189.695C216.794 188.568 216.67 187.008 216.392 186.374C216.225 185.946 216.214 185.97 216.15 185.842C216.095 185.743 216.042 185.657 215.991 185.58C215.59 185 215.317 184.813 215.171 184.681C214.955 184.503 214.784 184.384 214.607 184.266C214.124 183.934 213.081 183.06 212.183 182.368C210.792 181.29 209.284 180.221 207.608 179.293C206.824 178.859 205.953 178.335 205.027 177.813C194.557 171.584 182.234 172.773 171.723 174.493C171.077 174.604 170.43 174.718 169.784 174.833C163.632 175.929 157.512 177.163 151.425 178.518C148.368 179.2 145.329 179.91 142.286 180.678C140.765 181.063 139.243 181.46 137.692 181.901C136.944 182.114 136.131 182.354 135.326 182.619C134.902 182.761 134.516 182.889 133.959 183.121C133.804 183.188 133.725 183.219 133.468 183.348C133.355 183.405 133.236 183.469 133.096 183.555C133.016 183.612 132.658 183.792 132.185 184.303C132.063 184.439 131.926 184.607 131.783 184.836C131.721 184.932 131.264 185.662 131.229 186.604C131.154 187.565 131.628 188.669 132.158 189.218C132.402 189.497 132.728 189.741 132.845 189.816C132.953 189.889 133.054 189.949 133.148 190.001C133.897 190.385 134.266 190.396 134.539 190.445C134.859 190.487 135.085 190.491 135.308 190.492C136.591 190.469 137.587 190.313 138.824 189.896C139.022 189.826 139.225 189.756 139.431 189.685C140.139 189.442 140.668 188.802 141.383 188.552C152.241 184.841 163.592 181.773 175.023 180.138C180.841 179.392 187.076 178.804 192.297 180.301C192.552 180.382 192.806 180.465 193.059 180.551C199.226 182.648 204.87 185.862 210.557 189.551Z" fill="black"/>
<path d="M178.76 337.883C178.76 337.416 178.575 336.968 178.245 336.638C177.914 336.308 177.467 336.123 177 336.123C176.533 336.123 176.086 336.308 175.755 336.638C175.425 336.968 175.24 337.416 175.24 337.883C175.255 338.074 175.176 338.579 175.541 339.307C175.932 340.047 176.614 340.376 176.999 340.505C177.004 340.507 177.009 340.508 177.014 340.51C180.947 341.648 183.9 339.748 186.439 338.525C188.22 337.586 189.894 336.604 191.564 335.836C191.632 335.805 191.7 335.773 191.767 335.742C197.052 333.245 201.301 329.537 205.693 326.448C205.737 326.416 205.782 326.384 205.827 326.352C210.419 323.077 214.452 318.637 216.529 313.136C216.539 313.109 216.549 313.083 216.559 313.056C218.433 307.78 218.779 302.584 220.221 297.824C220.226 297.809 220.23 297.795 220.234 297.78C221.692 292.873 223.149 288.01 225.134 283.43C225.138 283.421 225.141 283.413 225.145 283.405C225.564 282.12 228.33 281.442 230.979 280.957C230.99 280.955 231.001 280.952 231.013 280.95C233.88 280.367 236.837 281.766 238.667 283.466C238.668 283.467 238.669 283.467 238.67 283.468C242.173 289.797 241.319 302.547 240.208 312.073C240.202 312.112 240.196 312.151 240.19 312.189C239.631 315.846 236.576 319.801 233.427 323.926C233.402 323.958 233.377 323.991 233.352 324.023C229.924 328.543 224.859 331.81 219.461 335.989C219.435 336.01 219.408 336.031 219.382 336.052C214.966 339.552 210.506 342.909 205.888 345.984C205.883 345.988 205.878 345.991 205.873 345.995C205.327 346.359 204.78 346.721 204.232 347.083C202.477 348.243 200.716 349.395 198.965 350.562C198.959 350.566 198.953 350.57 198.948 350.574C198.487 350.894 198.111 351.554 197.918 352.597C197.826 353.118 197.776 353.74 197.865 354.443C197.955 355.118 198.219 356.019 198.924 356.345C199.645 356.101 200.217 356.488 200.658 356.731C201.106 357 201.478 357.243 201.823 357.408C202.508 357.743 203.074 357.783 203.55 357.477C203.556 357.473 203.562 357.469 203.568 357.465C205.318 356.298 207.059 355.116 208.805 353.942C209.349 353.575 209.894 353.21 210.44 352.846C210.445 352.842 210.45 352.839 210.456 352.836C215.327 349.591 219.98 346.085 224.496 342.506C224.522 342.484 224.549 342.463 224.576 342.442C229.349 338.694 235.362 334.783 239.743 328.856C239.775 328.814 239.806 328.771 239.838 328.728C242.807 324.524 246.768 319.986 247.633 313.101C247.64 313.03 247.647 312.958 247.653 312.887C247.771 301.741 249.854 291.282 241.859 279.59C241.854 279.586 241.849 279.582 241.843 279.578C238.378 277.027 234.113 276.747 230.332 277.497C230.316 277.5 230.301 277.503 230.286 277.506C227.804 278.174 224.041 278.023 221.915 282.004C221.911 282.013 221.908 282.022 221.904 282.031C219.809 286.871 218.323 291.859 216.859 296.781C216.855 296.796 216.85 296.81 216.846 296.825C215.302 302.009 214.898 307.308 213.26 311.826C213.252 311.849 213.243 311.871 213.235 311.894C211.48 316.558 207.959 320.512 203.781 323.488C203.74 323.517 203.7 323.546 203.659 323.575C199.102 326.8 194.959 330.359 190.274 332.554C190.214 332.582 190.154 332.61 190.094 332.637C188.2 333.512 186.488 334.522 184.799 335.41C182.42 336.677 179.813 337.793 178.149 337.178C178.147 337.177 178.145 337.177 178.143 337.176C178.158 337.182 178.211 337.198 178.313 337.268C178.412 337.335 178.563 337.486 178.649 337.654C178.82 338.016 178.746 338.095 178.76 337.883Z" fill="black"/>
<path d="M300.411 341.796C300.907 342.092 301.5 342.178 302.06 342.037C302.62 341.895 303.1 341.537 303.396 341.041C303.691 340.546 303.778 339.953 303.637 339.393C303.495 338.833 303.137 338.353 302.641 338.057C302.641 338.057 302.641 338.057 302.641 338.057C300.736 336.778 298.369 334.517 296.089 332.686C294.871 331.689 293.62 330.709 292.323 329.774C292.295 329.753 292.268 329.733 292.24 329.713C287.332 326.226 283.362 321.613 278.069 317.942C277.995 317.892 277.92 317.841 277.846 317.791C274.995 316.046 274.442 310.554 273.469 305.14C273.457 305.072 273.444 305.004 273.431 304.936C272.421 299.526 270.066 294.615 267.508 290.195C267.451 290.095 267.394 289.996 267.336 289.897C265.667 287.055 263.512 284.79 261.211 282.81C261.098 282.713 260.983 282.617 260.868 282.521C258.272 280.379 255.155 279.979 252.64 279.918C252.467 279.914 252.295 279.912 252.126 279.911C250.424 279.869 248.895 280.89 248.174 281.689C247.393 282.518 246.965 283.268 246.581 283.955C245.846 285.313 245.348 286.543 244.861 287.396C244.831 287.45 244.801 287.501 244.773 287.548C240.51 295.14 240.441 303.291 240.895 310.91C241.178 314.742 241.738 318.543 242.546 322.29C242.953 324.167 243.421 326.035 244.001 327.921C244.281 328.831 244.614 329.825 244.994 330.781C245.097 331.039 245.2 331.287 245.304 331.525C245.422 331.794 245.549 332.065 245.676 332.319C245.83 332.62 245.972 332.887 246.198 333.24C246.322 333.432 246.457 333.625 246.623 333.829C246.826 334.073 247.122 334.416 247.635 334.763C247.678 334.792 247.721 334.821 247.764 334.851C252.312 337.934 256.877 340.994 261.417 344.089C261.419 344.09 261.42 344.091 261.421 344.092C265.917 347.168 270.168 350.936 274.763 354.546C274.803 354.577 274.843 354.609 274.883 354.64L275.067 354.77C275.519 355.085 275.976 355.391 276.438 355.689C278.343 356.919 280.342 357.995 282.385 358.855C282.458 358.886 282.535 358.908 282.616 358.921L282.363 358.805C282.671 358.841 283.134 358.641 283.729 358.2C284.012 357.966 284.4 357.741 284.612 357.28C284.628 357.208 284.642 357.146 284.592 356.97C284.586 356.932 284.556 356.86 284.531 356.772C284.506 356.679 284.468 356.584 284.445 356.325C284.437 356.203 284.443 356.057 284.481 355.898C284.523 355.714 284.615 355.518 284.737 355.365C285.021 355.032 285.2 355.003 285.36 354.949C285.856 354.876 285.804 355.021 285.858 355.076C285.88 355.147 285.868 355.217 285.848 355.284C285.757 355.553 285.566 355.811 285.372 356.081C285.377 356.415 285.378 356.732 285.487 357.043C285.512 357.12 285.559 357.2 285.625 357.275C285.734 357.335 285.732 357.485 286.276 357.395C286.449 357.336 286.636 357.303 286.929 356.959C287.056 356.801 287.15 356.599 287.193 356.409C287.232 356.244 287.238 356.091 287.229 355.964C287.204 355.691 287.161 355.584 287.132 355.481C287.101 355.382 287.062 355.295 287.05 355.25C286.971 355.032 286.949 354.933 286.928 354.826C286.835 354.092 286.876 353.652 286.813 353.202C286.714 352.334 286.46 351.746 286.039 351.418L285.786 351.302C285.731 351.259 285.672 351.224 285.61 351.198C283.885 350.472 282.212 349.717 280.626 348.817C280.241 348.599 279.862 348.373 279.489 348.137L279.672 348.267C279.633 348.239 279.594 348.211 279.554 348.182C275.009 344.917 270.465 341.339 265.449 338.051C265.447 338.05 265.446 338.049 265.445 338.048C260.841 335.048 256.261 332.011 251.665 328.999C251.622 328.97 251.578 328.941 251.535 328.913C248.51 320.217 244.395 301.473 250.22 290.729C250.274 290.635 250.326 290.541 250.377 290.447C251.136 289.026 251.58 287.826 252.07 286.899C252.301 286.446 252.551 286.074 252.662 285.959C252.714 285.899 252.715 285.918 252.605 285.975C252.501 286.033 252.271 286.094 252.109 286.089C252.24 286.089 252.371 286.09 252.499 286.093C254.407 286.124 255.959 286.591 256.833 287.356C256.928 287.436 257.023 287.517 257.118 287.598C259.034 289.238 260.743 291.095 261.892 293.065C261.946 293.158 262 293.251 262.054 293.344C264.467 297.511 266.475 301.715 267.323 306.111C267.336 306.173 267.348 306.235 267.36 306.297C268.555 311.091 267.986 318.075 274.471 322.854C274.538 322.898 274.606 322.942 274.674 322.987C279.468 326.181 284.652 329.677 289.697 333.247C289.723 333.266 289.749 333.285 289.775 333.303C290.981 334.174 292.163 335.098 293.332 336.055C295.637 337.884 297.453 339.785 300.411 341.796Z" fill="black"/>
<path d="M224.392 233.297C224.154 232.315 223.535 231.468 222.673 230.942C221.81 230.416 220.774 230.254 219.792 230.492C218.81 230.73 217.962 231.348 217.436 232.211C216.91 233.074 216.748 234.11 216.987 235.092C216.987 235.092 216.987 235.092 216.987 235.092C217.319 236.28 217.63 236.603 217.877 237.008C218.129 237.376 218.368 237.672 218.589 237.932C219.039 238.457 219.467 238.89 219.896 239.302C222.831 242.013 225.773 244.105 229.587 245.781C229.59 245.782 229.592 245.783 229.595 245.785C240.942 249.644 250.929 248.103 261.304 245.325L261.604 245.213C261.627 245.203 261.651 245.193 261.674 245.183C265.692 243.509 269.482 241.277 272.908 238.665L273.08 238.529C273.085 238.525 273.09 238.52 273.095 238.516C273.905 237.827 273.981 236.892 274.083 235.786C274.181 234.539 274.362 233.035 274.921 231.887C273.683 231.645 272.138 231.189 270.625 231.147C269.3 231.097 268.058 231.352 267.508 231.802C267.505 231.805 267.501 231.808 267.498 231.81L267.669 231.675C264.738 233.839 261.588 235.623 258.262 237.01C258.243 237.018 258.223 237.027 258.204 237.035L258.503 236.923C250.289 239.3 239.82 241.464 232.532 238.753C232.53 238.753 232.529 238.752 232.527 238.751C230.033 237.688 227.256 235.765 225.165 233.798C224.869 233.515 224.591 233.227 224.386 232.987C224.288 232.872 224.203 232.76 224.176 232.719C224.162 232.7 224.164 232.698 224.194 232.754C224.223 232.818 224.295 232.922 224.392 233.297Z" fill="black"/>
<defs>
<filter id="filter0_f_14_143" x="0" y="0" width="488" height="488" filterUnits="userSpaceOnUse" color-interpolation-filters="sRGB">
<feFlood flood-opacity="0" result="BackgroundImageFix"/>
<feBlend mode="normal" in="SourceGraphic" in2="BackgroundImageFix" result="shape"/>
<feGaussianBlur stdDeviation="22" result="effect1_foregroundBlur_14_143"/>
</filter>
<filter id="filter1_f_14_143" x="96.9873" y="176.074" width="134.044" height="136.926" filterUnits="userSpaceOnUse" color-interpolation-filters="sRGB">
<feFlood flood-opacity="0" result="BackgroundImageFix"/>
<feBlend mode="normal" in="SourceGraphic" in2="BackgroundImageFix" result="shape"/>
<feGaussianBlur stdDeviation="18.5" result="effect1_foregroundBlur_14_143"/>
</filter>
<filter id="filter2_f_14_143" x="92.9873" y="172.074" width="142.044" height="139.155" filterUnits="userSpaceOnUse" color-interpolation-filters="sRGB">
<feFlood flood-opacity="0" result="BackgroundImageFix"/>
<feBlend mode="normal" in="SourceGraphic" in2="BackgroundImageFix" result="shape"/>
<feGaussianBlur stdDeviation="20.5" result="effect1_foregroundBlur_14_143"/>
</filter>
<filter id="filter3_f_14_143" x="244" y="165" width="167.365" height="169.265" filterUnits="userSpaceOnUse" color-interpolation-filters="sRGB">
<feFlood flood-opacity="0" result="BackgroundImageFix"/>
<feBlend mode="normal" in="SourceGraphic" in2="BackgroundImageFix" result="shape"/>
<feGaussianBlur stdDeviation="29" result="effect1_foregroundBlur_14_143"/>
</filter>
</defs>
</svg>
