<svg width="433" height="479" viewBox="0 0 433 479" fill="none" xmlns="http://www.w3.org/2000/svg">
<g filter="url(#filter0_f_4_49)">
<ellipse cx="216.5" cy="217" rx="191.5" ry="192" fill="#FDDA51" fill-opacity="0.79"/>
</g>
<g filter="url(#filter1_f_4_49)">
<path d="M136.896 164.279C141.466 162.411 146.301 162.649 150.587 164.602C150.729 164.668 150.87 164.735 151.008 164.804C158.351 168.438 161.751 175.796 162.821 182.21C162.833 182.286 162.846 182.364 162.858 182.441C163.217 185.073 163.429 188.251 161.53 191.924C161.482 192.012 161.432 192.101 161.381 192.188C159.943 194.491 158.33 196.148 156.771 197.429C156.517 197.917 156.239 198.424 155.93 198.949C155.3 199.817 154.465 200.728 153.403 201.516C152.991 201.801 152.585 202.061 152.184 202.296C151.935 203.3 151.449 204.154 150.666 204.697C150.487 204.822 150.301 204.946 150.112 205.065C146.148 207.932 138.362 208.255 133.698 204.876C133.648 204.843 133.597 204.81 133.548 204.777C129.065 201.602 127.248 197.611 126.548 193.816C125.53 191.769 124.815 189.608 124.34 187.456C124.323 187.372 124.306 187.286 124.29 187.202C123.146 181.055 125.586 175.685 128.082 171.91C128.158 171.796 128.234 171.682 128.311 171.569C129.188 170.279 130.201 169.051 131.401 167.912C132.839 166.548 134.568 165.308 136.577 164.417C136.682 164.37 136.789 164.324 136.896 164.279Z" fill="#FF7070"/>
</g>
<path d="M112.126 263.742C111.066 263.709 110.036 264.098 109.262 264.824C108.489 265.55 108.035 266.554 108.002 267.614C107.969 268.674 108.358 269.705 109.084 270.478C109.81 271.251 110.814 271.705 111.874 271.738C112.758 271.754 113.257 271.553 113.612 271.413C113.872 271.302 114.023 271.217 114.17 271.13C114.479 270.94 114.559 270.871 114.696 270.766C114.94 270.572 115.059 270.457 115.184 270.339C115.418 270.113 115.589 269.928 115.743 269.758C116.054 269.412 116.312 269.097 116.558 268.79C117.053 268.168 117.494 267.571 117.925 266.966C118.783 265.759 119.579 264.541 120.339 263.303C121.58 261.275 122.724 259.193 123.756 257.018C123.819 256.885 123.881 256.752 123.943 256.618C128.46 244.491 122.752 234.696 125.342 227.139C125.397 226.976 125.453 226.816 125.512 226.658C125.507 226.624 125.449 226.641 125.486 226.565C125.519 226.495 125.671 226.362 125.931 226.241C126.455 225.989 127.32 225.81 128.237 225.737C130.101 225.59 132.203 225.774 134.293 226.147C134.453 226.176 134.614 226.207 134.773 226.239C136.058 226.313 136.357 229.822 136.565 233.203C136.582 233.376 136.6 233.554 136.618 233.735C136.632 233.857 136.651 233.992 136.683 234.148C136.719 234.307 136.747 234.458 136.881 234.794C136.944 234.948 137.027 235.119 137.142 235.305C137.202 235.4 137.259 235.486 137.347 235.6C137.452 235.734 137.576 235.873 137.721 236.007C138.288 236.568 139.312 236.935 140.057 236.892C140.866 236.853 141.183 236.674 141.473 236.548C141.614 236.48 141.731 236.412 141.834 236.347C141.921 236.292 141.982 236.25 142.045 236.204C142.169 236.113 142.269 236.03 142.356 235.952C142.43 235.886 142.487 235.831 142.544 235.775C142.958 235.351 143.117 235.116 143.293 234.885C143.632 234.424 143.889 234.04 144.147 233.659C144.657 232.904 145.136 232.194 145.626 231.523C146.59 230.192 147.648 228.954 148.581 228.283C148.598 228.27 148.615 228.259 148.633 228.247C148.814 228.132 149.117 228.044 149.547 228.072C149.96 228.091 150.491 228.273 150.725 228.442C150.731 228.447 150.735 228.451 150.739 228.456C150.789 228.479 150.869 229.149 150.844 230.118C150.843 230.133 150.843 230.148 150.843 230.163C150.889 232.014 150.493 234.916 149.09 238.14C149.056 238.226 149.021 238.316 148.988 238.404C148.918 238.577 148.837 238.805 148.801 239.153C148.745 239.561 148.835 240.446 149.429 241.096C149.709 241.413 150.038 241.619 150.311 241.739C150.526 241.833 150.699 241.878 150.854 241.909C151.004 241.938 151.143 241.951 151.236 241.955C151.316 241.958 151.387 241.958 151.451 241.956C151.944 241.924 152.015 241.873 152.155 241.841C152.382 241.774 152.496 241.726 152.608 241.682C152.826 241.594 152.985 241.521 153.144 241.451C153.456 241.311 153.738 241.186 154.012 241.073C154.553 240.849 155.082 240.672 155.452 240.606C155.452 240.606 155.452 240.606 155.452 240.606C156.313 240.444 157.225 240.734 157.839 241.355C157.846 241.362 157.852 241.369 157.859 241.375C158.435 241.938 158.656 242.842 158.507 243.22C158.501 243.24 158.494 243.26 158.487 243.28C156.802 248.062 156.157 252.483 155.33 256.892C155.282 257.168 155.236 257.43 155.188 257.705C154.671 262.5 144.151 263.583 138.862 271.533C138.836 271.573 138.811 271.612 138.786 271.651C138.256 272.478 137.726 273.305 137.197 274.132C136.616 275.037 136.036 275.943 135.456 276.849C135.443 276.868 135.431 276.887 135.419 276.907C134.991 277.6 134.799 278.346 134.874 278.949C134.897 279.097 134.94 279.23 135.035 279.346C135.121 279.463 135.315 279.565 135.431 279.757C135.677 280.21 134.974 280.385 134.381 280.278C134.244 280.842 134.138 281.707 135.234 282.238C136.382 282.659 137.325 282.203 137.916 281.957C139.135 281.371 139.799 280.696 140.265 280.013C140.278 279.993 140.29 279.974 140.303 279.955C140.883 279.049 141.463 278.144 142.044 277.238C142.574 276.411 143.103 275.584 143.633 274.757C143.658 274.718 143.684 274.679 143.709 274.64C145.271 272.149 148.208 270.356 151.539 268.496C154.604 266.651 159.637 264.384 160.662 258.628C160.707 258.349 160.75 258.082 160.795 257.802C161.548 253.359 161.75 248.72 163.079 244.987C163.125 244.863 163.167 244.737 163.204 244.61C163.937 241.977 162.928 239.583 161.365 237.954C161.347 237.935 161.328 237.917 161.309 237.898C159.595 236.152 156.984 235.33 154.58 235.786C154.58 235.786 154.579 235.786 154.579 235.786C153.641 235.962 152.912 236.229 152.216 236.486C151.873 236.614 151.539 236.747 151.24 236.861C151.092 236.918 150.947 236.972 150.851 237.002C150.81 237.015 150.763 237.025 150.832 237.002C150.89 236.992 150.884 236.96 151.291 236.932C151.397 236.931 151.526 236.921 151.826 236.975C151.97 237.004 152.134 237.047 152.342 237.137C152.604 237.252 152.923 237.452 153.197 237.762C153.778 238.397 153.863 239.261 153.81 239.646C153.776 239.977 153.7 240.184 153.639 240.334C153.664 240.283 153.692 240.227 153.721 240.17C154.994 237.666 157.973 234.824 158.085 230.194C158.086 230.157 158.086 230.12 158.085 230.083C158.048 227.86 157.207 225.003 154.541 223.098C154.41 223.007 154.277 222.921 154.14 222.839C151.401 221.322 148.259 220.985 145.205 222.781C145.066 222.867 144.934 222.957 144.802 223.052C142.815 224.528 141.578 226.147 140.407 227.721C139.833 228.508 139.298 229.301 138.799 230.039C138.552 230.403 138.304 230.769 138.104 231.039C138.02 231.157 137.889 231.302 137.989 231.195C138.021 231.165 138.071 231.109 138.234 230.989C138.309 230.935 138.426 230.848 138.662 230.733C138.901 230.631 139.17 230.47 139.917 230.434C140.607 230.392 141.579 230.741 142.103 231.262C142.238 231.386 142.352 231.513 142.446 231.635C142.526 231.738 142.578 231.815 142.63 231.899C142.732 232.063 142.802 232.21 142.855 232.337C142.964 232.611 142.98 232.715 143.005 232.822C143.026 232.924 143.036 233 143.042 233.058C143.027 232.908 143.01 232.741 142.993 232.571C142.813 230.745 142.419 228.694 141.5 226.615C140.666 224.639 138.706 221.909 135.642 221.461C135.479 221.434 135.313 221.405 135.148 221.376C132.969 220.992 130.77 220.467 128.286 220.264C127.037 220.178 125.709 220.143 124.153 220.53C122.657 220.867 120.573 222.06 119.681 224.086C119.559 224.339 119.445 224.596 119.338 224.855C115.482 236.167 119.814 246.767 116.688 253.249C116.634 253.364 116.58 253.479 116.526 253.594C115.637 255.47 114.621 257.322 113.518 259.121C112.846 260.218 112.137 261.301 111.406 262.329C111.041 262.842 110.67 263.342 110.305 263.799C110.128 264.022 109.945 264.241 109.797 264.406C109.728 264.483 109.656 264.557 109.646 264.566C109.646 264.567 109.646 264.562 109.746 264.481C109.81 264.434 109.841 264.401 110.062 264.266C110.17 264.202 110.288 264.134 110.512 264.038C110.819 263.918 111.276 263.728 112.126 263.742Z" fill="black"/>
<path d="M307.392 259.843C307.24 260.787 307.47 261.752 308.031 262.527C308.591 263.301 309.436 263.822 310.38 263.973C311.324 264.124 312.29 263.894 313.064 263.334C313.839 262.773 314.359 261.928 314.51 260.984C314.817 256.144 313.149 254.13 312.033 251.538C310.163 247.879 308.081 244.603 306.047 241.333C305.926 241.14 305.805 240.948 305.684 240.756C301.545 234.264 296.736 227.618 290.226 222.291C289.848 221.983 289.464 221.682 289.073 221.388C286.579 219.594 283.886 219.988 281.936 220.688C281.366 220.901 280.818 221.162 280.259 221.513C278.178 222.796 277.331 225.114 277.098 226.736C276.838 228.43 276.935 229.905 276.991 231.23C277.014 231.719 277.038 232.193 277.039 232.563C277.045 232.413 277.036 231.924 277.513 231.322C278.009 230.722 278.608 230.6 278.768 230.579C279.133 230.55 278.878 230.577 278.67 230.513C278.191 230.401 277.508 230.161 276.823 229.91C275.414 229.407 273.972 228.783 272.013 228.407C271.759 228.362 271.488 228.323 271.205 228.297C267.443 228.247 266.015 230.392 264.715 231.77C264.56 231.958 264.41 232.145 264.264 232.333C263.227 233.759 262.144 235.296 262.271 237.959C262.32 238.497 262.468 239.085 262.752 239.652C263.74 241.478 265.124 241.927 265.479 242.283C265.516 242.312 265.524 242.331 265.434 242.229C265.372 242.125 265.04 241.868 264.966 240.963C264.953 240.743 265.037 240.569 265.024 240.601C265.015 240.622 264.917 240.767 264.76 240.939C264.445 241.293 263.939 241.755 263.407 242.27C262.344 243.298 261.076 244.652 260.337 246.492C260.247 246.713 260.168 246.933 260.096 247.163C259.891 247.835 259.639 248.572 259.474 249.553C259.336 250.469 259.179 252.076 260.324 253.582C260.647 253.999 261.033 254.334 261.408 254.582C262.946 255.504 263.905 255.545 264.896 255.741C265.848 255.894 266.807 255.974 267.466 256.072C267.579 256.086 267.73 256.13 267.568 256.082C267.378 256.013 267.173 255.939 266.851 255.684C266.539 255.438 266.218 255.005 266.079 254.558C265.828 253.666 266.036 253.306 266.069 253.14C266.188 252.824 266.18 252.904 266.148 252.94C266.073 253.055 265.892 253.292 265.709 253.526C265.334 254.006 264.899 254.56 264.486 255.173C263.682 256.395 262.78 257.946 262.745 260.079C262.745 260.082 262.745 260.084 262.745 260.087C262.794 262.483 264.404 263.724 265.41 264.371C266.52 265.048 267.571 265.415 268.753 265.646C268.754 265.647 268.755 265.647 268.756 265.647C274.408 266.304 278.248 264.09 281.111 263.405L278.483 263.592C278.526 263.606 278.569 263.62 278.611 263.634C284.024 265.389 288.452 268.834 292.703 273.029C293.043 273.362 293.387 273.702 293.73 274.044L293.882 274.188C293.883 274.189 293.884 274.19 293.885 274.191C294.725 274.952 295.985 275.521 297.76 275.609C299.421 275.75 302.216 274.933 302.613 272.855C301.047 271.477 301.695 269.989 301.642 269.084C301.668 268.119 301.389 267.336 300.723 266.726C300.722 266.725 300.721 266.724 300.72 266.724L300.872 266.868C300.489 266.487 300.092 266.103 299.691 265.726C294.673 260.915 287.934 256.942 280.718 255.511C280.662 255.499 280.605 255.487 280.548 255.476L278.928 255.171L277.92 255.663C274.028 257.596 271.667 260.893 269.712 260.495C269.712 260.495 269.711 260.494 269.711 260.494C269.181 260.398 268.562 260.165 268.185 259.926C267.998 259.811 267.877 259.69 267.875 259.682C267.867 259.661 267.992 259.865 267.986 260.1C267.986 260.1 267.986 260.099 267.986 260.099C267.969 259.711 268.259 258.933 268.833 258.101C269.115 257.68 269.451 257.248 269.842 256.748C270.04 256.491 270.247 256.236 270.519 255.83C270.654 255.611 270.815 255.418 271.037 254.808C271.118 254.498 271.36 253.972 271.062 252.934C270.898 252.411 270.533 251.916 270.159 251.62C269.771 251.314 269.507 251.21 269.233 251.113C268.731 250.955 268.517 250.937 268.273 250.894C267.227 250.743 266.468 250.688 265.718 250.566C265.354 250.508 265.012 250.44 264.736 250.364C264.467 250.296 264.243 250.183 264.303 250.214C264.328 250.23 264.397 250.283 264.464 250.369C264.583 250.515 264.626 250.706 264.621 250.705C264.62 250.713 264.616 250.578 264.648 250.384C264.71 249.986 264.89 249.388 265.098 248.727C265.127 248.634 265.159 248.544 265.196 248.452C265.495 247.697 266.124 246.924 267.054 246.033C267.518 245.579 268.048 245.115 268.664 244.436C269.213 243.781 270.237 242.7 270.201 240.743C270.115 239.591 269.639 239.117 269.42 238.828C269.17 238.539 268.995 238.395 268.844 238.266C268.34 237.855 268.099 237.643 267.958 237.444C267.819 237.257 267.863 237.148 267.978 237.291C268.041 237.368 268.064 237.426 268.064 237.429C268.007 237.409 268.204 236.403 268.735 235.724C268.833 235.59 268.933 235.46 269.036 235.335C269.451 234.829 269.899 234.389 270.268 234.13C270.646 233.854 270.851 233.874 270.699 233.876C270.793 233.885 270.91 233.9 271.036 233.923C272.074 234.109 273.463 234.636 274.913 235.162C275.659 235.426 276.407 235.708 277.409 235.947C277.942 236.049 278.44 236.221 279.568 236.094C280.095 236.022 281.082 235.756 281.819 234.858C282.539 233.958 282.604 233.084 282.609 232.543C282.605 231.95 282.575 231.451 282.554 230.972C282.324 228.475 282.941 226.33 283.325 226.423C283.494 226.321 283.724 226.211 283.957 226.125C284.376 225.968 284.82 225.887 285.13 225.892C285.45 225.896 285.573 225.958 285.634 225.998C285.962 226.24 286.285 226.49 286.603 226.748C292.126 231.254 295.533 238.05 299.575 244.577C299.694 244.77 299.814 244.963 299.934 245.155C301.954 248.396 303.979 251.611 305.599 254.791C306.128 255.838 306.613 256.898 306.954 257.864C307.309 258.795 307.437 259.837 307.392 259.843Z" fill="black"/>
<path d="M173.546 189.845C173.334 189.014 172.8 188.301 172.062 187.863C171.324 187.426 170.443 187.299 169.612 187.512C168.78 187.724 168.068 188.258 167.63 188.996C167.193 189.733 167.066 190.615 167.278 191.446C168.102 194.202 169.257 195.678 170.39 197.371C173.749 202.051 177.492 206.014 181.328 209.93C181.518 210.122 181.71 210.315 181.905 210.509C188.421 216.765 196.971 217.75 204.488 218.682C204.642 218.7 204.795 218.717 204.945 218.734C216.345 219.702 227.263 218.829 238.422 215.737C238.543 215.698 238.663 215.658 238.783 215.618C246.557 213.264 253.585 208.148 259.032 202.437L259.194 202.253C259.251 202.182 259.307 202.112 259.363 202.041C260.11 201.099 260.839 200.101 261.505 199.068C261.895 198.465 262.26 197.858 262.604 197.284C262.605 197.281 262.607 197.279 262.608 197.276C262.907 196.761 263.107 196.104 263.058 195.06C263.041 194.793 263.011 194.493 262.91 194.123C262.814 193.771 262.599 193.246 262.168 192.947C261.737 192.648 261.337 192.703 261.087 192.816C260.828 192.934 260.652 193.119 260.498 193.321C260.642 193.528 260.76 193.739 260.785 193.933C260.817 194.122 260.697 194.311 260.445 194.25C260.195 194.187 260.027 193.975 259.909 193.912C259.787 193.836 259.678 193.823 259.564 193.834C259.109 193.897 258.671 194.243 258.372 194.74C258.37 194.743 258.369 194.745 258.367 194.748C258.023 195.323 257.697 195.865 257.359 196.386C256.786 197.275 256.164 198.127 255.491 198.978C255.441 199.041 255.391 199.104 255.339 199.169L255.501 198.985C250.241 204.44 244.352 208.737 237.219 210.934C237.107 210.972 236.995 211.009 236.882 211.046C227.055 213.804 215.799 214.755 205.497 213.828C205.354 213.812 205.208 213.795 205.062 213.778C197.871 212.956 190.82 210.395 186.485 205.948C186.299 205.759 186.114 205.571 185.93 205.385C182.236 201.623 178.594 197.721 175.677 193.644C174.72 192.302 173.75 190.664 173.546 189.845Z" fill="black"/>
<path d="M150 190.248C148.951 190.092 147.883 190.359 147.03 190.99C146.178 191.622 145.612 192.567 145.456 193.616C145.3 194.665 145.567 195.733 146.198 196.586C146.83 197.438 147.774 198.005 148.824 198.161C149.359 198.241 149.941 198.321 150.51 198.386C155.581 198.984 160.972 198.586 165.988 196.768C166.196 196.693 166.404 196.615 166.613 196.535L167.974 195.66C170.312 193.371 172.267 190.811 173.964 188.234C174.034 188.127 174.105 188.02 174.174 187.913L174.312 187.685C175.465 185.717 175.887 183.461 176.147 181.82C176.236 181.252 176.312 180.694 176.381 180.144C176.513 179.091 176.222 178.029 175.571 177.191C174.92 176.354 173.963 175.809 172.91 175.677C171.858 175.544 170.796 175.836 169.958 176.487C169.12 177.138 168.575 178.095 168.443 179.147C168.382 179.638 168.315 180.121 168.243 180.582C168.133 181.285 168.006 181.953 167.862 182.479C167.707 183.028 167.608 183.279 167.333 183.774L167.47 183.547C167.409 183.642 167.346 183.737 167.284 183.831C165.791 186.101 164.188 188.171 162.374 189.946L163.734 189.071C163.581 189.13 163.427 189.187 163.274 189.243C159.587 190.577 155.514 190.919 151.426 190.439C150.962 190.385 150.487 190.32 150 190.248Z" fill="black"/>
<path d="M265.412 184.645C265.412 183.585 264.991 182.567 264.241 181.817C263.49 181.067 262.473 180.645 261.412 180.645C260.351 180.645 259.334 181.067 258.584 181.817C257.834 182.567 257.412 183.585 257.412 184.645C257.414 185.432 257.501 186.114 257.62 186.751C258.201 189.638 259.319 191.808 260.526 193.888C260.591 193.997 260.656 194.106 260.723 194.215L261.282 194.936C263.899 197.603 266.993 200.25 270.911 201.944C271.018 201.99 271.126 202.035 271.234 202.08L271.886 202.286C275.298 203.029 278.41 202.512 281.139 201.786C281.65 201.647 282.151 201.497 282.645 201.337C283.654 201.01 284.492 200.295 284.975 199.35C285.457 198.405 285.544 197.308 285.217 196.298C284.89 195.289 284.176 194.451 283.231 193.969C282.286 193.487 281.188 193.399 280.179 193.726C279.797 193.85 279.418 193.964 279.041 194.066C277.019 194.622 275.077 194.814 273.632 194.479L274.285 194.684C274.216 194.656 274.147 194.627 274.078 194.597C271.585 193.53 269.233 191.628 267.001 189.341L267.56 190.062C267.509 189.977 267.458 189.893 267.409 189.81C266.479 188.25 265.72 186.554 265.483 185.278C265.432 185.013 265.411 184.778 265.412 184.645Z" fill="black"/>
<path d="M178.344 135.279C178.608 135.997 179.147 136.58 179.842 136.901C180.536 137.222 181.33 137.254 182.048 136.99C182.766 136.726 183.349 136.187 183.67 135.492C183.991 134.798 184.023 134.004 183.759 133.286C183.759 133.286 183.759 133.286 183.759 133.286C182.335 129.949 181.405 127.554 181.8 125.416C181.807 125.375 181.815 125.333 181.824 125.29C182.065 124.039 182.414 122.271 183.378 120.618C183.374 120.623 183.371 120.625 183.371 120.626C183.37 120.627 183.375 120.623 183.386 120.615C183.461 120.534 183.961 120.409 184.185 120.43C184.186 120.43 184.187 120.43 184.188 120.43C184.251 120.398 184.679 120.605 184.755 120.747C184.759 120.751 184.761 120.755 184.764 120.759C186.151 122.648 185.202 126.195 184.331 130.022C184.332 130.012 184.332 130.004 184.333 129.997C184.381 129.878 183.903 130.205 183.647 130.297C183.647 130.297 183.647 130.297 183.647 130.297C183.64 130.305 183.906 130.301 184.352 130.57C184.562 130.702 184.725 130.911 184.767 131.044C184.815 131.181 184.776 131.234 184.75 131.207C184.747 131.204 184.744 131.201 184.74 131.196C183.978 129.693 183.433 128.14 183.293 126.542C183.222 125.743 183.253 124.942 183.38 124.082C183.443 123.644 183.53 123.215 183.621 122.655C183.663 122.372 183.715 122.067 183.708 121.612C183.705 121.189 183.579 120.391 183.004 119.8C182.572 119.304 181.756 119.078 181.272 119.142C180.767 119.188 180.451 119.344 180.196 119.483C178.54 120.596 177.941 121.65 177.407 122.905C177.288 123.222 177.201 123.531 177.147 123.839C176.763 126.418 176.71 128.639 177.34 131.38C177.449 131.78 177.586 132.191 177.804 132.638C178.112 133.254 178.59 134.022 179.555 134.575C180.524 135.148 181.809 135.129 182.637 134.813C183.264 134.597 183.788 134.213 184.158 133.827C186.117 131.347 185.843 129.564 186.027 127.74C186.086 125.938 185.956 124.21 185.742 122.498C185.667 121.927 185.518 121.213 184.942 120.477C184.317 119.646 183.136 119.241 182.346 119.289C181.524 119.314 180.908 119.55 180.326 119.874C179.788 120.179 179.366 120.583 179.044 120.98C176.586 124.948 177.029 128.09 177.151 131.395C177.22 132.032 177.405 132.805 177.959 133.56C179.308 135.404 181.729 135.355 183.028 134.725C183.579 134.482 184.028 134.175 184.415 133.849C185.779 132.667 186.492 131.265 186.947 129.834C187.061 129.464 187.15 129.098 187.222 128.737C187.576 126.843 187.575 125.075 187.185 123.159C187.095 122.747 186.98 122.326 186.815 121.886C186.395 120.868 185.684 119.193 183.425 118.66C182.621 118.506 181.909 118.624 181.345 118.801C180.077 119.231 179.467 120.108 178.92 120.915C178.752 121.183 178.585 121.444 178.399 121.69C176.133 124.576 175.914 128.51 176.433 131.559C176.507 132.068 176.668 132.553 176.884 132.986C177.452 134.1 178.29 134.873 179.276 135.428C179.684 135.652 180.129 135.819 180.59 135.917C181.683 136.152 182.856 135.972 183.819 135.455C184.128 135.291 184.42 135.092 184.683 134.868C185.918 133.797 186.402 132.438 186.676 131.268C186.73 131.028 186.774 130.793 186.811 130.559C187.059 128.748 186.941 127.056 186.265 125.131C186.153 124.839 186.019 124.546 185.855 124.256C185.262 123.192 183.978 121.839 182.001 122.102C181.597 122.165 181.2 122.315 180.87 122.515C179.129 123.744 179.148 125.173 178.905 126.287C178.873 126.483 178.844 126.676 178.814 126.868C178.55 128.85 178.468 130.71 179.082 132.844C179.162 133.096 179.26 133.349 179.382 133.603C179.9 134.855 181.462 136.168 183.107 136.112C183.361 136.114 183.61 136.093 183.85 136.053C185.214 135.807 186.231 135.089 187.035 134.212C187.125 134.112 187.211 134.009 187.295 133.902C188.026 132.98 188.478 131.761 188.476 130.547C188.477 130.414 188.474 130.281 188.467 130.15C188.298 127.717 187.141 125.904 186.183 124.271C186.081 124.102 185.967 123.944 185.845 123.799C184.885 122.737 183.578 122.008 181.788 122.511C181.695 122.543 181.603 122.578 181.513 122.616C179.862 123.29 179.081 124.966 178.831 126.2C178.554 127.493 178.574 128.692 178.667 129.854C178.678 129.98 178.692 130.105 178.709 130.229C178.898 131.554 179.354 132.783 180.164 133.91C180.249 134.026 180.338 134.139 180.431 134.249C181.291 135.257 182.567 136.085 184.15 136.112C184.228 136.112 184.306 136.111 184.383 136.107C185.979 136.004 187.154 135.202 188.05 134.242C188.059 134.232 188.069 134.222 188.078 134.212C188.945 133.262 189.514 131.926 189.519 130.582C189.519 130.57 189.519 130.558 189.519 130.547C189.494 128.058 188.333 126.111 187.149 124.466C187.149 124.466 187.149 124.466 187.148 124.465C186.419 123.51 185.398 123.4 184.748 123.42C184.056 123.455 183.473 123.623 182.869 123.956C182.799 123.996 182.728 124.038 182.658 124.084C180.492 125.898 180.702 127.702 180.392 129.24C180.214 130.813 180.213 132.327 180.417 133.789C180.42 133.811 180.423 133.834 180.427 133.856C180.669 135.945 183.054 137.811 185.498 137.114C185.554 137.098 185.61 137.08 185.665 137.061C188.088 135.939 188.501 134.409 188.878 132.869C188.886 132.823 188.893 132.776 188.9 132.729C189.246 129.952 188.462 127.366 186.388 125.245C186.367 125.226 186.346 125.206 186.325 125.187C185.857 124.681 184.563 124.17 183.61 124.471C182.678 124.728 182.265 125.152 181.916 125.483C181.259 126.167 180.93 126.763 180.61 127.36C180.003 128.562 179.587 129.643 179.295 131.057C179.254 131.277 179.231 131.498 179.226 131.716C179.22 133.464 180.059 134.662 180.987 135.539C181.127 135.667 181.271 135.784 181.421 135.893C182.497 136.599 183.73 137.272 185.715 136.562C185.846 136.505 185.972 136.44 186.092 136.37C187.932 135.069 187.927 133.778 188.192 132.813C188.204 132.75 188.215 132.687 188.226 132.624C188.412 131.564 188.455 129.958 187.541 128.582C187.478 128.486 187.413 128.393 187.346 128.305C186.355 127.127 185.165 126.155 182.973 126.377C182.938 126.383 182.903 126.389 182.868 126.396C180.089 127.205 179.707 129.157 179.24 130.411C179.238 130.417 179.236 130.423 179.235 130.429C178.828 132.293 178.207 133.714 179.337 136.404C179.359 136.445 179.381 136.484 179.404 136.524C179.855 137.368 180.959 138.216 182.091 138.348C183.219 138.502 184.155 138.182 184.937 137.721C184.989 137.69 185.041 137.657 185.093 137.623C187.317 135.95 187.244 133.969 187.386 132.624C187.446 131.201 187.316 129.931 187.17 128.698C187.166 128.665 187.161 128.632 187.157 128.6C186.893 126.587 185.495 125.109 184.335 124.284C184.328 124.279 184.321 124.274 184.314 124.269C183.814 123.912 183.278 123.6 182.577 123.367C181.894 123.184 180.9 122.823 179.45 123.614C179.303 123.703 179.163 123.809 179.036 123.929C178.036 124.958 178.214 125.869 178.378 126.548C178.617 127.249 178.797 127.818 179.574 128.618C179.646 128.683 179.729 128.747 179.819 128.804C180.531 129.244 181.211 129.106 181.617 128.972C182.045 128.823 182.352 128.619 182.622 128.402C183.154 127.965 183.523 127.453 183.787 126.903C183.82 126.835 183.85 126.768 183.879 126.698C184.594 124.792 184.32 123.133 183.978 121.443C183.97 121.409 183.962 121.375 183.954 121.341C183.816 120.776 183.626 120.212 183.306 119.641C182.962 119.104 182.594 118.377 181.392 118.089C181.293 118.072 181.19 118.061 181.086 118.059C179.827 117.945 178.234 118.836 177.672 119.978C177.049 121.085 176.88 122.172 176.773 123.208C176.593 125.277 176.791 127.245 177.064 129.163C177.1 129.403 177.162 129.645 177.252 129.882C177.878 131.441 179.374 132.35 181.107 132.139C181.329 132.104 181.546 132.041 181.747 131.959C183.44 131.153 183.853 129.839 184.208 128.752C184.239 128.642 184.268 128.532 184.293 128.422C184.635 126.896 184.618 125.415 184.222 123.892C184.185 123.754 184.143 123.617 184.097 123.479C183.706 122.353 182.42 121.387 181.022 121.235C180.883 121.22 180.746 121.214 180.612 121.213C179.329 121.249 178.419 122.038 177.866 122.975C177.837 123.027 177.809 123.08 177.783 123.132C177.551 123.599 177.415 124.093 177.383 124.62C177.393 125.132 177.297 125.773 178.076 126.388C178.199 126.466 178.333 126.519 178.46 126.548C179.296 126.676 179.709 126.348 180.129 126.111C180.535 125.847 180.882 125.541 181.196 125.193C181.217 125.169 181.239 125.144 181.26 125.12C182.531 123.611 182.753 121.621 182.428 119.849C182.376 119.58 182.308 119.313 182.221 119.048C182.173 118.891 182.05 118.696 181.874 118.578C181.493 118.339 181.234 118.41 181.057 118.43C180.875 118.464 180.737 118.515 180.607 118.569C180.351 118.678 180.139 118.803 179.933 118.937C179.526 119.208 179.163 119.508 178.822 119.883L178.748 119.982C178.718 120.031 178.689 120.081 178.66 120.132C177.284 122.745 177.357 125.563 177.595 128.222L177.61 128.311C177.633 128.407 177.659 128.505 177.687 128.602C177.809 129.014 177.997 129.47 178.378 129.853C178.757 130.242 179.316 130.431 179.779 130.431C180.717 130.425 181.434 130.027 182.094 129.585C181.305 129.606 180.506 129.619 179.92 129.425C179.337 129.222 179.192 128.885 178.987 128.225C178.965 128.15 178.945 128.073 178.926 127.993L178.941 128.081C178.697 125.577 178.72 122.872 179.835 120.804C179.857 120.765 179.88 120.726 179.904 120.688L179.83 120.787C180.065 120.526 180.369 120.272 180.678 120.068C180.832 119.966 180.991 119.876 181.132 119.816C181.2 119.787 181.267 119.767 181.296 119.762C181.326 119.747 181.301 119.805 181.102 119.69C181.013 119.631 180.95 119.526 180.935 119.471C181.002 119.675 181.057 119.889 181.099 120.106C181.375 121.558 181.139 123.189 180.234 124.237C180.219 124.255 180.203 124.272 180.188 124.289C179.954 124.55 179.679 124.79 179.397 124.972C179.135 125.158 178.756 125.256 178.767 125.23C178.772 125.231 178.788 125.236 178.804 125.246C178.864 125.348 178.692 125.003 178.735 124.695C178.753 124.374 178.845 124.033 178.992 123.74C179.009 123.707 179.026 123.674 179.045 123.642C179.374 123.042 180.061 122.556 180.602 122.567C180.658 122.567 180.711 122.579 180.757 122.601C181.284 122.867 181.083 123.809 181.288 124.424C181.315 124.504 181.34 124.586 181.363 124.67C181.619 125.62 181.635 126.774 181.409 127.742C181.392 127.811 181.375 127.88 181.356 127.946C181.191 128.637 180.712 129.236 180.627 129.215C180.62 129.218 180.62 129.218 180.621 129.219C180.588 129.239 180.343 129.225 180.19 129.149C180.026 129.074 179.925 128.982 179.864 128.854C179.844 128.812 179.828 128.765 179.816 128.709C179.484 126.913 179.224 125.096 179.302 123.395C179.343 122.556 179.49 121.729 179.789 121.179C180.104 120.632 180.394 120.454 181.038 120.449C181.017 120.449 180.997 120.447 180.981 120.444C180.781 120.359 181.082 120.515 181.226 120.82C181.395 121.117 181.534 121.501 181.631 121.903C181.637 121.927 181.642 121.952 181.648 121.976C181.928 123.212 181.726 124.705 181.33 125.613C181.316 125.646 181.301 125.678 181.286 125.71C181.165 125.965 181.01 126.202 180.863 126.35C180.793 126.423 180.721 126.469 180.727 126.472C180.719 126.487 180.904 126.395 181.231 126.588C181.269 126.612 181.301 126.638 181.328 126.662C181.479 126.808 181.511 126.825 181.598 126.805C181.679 126.785 181.789 126.74 181.907 126.732C182.023 126.723 182.149 126.745 182.216 126.848C182.28 126.946 182.288 127.152 182.046 127.405C181.987 127.464 181.921 127.517 181.852 127.559C181.524 127.755 181.273 127.757 181.186 127.756C181.092 127.751 181.104 127.743 181.145 127.758C181.235 127.785 181.434 127.884 181.608 128.012C181.61 128.014 181.613 128.015 181.615 128.017C182.303 128.517 182.547 128.932 182.583 129.241C182.584 129.247 182.585 129.253 182.585 129.259C182.721 130.372 182.815 131.467 182.772 132.407C182.752 132.872 182.688 133.298 182.601 133.564C182.513 133.846 182.44 133.846 182.546 133.77C182.551 133.766 182.557 133.763 182.562 133.76C182.637 133.723 182.714 133.603 183.027 133.597C183.34 133.578 183.741 133.86 183.789 133.986C183.792 133.991 183.795 133.997 183.798 134.002C183.832 134.08 183.754 133.942 183.704 133.764C183.65 133.581 183.6 133.342 183.565 133.09C183.496 132.584 183.488 132.005 183.577 131.521C183.578 131.518 183.578 131.515 183.579 131.512C183.645 131.146 183.756 130.819 183.852 130.641C183.952 130.444 183.975 130.531 183.695 130.6C183.689 130.601 183.682 130.602 183.676 130.603C183.481 130.625 183.529 130.585 183.632 130.645C183.735 130.696 183.875 130.815 183.934 130.897C183.943 130.908 183.95 130.918 183.955 130.926C183.995 130.991 184.023 131.047 184.043 131.208C184.061 131.365 184.052 131.614 184 131.916C183.995 131.951 183.988 131.986 183.982 132.022C183.927 132.317 183.85 132.581 183.785 132.728C183.725 132.885 183.665 132.844 183.91 132.683C183.94 132.665 183.974 132.648 184.009 132.632C184.266 132.533 184.29 132.591 184.225 132.568C184.16 132.554 184.035 132.499 183.946 132.433C183.921 132.414 183.898 132.396 183.879 132.378C183.59 132.133 183.482 131.768 183.509 131.823C183.509 131.827 183.508 131.834 183.506 131.842C183.651 131.099 184.014 130.097 184.408 129.34C184.601 128.964 184.847 128.605 184.96 128.498C184.999 128.441 185.028 128.512 184.638 128.629C184.451 128.681 184.133 128.685 183.892 128.604C183.643 128.525 183.508 128.415 183.441 128.355C183.446 128.36 183.452 128.365 183.457 128.37C184.268 129.144 184.886 130.849 184.66 132.115C184.658 132.133 184.655 132.151 184.652 132.169C184.602 132.477 184.534 132.82 184.439 133.082C184.363 133.351 184.177 133.487 184.402 133.383C184.413 133.379 184.423 133.376 184.432 133.374C184.632 133.335 184.587 133.295 184.672 133.254C184.746 133.215 184.827 133.264 184.804 133.167C184.804 133.165 184.804 133.162 184.803 133.16C184.611 131.826 184.303 130.521 184.139 129.267C184.058 128.645 184.018 128.03 184.067 127.51C184.105 126.985 184.303 126.616 184.334 126.62C184.343 126.613 184.355 126.606 184.369 126.598C184.489 126.526 184.728 126.457 184.865 126.456C184.933 126.452 184.974 126.466 184.942 126.457C184.915 126.45 184.789 126.389 184.702 126.267C184.702 126.267 184.702 126.267 184.702 126.267C185.72 127.642 186.494 129.193 186.481 130.53C186.481 130.535 186.481 130.54 186.481 130.546C186.474 131.14 186.248 131.702 185.816 132.183C185.811 132.188 185.807 132.194 185.802 132.199C185.345 132.712 184.678 133.065 184.24 133.072C184.219 133.073 184.198 133.074 184.177 133.074C183.749 133.08 183.164 132.783 182.747 132.283C182.702 132.23 182.658 132.175 182.617 132.118C182.158 131.491 181.829 130.636 181.719 129.822C181.709 129.747 181.701 129.671 181.695 129.597C181.48 127.699 181.902 125.581 182.696 125.414C182.721 125.404 182.747 125.394 182.775 125.384C182.748 125.386 182.891 125.365 183.062 125.433C183.233 125.496 183.414 125.625 183.516 125.749C183.543 125.781 183.565 125.812 183.582 125.841C184.531 127.402 185.367 128.953 185.433 130.311C185.437 130.385 185.439 130.458 185.438 130.53C185.435 131.068 185.254 131.581 184.901 132.03C184.861 132.082 184.818 132.133 184.774 132.183C184.365 132.645 183.785 132.991 183.35 133.056C183.274 133.069 183.202 133.074 183.134 133.074C182.701 133.055 182.425 132.888 182.122 132.292C182.066 132.175 182.014 132.045 181.968 131.906C181.566 130.628 181.505 128.843 181.731 127.32C181.753 127.171 181.784 127.027 181.822 126.888C182.005 126.072 182.647 125.364 182.642 125.461C182.633 125.467 182.595 125.481 182.563 125.482C182.496 125.484 182.514 125.44 182.618 125.491C182.718 125.538 182.868 125.674 182.986 125.885C183.048 125.993 183.102 126.119 183.146 126.259C183.456 127.265 183.339 128.753 183.147 129.981C183.122 130.141 183.092 130.298 183.058 130.448C182.893 131.209 182.58 131.802 182.28 132.042C182.215 132.098 182.15 132.142 182.079 132.18C181.844 132.304 181.593 132.338 181.357 132.288C181.257 132.267 181.159 132.231 181.065 132.179C180.688 131.975 180.341 131.621 180.204 131.332C180.148 131.219 180.117 131.117 180.103 131.021C179.663 128.291 179.911 125.796 181.358 123.927C181.48 123.765 181.64 123.63 181.817 123.513C182.195 123.301 182.719 123.306 182.77 123.304C182.796 123.295 182.718 123.332 182.525 123.297C182.274 123.25 182.15 123.103 182.187 123.143C182.214 123.172 182.314 123.331 182.394 123.55C182.46 123.724 182.52 123.933 182.57 124.162C182.809 125.278 182.817 126.67 182.589 127.817C182.546 128.036 182.493 128.247 182.433 128.442C182.204 129.208 181.766 129.913 181.368 130.24C181.263 130.33 181.168 130.384 181.128 130.401C181.103 130.416 181.08 130.398 181.207 130.41C181.324 130.411 181.639 130.569 181.754 130.748C181.864 130.904 181.832 130.944 181.814 130.846C181.404 128.182 181.087 124.678 182.021 123.401C182.089 123.316 182.141 123.3 182.153 123.314C182.236 123.288 182.365 123.302 182.299 123.333C182.267 123.345 182.176 123.351 182.045 123.304C181.916 123.26 181.767 123.151 181.689 123.054C181.543 122.864 181.583 122.84 181.584 122.954C181.724 124.499 181.773 126.055 181.679 127.527C181.63 128.26 181.543 128.977 181.399 129.598C181.277 130.204 180.983 130.769 180.965 130.744C180.969 130.739 181.049 130.666 181.176 130.623C181.185 130.603 181.518 130.572 181.724 130.703C181.922 130.827 181.862 130.848 181.79 130.688C181.738 130.581 181.677 130.417 181.625 130.223C181.238 128.667 181.221 126.379 181.518 124.607C181.555 124.398 181.575 124.194 181.589 124.003C181.61 123.662 181.625 123.314 181.69 123.007C181.733 122.712 181.936 122.415 181.879 122.467C181.848 122.48 181.78 122.535 181.534 122.56C181.306 122.601 180.762 122.459 180.506 122.157C180.399 122.05 180.314 121.887 180.285 121.79C180.253 121.689 180.255 121.653 180.252 121.662C180.25 121.684 180.229 121.848 180.187 122.033C180.103 122.418 179.971 122.9 179.855 123.402C179.617 124.411 179.443 125.511 179.408 126.609C179.328 128.823 179.771 131.014 180.511 133.009C180.529 133.056 180.548 133.103 180.568 133.149C180.875 133.899 181.544 135.11 182.934 135.65C184.291 136.172 185.528 135.918 186.342 135.5C186.386 135.477 186.43 135.454 186.473 135.43C187.931 134.552 188.97 133.349 189.535 131.289C189.557 131.194 189.577 131.097 189.594 130.999C190.009 127.536 191.791 122.837 188.786 118.032C188.74 117.964 188.692 117.896 188.643 117.832C187.542 116.435 186.09 115.622 184.206 115.57C184.184 115.57 184.163 115.57 184.142 115.57C182.578 115.624 181.271 116.169 180.071 117.358C179.922 117.513 179.778 117.681 179.642 117.865C179.559 117.977 179.478 118.096 179.402 118.219C178.369 119.888 176.725 121.552 176.172 124.133C176.154 124.217 176.138 124.301 176.123 124.386C175.338 128.795 177.298 132.694 178.344 135.279Z" fill="black"/>
<g filter="url(#filter2_f_4_49)">
<path d="M283.339 153.051C288.029 149.986 294.869 150.524 299.015 153.551C299.738 154.04 300.416 154.573 301.043 155.134C301.37 155.451 301.683 155.774 301.987 156.096C302.29 156.316 302.554 156.531 302.774 156.727C303.999 157.831 304.584 158.733 305.062 159.518C305.501 160.277 305.81 160.946 306.047 161.56C309.018 166.777 309.946 172.275 310.694 177.522C310.728 177.816 310.757 178.111 310.784 178.408C311.02 181.393 311.094 184.517 309.965 188.239C309.854 188.588 309.728 188.945 309.586 189.304C308.472 192.159 306.832 194.495 305.135 196.454C304.633 197.892 303.81 199.513 302.269 201.451C302.124 202.046 301.863 202.615 301.454 203.143C300.856 203.885 300.145 204.637 299.245 205.376C297.151 207.136 293.495 208.955 289.148 208.705C284.798 208.492 281.288 206.303 279.312 204.395C279.009 204.109 278.727 203.821 278.465 203.535C275.211 199.674 274.088 196.291 273.656 193.139C272.474 189.986 271.831 186.773 271.282 183.568C271.244 183.297 271.21 183.025 271.18 182.754C270.474 176.417 271.93 170.362 274.112 165.149C274.37 164.532 274.64 163.923 274.919 163.323C275.467 162.146 276.088 160.978 276.813 159.819C278.049 157.866 279.562 155.888 281.789 154.128C282.27 153.752 282.786 153.389 283.339 153.051Z" fill="#FF7070"/>
</g>
<path d="M236.968 138.819C237.715 139.307 238.626 139.478 239.5 139.294C240.374 139.111 241.139 138.588 241.627 137.84C242.115 137.093 242.286 136.182 242.103 135.308C241.919 134.435 241.396 133.669 240.649 133.181C240.649 133.181 240.649 133.181 240.649 133.181C240.994 133.462 240.665 133.201 240.505 132.791C240.311 132.374 240.127 131.818 239.978 131.225C239.276 128.34 239.207 124.888 239.612 121.711C239.616 121.68 239.621 121.653 239.626 121.627C239.677 121.387 239.662 121.344 239.66 121.257C239.659 121.217 239.677 121.172 239.677 121.148C239.66 121.115 239.692 121.155 239.295 121.092C239.314 121.095 239.332 121.099 239.349 121.103C239.943 121.244 240.143 121.411 240.336 121.682C240.532 121.958 240.731 122.552 240.779 123.339C240.887 124.922 240.489 126.974 239.902 128.864C239.953 128.695 240.023 128.57 240.092 128.477C240.301 128.234 240.453 128.126 241.026 128.122C241.306 128.129 241.713 128.254 241.985 128.471C242.262 128.684 242.364 128.899 242.388 128.969C242.392 128.99 242.372 128.956 242.353 128.901C241.929 127.774 242.028 124.53 242.395 123.797C242.392 123.8 242.371 123.868 242.222 124.031C242.104 124.158 241.873 124.358 241.519 124.493C241.168 124.632 240.737 124.655 240.45 124.601C239.864 124.478 239.792 124.313 239.779 124.321C239.793 124.318 240.03 124.646 240.164 125.015C240.195 125.095 240.226 125.182 240.256 125.275C240.74 126.736 240.7 129.226 240.217 130.363C240.184 130.441 240.151 130.507 240.12 130.56C240.017 130.742 239.948 130.753 240.023 130.715C240.095 130.681 240.286 130.62 240.573 130.738C240.626 130.76 240.676 130.787 240.717 130.813C240.955 130.983 240.838 130.962 240.728 130.689C240.611 130.428 240.488 130.006 240.399 129.539C240.384 129.462 240.37 129.386 240.358 129.313C240.29 128.916 240.271 128.535 240.287 128.382C240.29 128.31 240.311 128.305 240.249 128.466C240.196 128.611 239.964 129.006 239.545 129.256C239.361 129.368 239.198 129.427 239.069 129.461C238.446 129.575 238.548 129.307 238.674 129.254C238.816 129.176 239.06 129.2 239.171 129.36C239.178 129.37 239.186 129.382 239.192 129.394C239.356 129.682 239.155 130.372 238.793 130.846C238.449 131.333 237.939 131.674 237.904 131.6C237.903 131.592 237.905 131.585 237.909 131.579C237.949 131.514 238.121 131.522 238.297 131.642C238.39 131.7 238.486 131.775 238.639 131.873C238.79 131.977 239.023 132.077 239.393 132.393C239.406 132.404 239.419 132.416 239.431 132.428C239.805 132.727 240.079 133.385 239.986 133.647C239.885 134.019 239.618 133.862 239.461 133.625C239.292 133.376 239.166 133.014 239.07 132.628C238.88 131.846 238.797 130.959 238.808 130.093C238.808 130.093 238.808 130.093 238.808 130.093C238.071 130.555 237.296 131.019 236.555 131.661C235.88 132.361 234.9 132.931 234.974 135.084C235.03 135.89 235.662 137.039 236.535 137.608C236.567 137.631 236.599 137.653 236.631 137.674C240.358 139.604 243.021 137.979 244.558 135.809C244.639 135.682 244.711 135.556 244.781 135.423C246.278 131.978 244.766 129.629 243.565 127.039C243.531 126.977 243.497 126.915 243.462 126.853C242.421 125.19 241.073 123.013 237.53 123.573C237.162 123.669 236.766 123.821 236.371 124.063C234.478 125.311 234.329 126.992 234.222 127.872C234.148 128.842 234.241 129.592 234.354 130.306C234.375 130.436 234.398 130.564 234.423 130.691C234.811 132.166 234.917 134.084 237.458 135.953C237.691 136.101 237.942 136.233 238.205 136.344C241.373 137.672 244.409 135.539 245.396 133.594C245.567 133.298 245.711 133 245.835 132.703C247.052 129.27 246.921 126.622 246.055 123.429C245.99 123.224 245.918 123.017 245.837 122.809C245.45 121.856 244.989 120.91 243.975 119.913C243.451 119.435 242.763 118.848 241.472 118.601C240.157 118.295 238.421 119.07 237.782 119.869C237.33 120.357 237.08 120.804 236.888 121.207C235.546 125.169 235.704 127.212 236.599 130.883C236.686 131.136 236.795 131.423 236.946 131.733C237.426 132.985 239.383 134.605 241.27 134.471C243.092 134.411 244.41 133.595 245.357 132.358C245.689 131.907 245.967 131.383 246.15 130.79C246.879 128.306 247.399 125.764 247.131 122.76C246.972 121.272 246.571 119.56 245.405 117.974C244.258 116.368 242.323 115.335 240.68 115.01C240.629 114.999 240.578 114.988 240.527 114.977C236.227 114.425 233.572 117.407 233.011 120.374C232.981 120.532 232.957 120.684 232.936 120.841C232.454 124.824 232.467 128.716 233.45 132.869C234.05 134.633 234.034 136.458 236.968 138.819Z" fill="black"/>
<defs>
<filter id="filter0_f_4_49" x="0" y="0" width="433" height="434" filterUnits="userSpaceOnUse" color-interpolation-filters="sRGB">
<feFlood flood-opacity="0" result="BackgroundImageFix"/>
<feBlend mode="normal" in="SourceGraphic" in2="BackgroundImageFix" result="shape"/>
<feGaussianBlur stdDeviation="12.5" result="effect1_foregroundBlur_4_49"/>
</filter>
<filter id="filter1_f_4_49" x="83" y="122" width="121.097" height="126.313" filterUnits="userSpaceOnUse" color-interpolation-filters="sRGB">
<feFlood flood-opacity="0" result="BackgroundImageFix"/>
<feBlend mode="normal" in="SourceGraphic" in2="BackgroundImageFix" result="shape"/>
<feGaussianBlur stdDeviation="20.5" result="effect1_foregroundBlur_4_49"/>
</filter>
<filter id="filter2_f_4_49" x="230" y="110" width="121.928" height="139.728" filterUnits="userSpaceOnUse" color-interpolation-filters="sRGB">
<feFlood flood-opacity="0" result="BackgroundImageFix"/>
<feBlend mode="normal" in="SourceGraphic" in2="BackgroundImageFix" result="shape"/>
<feGaussianBlur stdDeviation="20.5" result="effect1_foregroundBlur_4_49"/>
</filter>
</defs>
</svg>
