<svg width="478" height="478" viewBox="0 0 478 478" fill="none" xmlns="http://www.w3.org/2000/svg">
<g filter="url(#filter0_f_9_87)">
<circle cx="239" cy="239" r="200" fill="#AAC2FF"/>
</g>
<g filter="url(#filter1_f_9_87)">
<g filter="url(#filter2_f_9_87)">
<path d="M157.268 184.915C162.125 183.569 166.827 183.669 171.536 185.003C171.854 185.096 172.173 185.196 172.489 185.303C179.898 187.594 186.449 194.407 188.242 202.194C188.285 202.367 188.326 202.54 188.365 202.71C189.048 205.623 189.151 210.063 186.248 213.747C186.209 213.797 186.168 213.847 186.129 213.896C183.885 216.371 181.673 217.968 179.613 219.149C178.576 220.545 177.2 221.868 175.372 222.855C174.044 223.569 172.871 223.978 171.723 224.294C171.422 224.988 171.026 225.581 170.524 226.009C170.311 226.195 170.081 226.348 169.839 226.463C165.737 228.437 160.184 228.885 155.268 226.625C155.131 226.562 154.993 226.498 154.857 226.431C151.581 224.832 148.933 222.249 147.16 219.145C144.279 216.441 142.036 212.995 140.839 209.073C140.803 208.955 140.77 208.837 140.737 208.72C138.716 200.978 143.145 195.178 146.264 191.748C146.432 191.567 146.604 191.387 146.777 191.211C148.146 189.821 149.675 188.593 151.345 187.556C153.074 186.483 154.958 185.621 156.92 185.019C157.035 184.984 157.152 184.948 157.268 184.915Z" fill="#FF7070"/>
</g>
</g>
<g filter="url(#filter3_f_9_87)">
<path fill-rule="evenodd" clip-rule="evenodd" d="M307.256 180.477C313.039 178.329 319.054 178.58 324.571 180.866C324.599 180.878 324.628 180.89 324.657 180.902C333.997 184.765 339.492 194.141 340.989 202.833C340.993 202.856 340.996 202.879 341.001 202.902C341.563 206.308 341.8 210.553 339.206 214.941C339.178 214.987 339.149 215.033 339.121 215.079C336.833 218.412 334.245 220.625 331.766 222.321C331.026 223.445 330.067 224.596 328.794 225.754C328.467 226.027 328.12 226.289 327.757 226.535C326.629 227.235 325.538 227.802 324.46 228.246C324.074 228.889 323.576 229.424 322.948 229.796C322.882 229.835 322.816 229.875 322.75 229.913C318.078 232.857 310.199 233.279 304.738 229.787C304.733 229.784 304.727 229.78 304.721 229.777C302.273 228.252 300.393 226.399 298.973 224.374C294.583 220.308 291.764 214.866 290.462 209.283C290.453 209.241 290.443 209.198 290.434 209.155C288.734 201.183 292.338 194.237 295.862 189.448C295.892 189.407 295.923 189.365 295.954 189.323C297.245 187.584 298.735 185.965 300.457 184.519C302.388 182.898 304.634 181.501 307.116 180.531C307.162 180.513 307.21 180.494 307.256 180.477Z" fill="#FF7070"/>
</g>
<path d="M164.817 151.969C164.167 151.097 163.198 150.518 162.123 150.361C161.047 150.203 159.953 150.479 159.081 151.128C158.209 151.777 157.63 152.746 157.473 153.822C157.315 154.898 157.591 155.992 158.24 156.864C158.24 156.864 158.24 156.864 158.24 156.864C163.9 162.398 167.982 163.11 172.906 165.339C173.21 165.459 173.514 165.577 173.818 165.695C173.936 165.74 174.055 165.786 174.174 165.831C182.793 168.637 190.349 168.192 198.128 167.122C199.312 166.931 200.49 166.681 201.662 166.379C206.186 165.269 210.053 162.411 212.821 159.288C213.624 158.4 213.544 156.768 214.227 155.985C214.515 155.657 214.817 155.311 215.009 155.119C215.223 154.873 215.622 154.557 215.767 153.541C215.825 153.062 215.695 152.483 215.491 152.112C215.3 151.749 215.064 151.508 214.904 151.368C214.223 150.829 213.998 150.855 213.759 150.765C213.33 150.653 213.083 150.641 212.836 150.626C212.358 150.605 211.963 150.638 211.565 150.697C210.777 150.82 210.001 151.045 209.191 151.516C206.156 153.307 203.422 155.742 201.426 158.785C200.245 160.61 199.281 162.591 198.854 164.967C198.646 166.188 198.772 167.392 199.055 168.442C199.82 171.162 201.412 173.081 202.84 174.737C202.929 174.84 202.987 174.911 203.169 175.079C203.28 175.176 203.392 175.277 203.644 175.422C203.839 175.529 204.111 175.665 204.553 175.722C204.792 175.744 204.967 175.766 205.39 175.676C205.765 175.592 206.144 175.391 206.416 175.15C206.686 174.919 206.883 174.613 206.958 174.463C207.034 174.319 207.084 174.19 207.121 174.076C207.194 173.847 207.218 173.677 207.232 173.538C207.249 173.336 207.244 173.223 207.237 173.108C207.222 172.897 207.205 172.813 207.183 172.693C207.109 172.32 207.042 172.123 206.97 171.892C206.83 171.464 206.687 171.088 206.541 170.714C205.711 168.669 204.804 166.839 203.591 164.866C202.818 163.589 201.477 162.74 200.303 162.359C198.426 161.744 196.746 161.487 195.163 161.554C194.312 161.6 193.512 161.826 192.749 162.009C192.094 162.143 191.44 162.329 190.769 162.559C189.418 162.986 187.659 163.781 186.86 165.33C186.835 165.377 186.812 165.423 186.789 165.47C186.35 166.402 186.173 167.21 186.035 167.995C185.969 168.388 185.921 168.772 185.887 169.154C185.869 169.345 185.855 169.535 185.844 169.729C185.839 169.823 185.834 169.923 185.831 170.019C185.829 170.071 185.827 170.119 185.826 170.17C185.825 170.194 185.825 170.222 185.824 170.247C185.824 170.263 185.824 170.273 185.823 170.287C185.823 170.294 185.823 170.302 185.823 170.296C185.823 170.293 185.823 170.29 185.824 170.276C185.824 170.269 185.825 170.26 185.826 170.235C185.827 170.223 185.827 170.207 185.83 170.173C185.836 170.129 185.827 170.122 185.871 169.887C185.887 169.816 185.899 169.739 185.97 169.542C186.01 169.438 186.051 169.323 186.187 169.102C186.332 168.898 186.537 168.517 187.271 168.181C187.439 168.106 187.716 168.036 187.855 168.019C188.084 167.986 188.326 167.987 188.556 168.023C189.017 168.094 189.387 168.295 189.625 168.477C190.101 168.855 190.218 169.138 190.307 169.295C190.474 169.644 190.48 169.759 190.507 169.855C190.569 170.18 190.55 170.165 190.558 170.221C190.562 170.293 190.561 170.303 190.562 170.318C190.562 170.336 190.562 170.332 190.562 170.337C190.562 170.35 190.562 170.353 190.562 170.355C190.562 170.359 190.562 170.356 190.562 170.352C190.549 169.143 190.534 167.93 190.525 166.721C190.524 166.609 190.524 166.559 190.519 166.411C190.514 166.322 190.525 166.347 190.49 166.051C190.485 166.013 190.478 165.97 190.467 165.915C190.462 165.887 190.455 165.856 190.447 165.819C190.431 165.821 190.477 165.693 190.159 165.124C189.988 164.872 189.595 164.228 188.506 164.038C187.385 163.886 186.665 164.526 186.44 164.785C186.314 164.921 186.198 165.102 186.198 165.104C186.179 165.134 186.163 165.161 186.148 165.187C186.118 165.239 186.095 165.283 186.075 165.324C185.998 165.483 185.969 165.575 185.945 165.648C185.86 165.935 185.873 165.934 185.859 165.993C185.804 166.326 185.799 166.434 185.778 166.608C185.743 166.93 185.712 167.24 185.681 167.539C185.563 168.677 185.446 169.796 185.301 170.888C185.229 171.433 185.151 171.97 185.059 172.477C185.014 172.724 184.963 172.974 184.914 173.175C184.887 173.282 184.863 173.37 184.843 173.43C184.831 173.48 184.791 173.532 184.892 173.35C184.892 173.357 184.862 173.373 185.014 173.198C185.083 173.146 185.208 172.907 185.86 172.654C186.296 172.468 187.198 172.496 187.714 172.832C188.234 173.129 188.484 173.559 188.553 173.688C188.726 174.024 188.731 174.157 188.749 174.22C188.763 174.294 188.764 174.318 188.765 174.327C188.766 174.345 188.764 174.311 188.764 174.264C188.765 174.064 188.794 173.73 188.832 173.41C189.051 171.625 189.575 169.121 190.008 168.008C190.004 168.016 189.992 168.04 189.961 168.09C189.948 168.112 189.911 168.171 189.856 168.241C189.779 168.328 189.795 168.357 189.471 168.625C189.319 168.74 189.102 168.884 188.764 168.99C188.441 169.126 187.54 169.147 187.013 168.825C186.417 168.477 186.331 168.266 186.184 168.076C186.06 167.887 185.999 167.742 185.956 167.629C185.846 167.316 185.855 167.224 185.846 167.181C185.834 167.017 185.844 167.161 185.836 167.243C185.715 168.748 185.256 171.204 184.845 172.213C184.872 172.183 184.809 172.204 185.106 171.853C185.181 171.779 185.398 171.516 185.902 171.31C186.078 171.228 186.705 171.061 187.274 171.22C187.846 171.349 188.301 171.771 188.409 171.907C188.737 172.287 188.813 172.576 188.851 172.677C188.886 172.787 188.901 172.862 188.912 172.919C188.942 173.108 188.931 173.097 188.933 173.099C188.933 173.092 188.933 173.065 188.935 173.027C188.97 172.398 189.133 171.438 189.31 170.625C189.4 170.209 189.503 169.795 189.613 169.423C189.668 169.235 189.726 169.061 189.779 168.921C189.816 168.801 189.936 168.625 189.781 168.864C189.802 168.835 189.825 168.82 189.748 168.897C189.698 168.941 189.679 168.976 189.466 169.111C189.366 169.171 189.232 169.241 189.049 169.3C188.805 169.38 188.44 169.438 188.047 169.371C187.656 169.312 187.246 169.104 186.997 168.884C186.724 168.642 186.647 168.505 186.559 168.367C186.4 168.085 186.392 167.994 186.367 167.915C186.332 167.773 186.344 167.793 186.343 167.815C186.351 167.959 186.326 168.37 186.282 168.737C186.192 169.504 186.046 170.333 185.884 171.153C185.596 172.606 185.202 174.523 184.944 175.399C184.873 175.57 184.803 175.716 184.801 175.74C184.802 175.745 184.815 175.728 184.865 175.674C184.895 175.642 184.908 175.627 184.994 175.548C185.093 175.463 185.241 175.332 185.555 175.2C185.633 175.169 185.722 175.138 185.823 175.113C185.933 175.083 186.145 175.047 186.339 175.051C186.741 175.047 187.202 175.204 187.504 175.426C187.836 175.673 187.916 175.814 188.01 175.943C188.097 176.073 188.149 176.182 188.186 176.27C188.26 176.452 188.272 176.54 188.28 176.582C188.289 176.631 188.292 176.664 188.293 176.685C188.287 176.795 188.265 176.586 188.266 176.429C188.262 176.269 188.267 176.075 188.274 175.879C188.306 175.09 188.375 174.247 188.447 173.402C188.594 171.706 188.779 169.996 188.944 168.232C188.999 167.623 189.048 167.012 189.065 166.362C189.049 165.68 189.173 165.123 188.746 163.928C188.085 162.243 186.248 161.394 185.014 161.205C183.707 160.97 182.56 161.029 181.466 161.118C180.111 161.233 178.759 161.515 177.759 161.58C176.287 161.578 175.153 162.631 174.65 163.385C174.093 164.183 173.777 164.929 173.465 165.632C173.178 166.289 172.924 166.917 172.659 167.473C172.415 168.01 172.053 168.55 171.974 168.565C171.972 168.567 171.967 168.553 172.094 168.487C172.181 168.452 172.536 168.251 173.137 168.458C173.406 168.558 173.611 168.734 173.722 168.869C173.824 168.99 173.878 169.097 173.903 169.152C173.954 169.269 173.952 169.289 173.955 169.284C173.949 169.225 173.955 168.898 173.992 168.607C174.062 167.996 174.196 167.318 174.344 166.65C174.47 166.091 174.614 165.531 174.775 164.992C174.855 164.726 174.942 164.457 175.029 164.218C175.073 164.1 175.118 163.985 175.158 163.893C175.19 163.811 175.258 163.706 175.189 163.806C175.228 163.738 175.334 163.668 175.119 163.837C175.026 163.893 174.966 163.959 174.639 164.05C174.301 164.159 173.613 164.065 173.242 163.721C172.856 163.364 172.855 163.217 172.793 163.087C172.748 162.954 172.749 162.929 172.742 162.891C172.731 162.783 172.744 162.893 172.737 162.982C172.733 163.078 172.72 163.207 172.706 163.327C172.641 163.845 172.524 164.427 172.394 165C172.129 166.154 171.799 167.323 171.419 168.445C171.269 168.886 171.113 169.319 170.946 169.728C170.862 169.935 170.776 170.132 170.694 170.301C170.614 170.472 170.509 170.642 170.508 170.646C170.504 170.654 170.483 170.671 170.564 170.596C170.587 170.576 170.618 170.55 170.667 170.514C170.695 170.5 170.823 170.382 171.142 170.29C171.323 170.25 171.475 170.194 171.89 170.272C172.337 170.356 172.761 170.734 172.908 171.023C173.079 171.353 173.061 171.421 173.086 171.519C173.102 171.611 173.106 171.68 173.107 171.736C173.105 171.969 173.092 171.947 173.086 171.994C173.08 172.024 173.078 172.027 173.077 172.028C173.076 172.027 173.083 172.003 173.09 171.976C173.125 171.86 173.193 171.679 173.258 171.515C173.395 171.17 173.551 170.817 173.714 170.462C174.042 169.752 174.397 169.044 174.776 168.36C175.175 167.642 175.687 166.874 176.118 166.455C176.122 166.453 176.163 166.429 176.046 166.541C176.014 166.57 175.978 166.602 175.898 166.656C175.762 166.729 175.538 166.925 174.92 166.907C174.532 166.913 173.9 166.571 173.688 166.215C173.567 166.043 173.503 165.887 173.464 165.764C173.443 165.695 173.428 165.635 173.418 165.582C173.379 165.37 173.389 165.261 173.392 165.185C173.407 164.994 173.411 165.013 173.404 165.011C173.396 165.02 173.385 165.041 173.369 165.073C173.305 165.197 173.214 165.37 173.118 165.542C172.928 165.882 172.714 166.241 172.499 166.596C172.068 167.306 171.622 168.018 171.201 168.717C170.839 169.317 170.404 169.991 170.113 170.317C170.127 170.307 170.072 170.337 170.281 170.154C170.359 170.099 170.327 170.09 170.652 169.917C170.803 169.846 171.016 169.755 171.357 169.72C171.547 169.709 171.66 169.688 172.041 169.769C172.369 169.845 172.716 170.03 172.961 170.259C173.46 170.715 173.565 171.256 173.582 171.319C173.618 171.478 173.628 171.595 173.632 171.688C173.639 171.875 173.624 171.962 173.621 172.001C173.593 172.189 173.589 172.167 173.592 172.171C173.595 172.165 173.604 172.139 173.617 172.107C173.669 171.976 173.75 171.79 173.835 171.606C174.006 171.232 174.2 170.839 174.397 170.451C174.794 169.673 175.214 168.89 175.643 168.15C175.94 167.636 176.299 167.066 176.525 166.793C176.505 166.806 176.574 166.772 176.301 166.998C176.258 167.03 176.246 167.042 176.143 167.107C176.031 167.174 175.877 167.263 175.609 167.341C175.474 167.378 175.309 167.411 175.108 167.418C175.004 167.421 174.914 167.42 174.77 167.404C174.601 167.383 174.417 167.339 174.236 167.267C173.468 166.97 173.08 166.269 172.984 165.926C172.862 165.51 172.887 165.324 172.889 165.189C172.897 165.059 172.903 165.044 172.91 164.996C172.958 164.763 172.929 164.912 172.906 164.961C172.853 165.107 172.766 165.316 172.682 165.509C172.504 165.912 172.307 166.327 172.101 166.743C171.689 167.572 171.247 168.402 170.79 169.171C170.539 169.593 170.257 170.058 170.09 170.298C170.115 170.287 170.029 170.326 170.364 170.068C170.432 170.047 170.693 169.735 171.539 169.697C171.699 169.69 172.139 169.733 172.494 169.921C172.859 170.102 173.146 170.394 173.309 170.649C173.648 171.238 173.582 171.328 173.625 171.49C173.673 172.062 173.612 172.014 173.609 172.102C173.565 172.259 173.593 172.116 173.612 172.053C173.661 171.88 173.737 171.659 173.817 171.438C173.976 171 174.16 170.536 174.349 170.084C174.731 169.177 175.158 168.269 175.652 167.464C175.86 167.125 176.097 166.769 176.26 166.573C176.241 166.577 176.351 166.531 175.992 166.795C175.899 166.853 175.768 166.935 175.52 167.008C175.259 167.053 174.956 167.217 174.179 166.861C173.499 166.508 173.298 165.806 173.282 165.714C173.241 165.546 173.234 165.43 173.231 165.342C173.228 165.157 173.241 165.117 173.246 165.075C173.252 165.035 173.257 165.011 173.26 164.995C173.28 164.922 173.243 165.05 173.21 165.133C173.136 165.326 173.039 165.555 172.937 165.782C172.731 166.241 172.505 166.708 172.271 167.172C171.803 168.097 171.299 169.027 170.778 169.847C170.618 170.097 170.445 170.347 170.324 170.492C170.319 170.498 170.322 170.493 170.342 170.472C170.349 170.465 170.375 170.438 170.419 170.4C170.441 170.381 170.469 170.358 170.506 170.33C170.547 170.302 170.57 170.277 170.726 170.192C170.869 170.121 171.085 170.013 171.478 169.991C171.585 169.989 171.651 169.986 171.826 170.011C171.995 170.037 172.179 170.091 172.351 170.176C172.701 170.346 172.965 170.633 173.102 170.869C173.246 171.112 173.289 171.303 173.305 171.362C173.326 171.449 173.337 171.522 173.344 171.584C173.357 171.708 173.355 171.791 173.352 171.855C173.338 172.044 173.324 172.058 173.321 172.082C173.309 172.122 173.346 172.001 173.386 171.902C173.466 171.695 173.57 171.453 173.678 171.215C173.896 170.732 174.136 170.24 174.383 169.755C174.877 168.789 175.415 167.802 175.959 166.985C176.069 166.822 176.18 166.67 176.262 166.574C176.267 166.568 176.263 166.574 176.24 166.598C176.231 166.608 176.199 166.641 176.147 166.685C176.065 166.736 176.117 166.765 175.66 166.966C175.548 167.007 175.405 167.05 175.216 167.07C175.122 167.079 175.017 167.083 174.902 167.074C174.789 167.068 174.564 167.031 174.387 166.96C173.577 166.671 173.289 165.829 173.279 165.718C173.195 165.355 173.232 165.2 173.234 165.132C173.248 165.013 173.259 164.981 173.26 164.975C173.264 164.957 173.221 165.084 173.178 165.188C173.089 165.408 172.973 165.662 172.855 165.911C172.617 166.41 172.354 166.923 172.084 167.425C171.548 168.418 170.954 169.463 170.4 170.242C170.346 170.317 170.293 170.388 170.255 170.435C170.252 170.441 170.257 170.434 170.285 170.406C170.3 170.392 170.336 170.355 170.4 170.304C170.432 170.278 170.473 170.247 170.529 170.209C170.615 170.154 170.772 170.049 171.072 169.967C171.223 169.927 171.419 169.894 171.662 169.908C171.927 169.911 172.436 170.062 172.739 170.325C173.061 170.586 173.227 170.89 173.311 171.106C173.391 171.325 173.388 171.353 173.409 171.452C173.461 171.773 173.426 171.918 173.425 171.954C173.409 172.069 173.399 172.09 173.397 172.097C173.389 172.106 173.428 171.971 173.464 171.861C173.541 171.625 173.64 171.354 173.74 171.083C173.941 170.541 174.155 169.983 174.377 169.429C174.818 168.338 175.318 167.165 175.871 166.292C175.877 166.283 175.882 166.274 175.888 166.266C175.944 166.183 175.985 166.122 176.037 166.045C176.04 166.039 176.044 166.034 176.047 166.03C176.049 166.027 176.05 166.025 176.052 166.022C176.052 166.021 176.053 166.021 176.053 166.02C176.053 166.021 176.055 166.018 176.06 166.01C176.062 166.006 176.065 166.002 176.072 165.991C176.088 165.959 176.06 166.03 176.171 165.806C176.19 165.76 176.217 165.718 176.265 165.536C176.283 165.435 176.335 165.314 176.296 164.951C176.27 164.776 176.209 164.494 175.967 164.188C175.733 163.877 175.283 163.649 174.951 163.619C174.271 163.571 174.095 163.768 173.954 163.828C173.825 163.906 173.773 163.954 173.729 163.992C173.647 164.064 173.621 164.095 173.597 164.121C173.518 164.211 173.52 164.215 173.506 164.232C173.487 164.258 173.484 164.262 173.48 164.269C173.472 164.279 173.47 164.283 173.467 164.287C173.464 164.291 173.465 164.29 173.463 164.292C173.457 164.301 173.451 164.31 173.443 164.322C173.426 164.346 173.42 164.355 173.406 164.375C173.374 164.421 173.36 164.441 173.331 164.482C173.236 164.619 173.13 164.769 173.035 164.901C172.835 165.179 172.633 165.454 172.427 165.728C172.015 166.278 171.596 166.814 171.171 167.349C170.33 168.399 169.432 169.529 168.668 170.42C168.656 170.432 168.653 170.433 168.669 170.414C168.677 170.406 168.704 170.375 168.772 170.315C168.79 170.299 168.811 170.282 168.837 170.261C168.85 170.25 168.865 170.239 168.881 170.227C168.895 170.218 168.918 170.199 168.989 170.153C169.126 170.08 169.303 169.93 169.849 169.866C170.119 169.842 170.522 169.874 170.915 170.082C171.325 170.299 171.57 170.606 171.713 170.864C171.989 171.401 171.949 171.704 171.951 171.89C171.941 172.073 171.912 172.188 171.901 172.234C171.886 172.3 171.872 172.342 171.862 172.374C171.841 172.436 171.828 172.465 171.827 172.47C171.819 172.49 171.823 172.481 171.83 172.469C173.149 170.291 175.157 167.485 176.92 165.97C176.923 165.967 176.913 165.979 176.839 166.025C176.787 166.056 176.707 166.103 176.551 166.161C176.464 166.173 175.872 166.485 174.96 166.037C174.456 165.778 174.125 165.278 174.016 164.947C173.908 164.62 173.918 164.54 173.905 164.399C173.895 164.149 173.92 164.06 173.927 164.009C173.949 163.896 173.957 163.887 173.956 163.886C173.323 165.313 171.937 167.616 170.818 169.479C170.318 170.299 169.793 171.147 169.289 171.876L172.211 173.871C172.397 173.526 172.556 173.204 172.715 172.881C173.752 170.751 174.159 168.378 175.03 166.202L174.954 166.3C175.019 166.205 175.09 166.114 175.166 166.025C176.05 165 177.467 164.429 178.782 163.827C177.362 164.153 175.917 164.455 174.565 165.327C174.448 165.404 174.332 165.486 174.217 165.574L174.142 165.671C172.625 167.496 170.881 169.264 169.692 171.224C169.514 171.514 169.334 171.805 169.166 172.056L172.088 174.051C172.784 173.221 173.386 172.411 173.985 171.588C175.385 169.568 176.634 168.02 177.871 165.197C177.905 165.092 177.949 164.964 177.99 164.741C178.001 164.683 178.008 164.639 178.018 164.549C178.028 164.447 178.035 164.328 178.027 164.178C178.023 164.102 178.015 164.019 177.999 163.925C177.979 163.821 177.975 163.766 177.902 163.551C177.782 163.189 177.433 162.666 176.904 162.394C175.954 161.921 175.276 162.249 175.149 162.278C174.948 162.352 174.815 162.426 174.702 162.493C174.539 162.593 174.443 162.667 174.337 162.751C171.531 165.292 170.082 167.658 168.332 170.729C168.307 170.779 168.273 170.853 168.241 170.928C168.231 170.953 168.194 171.04 168.164 171.132C168.148 171.18 168.13 171.237 168.111 171.316C168.099 171.371 168.066 171.503 168.056 171.696C168.057 171.892 168.019 172.202 168.298 172.745C168.442 173.006 168.688 173.314 169.101 173.533C169.497 173.742 169.903 173.775 170.177 173.75C170.731 173.686 170.917 173.532 171.066 173.451C171.144 173.401 171.172 173.379 171.188 173.368C171.206 173.354 171.224 173.341 171.24 173.328C171.272 173.303 171.298 173.281 171.322 173.26C171.413 173.181 171.481 173.108 171.509 173.078C171.567 173.015 171.612 172.96 171.658 172.904C172.609 171.657 173.266 170.513 174 169.315C174.36 168.72 174.716 168.13 175.081 167.54C175.264 167.246 175.447 166.954 175.634 166.663C175.722 166.526 175.823 166.369 175.915 166.23C175.942 166.188 175.956 166.167 175.986 166.121C176 166.101 176.006 166.091 176.02 166.07C176.027 166.059 176.032 166.051 176.034 166.049C176.034 166.049 176.034 166.049 176.034 166.049C176.033 166.05 176.032 166.051 176.026 166.06C176.022 166.066 176.019 166.07 176.001 166.095C175.987 166.112 175.989 166.115 175.91 166.205C175.886 166.231 175.86 166.263 175.778 166.335C175.734 166.372 175.682 166.42 175.553 166.499C175.412 166.559 175.236 166.756 174.556 166.707C174.224 166.677 173.774 166.449 173.54 166.139C173.298 165.833 173.237 165.551 173.211 165.376C173.172 165.012 173.224 164.892 173.242 164.79C173.29 164.609 173.317 164.567 173.336 164.52C173.447 164.297 173.418 164.368 173.434 164.337C173.441 164.327 173.443 164.323 173.445 164.32C173.449 164.314 173.449 164.315 173.449 164.315C173.449 164.315 173.449 164.314 173.449 164.314C173.449 164.314 173.449 164.314 173.448 164.315C173.447 164.317 173.445 164.32 173.443 164.324C173.398 164.392 173.354 164.458 173.3 164.541C173.29 164.555 173.281 164.569 173.271 164.583C172.516 165.784 171.922 166.811 171.277 167.914C170.961 168.462 170.652 169.012 170.358 169.59C170.21 169.882 170.067 170.174 169.925 170.51C169.853 170.686 169.785 170.837 169.698 171.145C169.68 171.216 169.649 171.33 169.626 171.511C169.621 171.571 169.582 171.78 169.641 172.128C169.664 172.236 169.661 172.268 169.745 172.498C169.834 172.726 170.005 173.038 170.334 173.305C170.645 173.574 171.164 173.728 171.437 173.731C171.687 173.746 171.891 173.712 172.05 173.67C172.366 173.584 172.545 173.467 172.651 173.399C172.719 173.354 172.773 173.313 172.819 173.276C172.909 173.204 172.984 173.13 173.023 173.091C173.096 173.017 173.153 172.952 173.207 172.888C173.32 172.755 173.422 172.622 173.511 172.498C174.336 171.325 174.869 170.267 175.432 169.145C175.706 168.588 175.971 168.025 176.225 167.446C176.354 167.152 176.479 166.857 176.606 166.524C176.673 166.343 176.731 166.202 176.814 165.89C176.83 165.827 176.864 165.695 176.883 165.518C176.889 165.413 176.927 165.209 176.835 164.82C176.823 164.694 176.521 163.827 175.695 163.534C175.514 163.461 175.283 163.423 175.167 163.417C175.049 163.408 174.94 163.411 174.842 163.421C174.646 163.442 174.495 163.487 174.374 163.531C173.874 163.75 173.905 163.798 173.795 163.872C173.718 163.937 173.644 164.009 173.616 164.039C173.548 164.109 173.494 164.171 173.443 164.233C173.233 164.49 173.078 164.712 172.925 164.938C172.21 166.016 171.666 167.035 171.121 168.094C170.853 168.622 170.594 169.152 170.342 169.709C170.217 169.987 170.094 170.266 169.969 170.588C169.902 170.771 169.848 170.893 169.764 171.219C169.743 171.314 169.715 171.4 169.697 171.657C169.692 171.743 169.691 171.845 169.706 171.985C169.713 172.055 169.726 172.135 169.749 172.229C169.765 172.293 169.812 172.497 169.961 172.748C170.103 172.992 170.374 173.286 170.732 173.459C170.907 173.546 171.095 173.602 171.269 173.628C171.449 173.654 171.517 173.651 171.628 173.648C172.034 173.627 172.266 173.513 172.428 173.432C172.606 173.335 172.64 173.303 172.693 173.265C172.742 173.229 172.783 173.195 172.818 173.164C172.887 173.104 172.953 173.038 172.975 173.015C173.039 172.949 173.09 172.89 173.139 172.831C173.444 172.459 173.652 172.143 173.859 171.822C174.503 170.808 175.025 169.832 175.539 168.821C175.793 168.316 176.038 167.811 176.278 167.277C176.398 167.008 176.513 166.743 176.633 166.427C176.694 166.26 176.752 166.126 176.832 165.795C176.844 165.741 176.856 165.682 176.866 165.611C176.875 165.54 176.892 165.465 176.889 165.242C176.886 165.136 176.877 165.005 176.832 164.824C176.814 164.72 176.601 163.994 175.908 163.635C175.114 163.271 174.8 163.437 174.523 163.486C174.261 163.563 174.113 163.653 173.999 163.725C173.541 164.057 173.565 164.111 173.445 164.234C173.049 164.719 172.795 165.128 172.535 165.544C171.951 166.499 171.406 167.407 170.864 168.341C170.595 168.806 170.328 169.282 170.072 169.777C169.941 170.033 169.815 170.284 169.684 170.595C169.62 170.757 169.552 170.88 169.457 171.282C169.442 171.436 169.37 171.447 169.425 172.086C169.47 172.261 169.406 172.363 169.755 172.97C169.923 173.232 170.216 173.53 170.588 173.714C170.95 173.906 171.399 173.95 171.564 173.943C172.431 173.907 172.74 173.569 172.826 173.533C173.261 173.2 173.25 173.152 173.373 173.026C173.903 172.409 174.208 171.921 174.525 171.398C175.066 170.487 175.54 169.593 175.998 168.673C176.226 168.211 176.446 167.752 176.664 167.256C176.77 167.012 176.88 166.757 176.993 166.447C177.052 166.267 177.107 166.183 177.199 165.709C177.211 165.63 177.219 165.599 177.231 165.43C177.234 165.257 177.257 165.042 177.128 164.606C177.026 164.243 176.629 163.529 175.846 163.227C175.663 163.154 175.475 163.109 175.301 163.088C175.154 163.07 175.062 163.069 174.954 163.072C174.748 163.08 174.576 163.114 174.435 163.153C174.153 163.234 173.984 163.33 173.855 163.409C173.735 163.485 173.718 163.5 173.663 163.541C173.288 163.849 173.295 163.889 173.18 164.014C172.578 164.764 172.251 165.345 171.882 165.968C171.386 166.825 170.946 167.677 170.529 168.554C170.321 168.992 170.119 169.435 169.923 169.909C169.824 170.15 169.73 170.382 169.625 170.688C169.568 170.882 169.521 170.919 169.433 171.461C169.426 171.521 169.407 171.647 169.415 171.863C169.42 171.97 169.432 172.101 169.471 172.271C169.489 172.34 169.602 172.906 170.111 173.37C170.362 173.603 170.714 173.792 171.05 173.869C171.439 173.952 171.555 173.931 171.751 173.919C172.105 173.884 172.331 173.788 172.495 173.71C172.858 173.518 172.836 173.499 172.937 173.426C173.088 173.302 173.167 173.214 173.212 173.166C173.263 173.109 173.308 173.057 173.349 173.006C174.017 172.141 174.362 171.467 174.764 170.734C175.197 169.92 175.556 169.091 175.885 168.239C176.049 167.813 176.205 167.38 176.355 166.929C176.433 166.694 176.505 166.471 176.584 166.184C176.607 166.102 176.621 166.046 176.649 165.933C176.67 165.831 176.704 165.731 176.726 165.447C176.732 165.336 176.741 165.199 176.698 164.965C176.687 164.906 176.671 164.841 176.648 164.768C176.606 164.636 176.539 164.473 176.414 164.294C176.194 163.927 175.549 163.578 175.149 163.584C174.511 163.565 174.262 163.77 174.094 163.863C173.995 163.929 173.942 163.975 173.888 164.022C173.782 164.117 173.734 164.174 173.696 164.217C173.656 164.264 173.621 164.308 173.587 164.352C172.924 165.304 172.572 166.072 172.111 166.883C171.7 167.626 171.309 168.365 170.93 169.124C170.74 169.506 170.557 169.883 170.373 170.296C170.284 170.499 170.192 170.71 170.097 170.976C170.074 171.043 170.049 171.118 170.022 171.217C170.009 171.264 169.995 171.312 169.978 171.4C169.963 171.502 169.943 171.51 169.94 171.81C169.942 171.879 169.947 171.96 169.965 172.062C169.992 172.171 169.975 172.248 170.154 172.592C170.308 172.894 170.742 173.28 171.202 173.366C171.629 173.447 171.788 173.39 171.981 173.347C172.321 173.25 172.488 173.108 172.525 173.085C172.592 173.038 172.641 172.996 172.684 172.958C172.856 172.799 172.876 172.767 172.954 172.678C173.917 171.356 174.105 170.544 174.51 169.534C174.957 168.296 175.336 167.064 175.661 165.787C175.821 165.145 175.969 164.507 176.076 163.78C176.117 163.385 176.204 163.122 176.116 162.346C176.096 162.229 176.086 162.147 176.01 161.925C175.918 161.716 175.891 161.512 175.439 161.096C175.007 160.701 174.248 160.594 173.826 160.723C173.417 160.836 173.308 160.931 173.14 161.039C172.679 161.39 172.6 161.553 172.43 161.762C172.005 162.389 171.952 162.65 171.802 163.007C171.675 163.341 171.567 163.666 171.468 163.983C171.271 164.621 171.106 165.252 170.962 165.894C170.792 166.667 170.654 167.437 170.587 168.3C170.561 168.745 170.523 169.156 170.628 169.83C170.662 170.011 170.703 170.212 170.825 170.492C170.885 170.629 170.99 170.828 171.146 171.012C171.318 171.22 171.596 171.454 171.95 171.585C172.727 171.861 173.287 171.602 173.522 171.496C173.836 171.337 173.945 171.238 174.108 171.104C175.757 169.349 175.778 168.102 176.385 166.907C176.654 166.288 176.958 165.712 177.265 165.345C177.415 165.163 177.562 165.047 177.642 165.016C177.726 164.984 177.711 165.013 177.749 165.024C179.338 165.051 180.557 164.863 181.786 164.767C183.69 164.538 185.531 164.817 185.568 165.326C185.536 165.213 185.604 165.424 185.619 165.615C185.641 165.819 185.651 166.063 185.651 166.317C185.651 166.824 185.618 167.369 185.567 167.922C185.416 169.541 185.095 171.198 184.758 172.87C184.589 173.712 184.412 174.543 184.259 175.45C184.221 175.68 184.184 175.92 184.155 176.167C184.13 176.451 184.086 176.66 184.126 177.193C184.134 177.271 184.145 177.354 184.163 177.45C184.18 177.53 184.208 177.684 184.304 177.918C184.352 178.032 184.416 178.163 184.515 178.312C184.623 178.46 184.714 178.618 185.072 178.883C185.397 179.12 185.883 179.286 186.313 179.282C186.52 179.286 186.749 179.247 186.87 179.215C186.981 179.187 187.08 179.153 187.168 179.117C187.522 178.969 187.716 178.807 187.864 178.677C187.998 178.554 188.029 178.517 188.094 178.445C188.203 178.324 188.311 178.176 188.354 178.116C188.579 177.795 188.694 177.591 188.837 177.335C189.812 175.173 190.072 173.825 190.46 172.061C190.64 171.149 190.798 170.239 190.905 169.244C190.953 168.735 191.008 168.257 190.969 167.522C190.963 167.436 190.953 167.32 190.937 167.199C190.919 167.076 190.902 166.962 190.853 166.765C190.799 166.578 190.76 166.39 190.541 166.006C190.402 165.733 189.766 164.945 188.808 164.808C188.363 164.732 187.942 164.796 187.638 164.895C187.411 164.968 187.23 165.059 187.081 165.149C186.754 165.355 186.679 165.442 186.542 165.568C186.28 165.828 186.209 165.933 186.07 166.115C185.648 166.729 185.589 166.997 185.46 167.316C185.35 167.617 185.27 167.882 185.194 168.15C185.047 168.674 184.931 169.176 184.827 169.676C184.626 170.695 184.452 171.589 184.374 172.827C184.369 172.934 184.366 173.019 184.368 173.16C184.372 173.29 184.366 173.421 184.42 173.739C184.437 173.832 184.46 173.939 184.504 174.076C184.55 174.206 184.645 174.538 184.991 174.936C185.106 175.081 185.579 175.518 186.166 175.65C186.751 175.813 187.399 175.642 187.585 175.555C188.113 175.341 188.368 175.047 188.462 174.951C188.843 174.504 188.839 174.415 188.936 174.248C190.007 171.544 190.205 169.985 190.479 167.515C190.487 167.298 190.511 167.136 190.469 166.67C190.454 166.568 190.447 166.375 190.314 166.003C190.263 165.869 190.193 165.706 190.059 165.503C189.903 165.298 189.808 165.075 189.193 164.716C188.65 164.385 187.725 164.406 187.387 164.547C187.035 164.658 186.802 164.811 186.635 164.938C186.272 165.238 186.274 165.285 186.173 165.402C186.097 165.499 186.029 165.605 186 165.652C185.935 165.758 185.887 165.849 185.843 165.936C184.75 168.758 184.571 170.478 184.213 172.864C184.165 173.283 184.12 173.685 184.113 174.232C184.113 174.381 184.113 174.517 184.131 174.729C184.139 174.823 184.152 174.947 184.184 175.112C184.216 175.255 184.251 175.498 184.463 175.904C184.549 176.066 184.838 176.548 185.393 176.863C185.946 177.221 186.895 177.254 187.382 177.05C188.103 176.777 188.323 176.45 188.439 176.345C188.727 176.017 188.776 175.909 188.889 175.729C189.314 174.939 189.317 174.671 189.43 174.288C189.514 173.945 189.579 173.617 189.635 173.309C189.749 172.682 189.834 172.091 189.913 171.499C190.068 170.32 190.19 169.158 190.307 168.018C190.338 167.722 190.371 167.411 190.403 167.132C190.417 167.012 190.445 166.805 190.441 166.841C190.433 166.87 190.454 166.827 190.382 167.073C190.36 167.138 190.333 167.223 190.259 167.377C190.24 167.416 190.217 167.46 190.188 167.51C190.173 167.536 190.157 167.563 190.139 167.592C190.138 167.594 190.025 167.772 189.9 167.907C189.676 168.164 188.959 168.802 187.84 168.651C186.752 168.461 186.361 167.819 186.192 167.57C185.878 167.006 185.928 166.895 185.912 166.895C185.904 166.862 185.898 166.833 185.893 166.809C185.884 166.76 185.878 166.724 185.874 166.695C185.85 166.489 185.862 166.57 185.86 166.562C185.86 166.598 185.86 166.644 185.86 166.721C185.851 167.93 185.836 169.143 185.822 170.352C185.822 170.356 185.822 170.36 185.822 170.368C185.822 170.372 185.822 170.377 185.822 170.391C185.823 170.397 185.822 170.393 185.823 170.411C185.823 170.427 185.823 170.437 185.827 170.509C185.834 170.565 185.815 170.55 185.878 170.875C185.904 170.971 185.91 171.086 186.078 171.436C186.167 171.592 186.284 171.875 186.759 172.253C186.997 172.435 187.367 172.637 187.829 172.707C188.059 172.743 188.301 172.744 188.53 172.711C188.669 172.695 188.946 172.624 189.114 172.549C189.848 172.213 190.053 171.832 190.198 171.629C190.333 171.408 190.374 171.293 190.415 171.188C190.486 170.991 190.498 170.914 190.514 170.843C190.558 170.609 190.549 170.601 190.555 170.557C190.557 170.523 190.558 170.507 190.559 170.494C190.56 170.47 190.561 170.461 190.561 170.452C190.561 170.438 190.561 170.433 190.562 170.428C190.562 170.413 190.562 170.413 190.562 170.407C190.563 170.398 190.563 170.394 190.563 170.384C190.564 170.37 190.565 170.353 190.565 170.338C190.567 170.307 190.569 170.275 190.571 170.24C190.575 170.175 190.58 170.105 190.585 170.037C190.596 169.9 190.609 169.761 190.624 169.624C190.655 169.348 190.694 169.077 190.742 168.818C190.834 168.305 190.978 167.815 191.108 167.552C191.114 167.54 191.119 167.528 191.125 167.516C191.29 167.126 191.342 166.48 192.032 166.229C192.343 166.122 192.716 166.115 193.093 166.163C193.908 166.215 194.684 166.296 195.414 166.257C196.747 166.183 198.063 165.903 198.984 166.217C199.558 166.417 199.838 166.674 200.006 167.008C200.845 168.583 201.58 170.535 202.212 172.323C202.323 172.644 202.429 172.97 202.504 173.246C202.542 173.38 202.573 173.527 202.566 173.518C202.563 173.505 202.557 173.495 202.548 173.385C202.545 173.322 202.539 173.249 202.553 173.089C202.564 172.979 202.583 172.833 202.649 172.625C202.683 172.521 202.729 172.401 202.801 172.266C202.872 172.125 203.06 171.831 203.321 171.608C203.584 171.374 203.954 171.179 204.317 171.097C204.727 171.01 204.895 171.031 205.123 171.052C205.545 171.107 205.794 171.235 205.963 171.327C206.18 171.453 206.26 171.528 206.331 171.589C206.441 171.69 206.45 171.707 206.467 171.723C205.19 170.143 204.155 168.576 203.781 167.176C203.639 166.644 203.61 166.178 203.677 165.777C203.912 164.387 204.605 162.828 205.505 161.458C207.027 159.136 209.192 157.188 211.675 155.733C211.779 155.669 212.032 155.577 212.288 155.542C212.412 155.523 212.548 155.517 212.598 155.521C212.613 155.519 212.634 155.535 212.459 155.491C212.409 155.477 212.352 155.462 212.236 155.413C212.126 155.36 211.979 155.313 211.672 155.054C211.535 154.934 211.323 154.721 211.147 154.385C210.958 154.043 210.835 153.499 210.889 153.051C211.026 152.103 211.387 151.839 211.551 151.644C211.127 152.07 210.84 152.41 210.541 152.747C209.853 153.531 208.365 153.457 207.675 154.026C205.207 156.088 202.504 157.22 199.771 157.637C198.746 157.809 197.712 157.973 196.676 158.141C190.05 159.166 182.47 159.932 177.069 158.153C176.959 158.112 176.85 158.072 176.741 158.031C176.461 157.925 176.182 157.818 175.903 157.709C173.706 156.844 171.533 155.9 169.478 154.866C168.457 154.351 167.455 153.807 166.562 153.251C166.117 152.975 165.697 152.691 165.358 152.432C165.025 152.188 164.729 151.874 164.817 151.969Z" fill="black"/>
<path d="M281.051 153.608C280.422 153.107 279.62 152.877 278.821 152.968C278.022 153.059 277.292 153.463 276.791 154.092C276.29 154.721 276.06 155.524 276.151 156.323C276.241 157.122 276.646 157.852 277.275 158.352C277.275 158.352 277.275 158.352 277.275 158.352C280.163 160.631 283.41 161.782 286.493 162.619C294.091 164.553 301.55 164.891 308.987 165.08C309.401 165.088 309.799 165.087 310.21 165.075C317.244 165.05 324.147 160.943 328.087 155.696C328.202 155.555 328.277 155.471 328.464 155.207C328.496 155.161 328.547 155.085 328.606 154.987C328.636 154.937 328.669 154.878 328.709 154.799C328.729 154.759 328.751 154.715 328.774 154.662C328.788 154.632 328.792 154.622 328.816 154.564C328.859 154.456 328.909 154.322 328.956 154.117C329 153.911 329.053 153.634 329.013 153.194C328.975 152.769 328.793 152.107 328.285 151.55C327.785 150.985 327.081 150.708 326.613 150.642C326.329 150.601 326.282 150.609 326.18 150.605C326.088 150.604 326.005 150.608 325.929 150.614C325.33 150.675 325.123 150.799 324.947 150.869C324.783 150.945 324.684 151.005 324.615 151.047C324.579 151.069 324.548 151.089 324.52 151.108C324.294 151.261 324.237 151.315 324.155 151.38C323.876 151.611 323.692 151.782 323.502 151.954C320.893 154.359 318.517 157.022 316.111 158.962C314.597 160.108 314.073 161.611 313.776 162.839C313.454 164.287 313.387 165.626 313.497 166.988C313.571 167.875 313.714 168.743 313.93 169.577C314.733 172.844 316.587 176.13 317.26 178.116C317.29 178.226 317.318 178.326 317.338 178.398C317.338 178.401 317.338 178.401 317.337 178.395C317.336 178.392 317.335 178.387 317.332 178.378C317.329 178.36 317.344 178.436 317.301 178.24C317.294 178.206 317.286 178.166 317.272 178.067C317.265 178.014 317.256 177.95 317.25 177.819C317.259 177.667 317.192 177.543 317.376 176.871C317.497 176.557 317.688 175.838 318.753 175.252C319.27 174.98 319.932 174.904 320.415 174.988C320.906 175.067 321.229 175.237 321.454 175.376C321.894 175.664 322.028 175.858 322.144 175.993C322.251 176.128 322.304 176.215 322.346 176.284C322.496 176.542 322.503 176.59 322.532 176.652C322.604 176.835 322.593 176.819 322.604 176.847C322.619 176.896 322.61 176.866 322.612 176.874C322.615 176.883 322.613 176.876 322.61 176.866C322.601 176.837 322.598 176.827 322.591 176.801C322.574 176.743 322.563 176.709 322.548 176.655C322.491 176.463 322.429 176.256 322.372 176.066C321.333 172.689 320.283 169.43 318.711 165.98C318.425 165.371 318.057 164.796 317.634 164.287C315.757 162.082 313.348 161.35 311.281 160.811C310.787 160.688 310.297 160.588 309.808 160.503C307.041 160.098 304.336 159.932 301.207 161.325C300.36 161.744 299.669 162.367 299.165 163.004C295.633 168.784 296.65 173.604 296.172 178.289C296.165 178.4 296.16 178.501 296.154 178.591C296.146 178.729 296.134 178.935 296.124 179.062C296.122 179.095 296.12 179.116 296.12 179.112C296.124 179.1 296.116 179.095 296.161 178.891C296.174 178.835 296.191 178.763 296.237 178.633C296.254 178.593 296.236 178.606 296.358 178.351C296.498 178.151 296.576 177.705 297.584 177.2C298.083 176.964 298.89 176.931 299.44 177.162C300 177.383 300.29 177.693 300.467 177.903C300.804 178.338 300.838 178.534 300.896 178.678C301.041 179.187 300.985 179.089 301 179.126C301.002 179.143 301.003 179.157 301.004 179.168C301.012 179.252 301.007 179.199 301.006 179.185C301.005 179.162 301.003 179.128 301.002 179.086C300.99 178.779 300.981 178.41 300.97 178.064C300.948 177.355 300.921 176.647 300.886 175.933C300.816 174.494 300.719 173.074 300.587 171.631C300.182 168.653 300.405 166.189 298.596 162.371C298.102 161.604 297.356 161.063 296.679 160.761C292.67 159.428 289.971 160.21 286.956 161.029C286.181 161.294 285.436 161.676 284.774 162.15C281.004 164.997 280.074 169.145 279.707 172.789L279.276 174.835L281.618 175.255C282.575 175.309 282.842 175.025 283.053 174.928C283.233 174.816 283.337 174.725 283.411 174.659C283.564 174.519 283.635 174.433 283.702 174.354C283.831 174.199 283.914 174.079 283.987 173.972C284.134 173.752 284.247 173.564 284.359 173.377C285.077 172.146 285.485 170.897 286.051 169.705C286.176 169.44 286.309 169.175 286.452 168.914C286.914 168.071 287.401 167.211 287.866 166.344C289.314 163.647 290.571 160.904 291.746 158.121C291.746 158.121 291.746 158.121 291.746 158.121C289.978 160.569 288.175 162.969 286.209 165.195C285.575 165.915 284.925 166.611 284.257 167.333C284.05 167.558 283.836 167.781 283.618 168.008C282.648 169.008 281.644 170.038 280.881 171.033C280.77 171.175 280.659 171.312 280.569 171.412C280.527 171.458 280.482 171.501 280.481 171.493C280.483 171.486 280.487 171.472 280.564 171.399C280.602 171.364 280.664 171.306 280.804 171.218C280.972 171.147 281.191 170.886 282.101 170.934L284.012 173.401C284.654 170.486 286.106 167.694 287.867 166.481C288.181 166.257 288.499 166.062 288.842 165.894C290.845 164.946 293.777 163.994 294.973 164.514C295.121 164.584 295.125 164.616 295.123 164.617C295.742 165.899 295.958 169.31 296.016 171.901C296.05 173.279 296.055 174.652 296.056 176.053C296.057 176.751 296.056 177.44 296.058 178.148C296.06 178.5 296.061 178.849 296.069 179.241C296.075 179.372 296.068 179.392 296.094 179.688C296.096 179.707 296.098 179.729 296.101 179.753C296.103 179.769 296.103 179.767 296.108 179.804C296.123 179.888 296.125 179.971 296.214 180.25C296.274 180.398 296.308 180.596 296.647 181.033C296.824 181.244 297.116 181.555 297.676 181.775C298.226 182.007 299.035 181.974 299.534 181.738C300.543 181.233 300.623 180.784 300.764 180.581C300.888 180.323 300.87 180.335 300.888 180.293C300.935 180.159 300.954 180.082 300.969 180.018C301.02 179.786 301.02 179.733 301.031 179.65C301.038 179.579 301.043 179.526 301.049 179.462C301.061 179.308 301.064 179.27 301.071 179.159C301.078 179.053 301.084 178.964 301.088 178.881C301.094 178.783 301.1 178.677 301.107 178.562C301.357 173.875 301.194 168.427 302.897 165.979C303.065 165.769 303.206 165.662 303.333 165.598C304.636 164.956 307.019 164.857 308.993 165.206C309.349 165.267 309.697 165.349 310.029 165.449C311.647 165.918 313.003 166.735 313.595 167.555C313.741 167.747 313.853 167.944 313.942 168.157C315.143 171.037 316.121 174.413 317.11 177.65C317.166 177.835 317.226 178.035 317.283 178.224C317.298 178.277 317.309 178.311 317.327 178.372C317.336 178.401 317.338 178.408 317.351 178.45C317.356 178.469 317.361 178.484 317.368 178.508C317.372 178.521 317.359 178.48 317.381 178.548C317.393 178.581 317.383 178.567 317.456 178.751C317.485 178.813 317.492 178.861 317.642 179.119C317.684 179.188 317.737 179.275 317.844 179.411C317.959 179.545 318.094 179.74 318.534 180.028C318.758 180.166 319.082 180.336 319.573 180.416C320.055 180.499 320.717 180.424 321.235 180.152C322.3 179.566 322.491 178.846 322.612 178.532C322.796 177.861 322.729 177.737 322.738 177.585C322.732 177.453 322.722 177.389 322.716 177.336C322.702 177.236 322.693 177.197 322.687 177.163C322.643 176.962 322.656 177.032 322.653 177.015C322.65 177.003 322.648 176.994 322.646 176.987C322.642 176.973 322.639 176.962 322.636 176.952C322.601 176.826 322.58 176.752 322.547 176.636C321.174 172.87 319.749 170.869 319.012 168.189C318.827 167.556 318.655 166.935 318.527 166.315C318.353 165.502 318.299 164.609 318.46 163.912C318.587 163.299 318.891 162.932 318.951 162.953C322.116 160.701 324.709 158.464 327.296 156.212C327.457 156.072 327.653 155.905 327.746 155.834C327.758 155.824 327.8 155.8 327.67 155.889C327.653 155.901 327.632 155.914 327.605 155.931C327.554 155.962 327.475 156.011 327.325 156.08C327.164 156.144 326.968 156.264 326.378 156.324C326.303 156.33 326.221 156.334 326.13 156.333C326.029 156.329 325.982 156.338 325.701 156.297C325.237 156.231 324.535 155.955 324.037 155.393C323.531 154.838 323.35 154.179 323.313 153.757C323.273 153.322 323.326 153.049 323.369 152.849C323.415 152.65 323.463 152.522 323.503 152.421C323.525 152.366 323.529 152.358 323.541 152.33C323.563 152.282 323.582 152.242 323.599 152.208C323.634 152.14 323.661 152.092 323.683 152.054C323.727 151.981 323.755 151.941 323.767 151.923C323.828 151.837 323.754 151.935 323.691 152.005C320.112 156.389 315.354 158.912 310.038 159.014C309.727 159.023 309.423 159.024 309.106 159.018C301.918 158.849 294.648 158.454 288.054 156.76C285.389 156.05 282.867 155.062 281.051 153.608Z" fill="black"/>
<path d="M131.164 320.338C130.677 320.825 130.403 321.486 130.403 322.174C130.403 322.863 130.677 323.524 131.164 324.011C131.651 324.498 132.311 324.771 133 324.771C133.689 324.771 134.349 324.498 134.836 324.011C134.836 324.011 134.836 324.011 134.836 324.011C136.937 322.004 139.815 320.007 142.532 318.14C143.721 317.331 144.925 316.537 146.138 315.754C146.175 315.73 146.213 315.705 146.251 315.681C148.873 313.958 151.493 312.953 154.86 311.277C154.937 311.235 155.018 311.19 155.097 311.145C157.455 309.562 157.497 307.651 157.627 306.462C157.631 306.362 157.633 306.262 157.635 306.165C157.143 299.27 155.233 295.333 155.425 290.121C155.425 290.067 155.425 290.012 155.425 289.957C155.274 286.397 158.712 282.928 162.312 279.085C162.353 279.041 162.394 278.996 162.435 278.952C165.395 275.599 169.63 274.383 174.924 273.196C174.998 273.177 175.073 273.159 175.147 273.14C176.593 272.752 178.449 273.259 180.25 274.429C180.311 274.468 180.373 274.509 180.433 274.549C183.219 276.367 184.772 279.827 185.789 283.773C185.818 283.881 185.845 283.989 185.871 284.098C186.039 284.932 185.279 286.061 184.279 287.346C184.222 287.421 184.163 287.495 184.103 287.569C182.394 290.07 177.531 291.72 174.913 297.684C174.871 297.79 174.831 297.897 174.792 298.005C173.46 301.832 174.852 305.169 176.031 307.451C176.079 307.543 176.13 307.637 176.179 307.727C178.389 312.614 185.729 313.548 185.872 313.678C185.864 313.673 185.856 313.669 185.848 313.664C185.595 313.511 185.483 313.3 185.521 313.369C185.551 313.424 185.647 313.684 185.727 314.042C185.902 314.775 186.015 315.828 186.307 317.157C186.31 317.172 186.313 317.186 186.316 317.2C186.497 317.993 185.968 319.203 185.052 320.203C185.046 320.21 185.039 320.217 185.033 320.223C183.99 321.664 179.967 322.043 175.18 323.107C175.172 323.11 175.163 323.112 175.153 323.115C174.966 323.181 174.303 323.249 173.16 323.282C172.06 323.328 170.249 323.446 168.572 324.387C168.482 324.437 168.393 324.487 168.304 324.538C161.183 329.018 157.816 335.37 154.67 341.726L154.774 341.517C154.749 341.564 154.723 341.611 154.698 341.658C153.649 343.598 152.695 345.586 151.803 347.626C151.105 349.23 150.442 350.84 149.829 352.59L155.287 355.494C155.309 355.46 155.329 355.428 155.348 355.398C156.405 353.394 155.183 351.263 155.054 349.24C153.407 350.211 150.753 351.124 150.129 352.027C150.13 352.024 150.133 352.018 150.139 352.008L155.596 354.912C156.26 353.52 157.063 352.058 157.862 350.614C158.889 348.766 159.94 346.914 160.953 345.041C160.978 344.995 161.002 344.95 161.027 344.904L161.132 344.695C163.74 339.164 167.429 333.326 171.815 330.722C171.866 330.692 171.918 330.664 171.97 330.637C172.004 330.629 172.2 330.609 173.022 330.7C173.808 330.77 175.102 331.004 176.814 330.651C176.895 330.633 176.977 330.614 177.059 330.594C180.31 329.592 185.772 330.477 190.838 325.534C190.86 325.509 190.883 325.484 190.906 325.459C193.068 323.038 194.48 319.462 193.671 315.648C193.658 315.586 193.644 315.524 193.63 315.462C193.447 314.726 193.326 313.665 193.019 312.332C192.683 311.09 192.226 308.922 189.821 307.334C189.783 307.31 189.744 307.287 189.705 307.263C187.832 306.28 187.103 306.351 186.297 306.118C185.539 305.946 184.939 305.787 184.455 305.599C183.478 305.206 183.084 304.857 182.697 304.183C182.663 304.119 182.628 304.054 182.595 303.992C181.712 302.377 181.529 301.029 181.768 300.532C181.784 300.489 181.8 300.447 181.816 300.406C182.418 298.222 186.313 296.371 189.849 292.263C189.957 292.131 190.063 291.997 190.168 291.86C191.91 289.587 193.175 286.03 192.061 282.361C192.023 282.242 191.986 282.123 191.949 282.002C190.631 277.669 188.408 272.581 183.775 269.536C183.688 269.478 183.598 269.419 183.508 269.361C180.957 267.708 177.406 266.357 173.684 267.296C173.616 267.313 173.547 267.33 173.478 267.347C168.638 268.411 162.097 270.134 157.998 274.877C157.959 274.918 157.921 274.96 157.883 275.002C154.746 278.592 149.425 282.735 149.33 289.965C149.33 290.028 149.33 290.091 149.33 290.154C149.102 295.867 151.571 302.239 151.801 306.136C151.802 306.182 151.801 306.227 151.801 306.271C151.798 306.547 151.796 306.777 151.82 306.839C151.839 306.921 151.951 306.688 152.314 306.488C152.276 306.514 152.232 306.541 152.188 306.568C149.739 307.877 146.289 309.422 143.437 311.315C143.398 311.34 143.36 311.365 143.321 311.39C142.077 312.193 140.84 313.01 139.611 313.846C136.75 315.83 133.983 317.667 131.164 320.338Z" fill="black"/>
<path d="M340.916 343.152C341.794 343.125 342.625 342.751 343.227 342.111C343.829 341.471 344.153 340.619 344.126 339.741C344.1 338.863 343.725 338.031 343.085 337.429C342.446 336.827 341.593 336.504 340.715 336.53C340.715 336.53 340.715 336.53 340.715 336.53C341.766 336.531 342.161 336.833 342.375 336.928C342.529 337.013 342.623 337.08 342.695 337.132C342.844 337.244 342.849 337.255 342.889 337.289C342.944 337.339 342.936 337.334 342.927 337.324C342.905 337.302 342.847 337.238 342.787 337.169C342.661 337.026 342.522 336.862 342.375 336.687C342.084 336.34 341.779 335.97 341.472 335.601C340.857 334.86 340.226 334.108 339.581 333.365C338.289 331.876 336.943 330.41 335.5 328.994C335.39 328.887 335.28 328.779 335.169 328.672C335.148 328.652 335.128 328.632 335.107 328.613C329.799 323.696 324.383 319.77 319.314 315.397C319.232 315.327 319.15 315.257 319.07 315.187C317.571 314.331 317.62 309.429 317.909 305.202C318.18 300.828 318.466 296.282 318.464 291.737C318.464 291.697 318.464 291.656 318.464 291.616C318.756 283.681 311.863 278.281 307.531 275.037C307.514 275.023 307.497 275.009 307.481 274.996C302.292 270.209 294.025 268.028 287.357 267.998C287.238 267.993 287.118 267.989 286.997 267.984C285.035 267.854 282.715 268.704 281.305 270.009C279.856 271.286 279.027 272.712 278.35 273.86C278.298 273.949 278.245 274.039 278.196 274.124C275.393 279.13 275.948 284.375 276.784 288.859C276.813 289.009 276.844 289.159 276.875 289.306C278.514 295.798 283.649 298.609 284.913 301.718C284.935 301.767 284.956 301.815 284.976 301.862C286.409 305.285 287.095 308.859 286.561 311.939C286.545 312.039 286.526 312.139 286.507 312.239C286.131 314.656 281.628 317.332 277.748 320.987C277.659 321.073 277.571 321.162 277.484 321.252C275.939 322.781 275.582 324.954 275.549 326.282C275.541 326.454 275.538 326.619 275.537 326.777C275.522 328.35 276.013 329.949 276.876 331.233C277.003 331.424 277.137 331.609 277.277 331.786C281.123 336.266 286.194 335.946 289.844 335.742C293.64 335.423 297.315 334.42 300.394 333.711C300.4 333.71 300.405 333.709 300.411 333.707C300.739 333.648 301.03 333.66 301.677 333.976C302.301 334.288 303.081 334.884 303.873 335.602C305.5 337.048 307.093 338.95 309.507 340.778C309.572 340.826 309.637 340.874 309.702 340.923C313.048 343.457 316.006 346.978 318.926 350.641C319.021 350.76 319.116 350.88 319.211 350.999L319.369 351.186C319.394 351.213 319.418 351.239 319.443 351.266C320.951 352.927 323.607 353.809 324.727 354.326L325.272 352.112C325.302 352.096 325.329 352.083 325.353 352.073C325.667 351.978 325.521 352.131 325.438 352.2C325.333 352.285 325.185 352.371 325.03 352.455C324.716 352.623 324.36 352.787 324.001 352.949C323.277 353.271 322.521 353.586 321.769 353.875C322.522 354.163 323.271 354.482 324.052 354.763C324.443 354.902 324.842 355.034 325.277 355.134C325.495 355.184 325.722 355.226 325.988 355.244C326.27 355.243 326.504 355.319 327.145 355.036C327.191 355.013 327.239 354.987 327.288 354.957L328.476 353.4L327.833 352.742C326.601 349.758 325.815 348.064 324.539 346.575C324.519 346.554 324.5 346.532 324.48 346.51L324.638 346.697C324.541 346.574 324.444 346.451 324.346 346.328C321.322 342.557 318.141 338.649 313.873 335.393C313.789 335.33 313.705 335.267 313.621 335.205C312.123 334.102 310.51 332.274 308.512 330.459C306.611 328.807 303.517 326.058 298.989 326.928C298.981 326.93 298.973 326.932 298.965 326.934C295.352 327.773 292.332 328.58 289.255 328.84C286.248 329.155 283.393 328.582 282.708 327.487C282.684 327.457 282.663 327.428 282.644 327.399C282.515 327.202 282.464 327.022 282.463 326.812C282.464 326.731 282.465 326.658 282.468 326.591C282.479 326.321 282.543 326.172 282.577 326.161C282.615 326.145 282.588 326.268 282.541 326.323C282.609 326.258 282.677 326.193 282.745 326.127C285.562 322.969 291.072 320.831 292.885 313.282C292.908 313.125 292.928 312.968 292.946 312.812C293.498 307.924 292.011 303.496 290.386 299.6C290.343 299.497 290.299 299.396 290.254 299.296C287.359 293.828 283.234 291.236 282.779 288.097C282.754 287.97 282.729 287.84 282.704 287.711C281.96 283.837 281.939 279.829 283.493 277.217C283.545 277.127 283.598 277.036 283.648 276.951C284.274 275.86 284.823 275.032 285.33 274.58C285.846 274.136 286.137 274.021 286.782 274.023C286.893 274.027 287.004 274.031 287.113 274.036C293.609 274.239 298.899 275.556 303.679 279.742C303.698 279.757 303.716 279.772 303.735 279.787C308.693 283.519 312.549 286.855 312.383 291.612C312.383 291.65 312.383 291.688 312.383 291.726C312.384 296.041 312.039 300.332 311.673 304.773C311.505 307.011 311.306 309.269 311.415 311.801C311.53 314.208 312.052 317.684 314.805 320.077C314.89 320.152 314.975 320.226 315.06 320.301C320.265 324.868 325.839 329.043 330.515 333.387C330.533 333.404 330.551 333.421 330.569 333.439C330.667 333.533 330.764 333.628 330.861 333.723C332.139 334.977 333.371 336.315 334.576 337.705C335.179 338.4 335.775 339.108 336.376 339.833C336.677 340.196 336.98 340.563 337.299 340.943C337.463 341.139 337.62 341.325 337.815 341.547C337.913 341.658 338.015 341.773 338.155 341.918C338.231 341.997 338.301 342.071 338.45 342.206C338.54 342.285 338.572 342.319 338.782 342.477C338.879 342.548 338.997 342.63 339.172 342.727C339.416 342.839 339.844 343.152 340.916 343.152Z" fill="black"/>
<path d="M226.329 312.023C225.07 311.566 223.784 311.064 222.511 310.656C217.624 309.092 212.998 304.998 210.637 300.642C208.62 296.921 208.627 290.643 209.79 284.773C210.72 280.079 216.626 278.914 221.303 277.741C228.46 275.946 232.665 280.237 235.683 283.571C236.495 284.468 237.016 285.57 237.357 285.255C238.823 283.896 238.359 280.588 239.858 278.919C242.661 275.798 247.702 275.907 254.047 276.062C256.552 276.124 257.736 279.566 259.405 281.566C260.84 283.285 260.754 287.234 260.423 291.74C260.028 297.124 256.082 300.607 251.917 305.288C248.355 309.293 243.732 311.313 239.718 312.651C237.718 313.318 235.703 313.99 233.703 314.325C231.245 314.738 228.84 313.567 226.329 312.023Z" fill="#D9D9D9"/>
<path d="M233.688 310.896C233.221 310.896 232.773 311.082 232.443 311.412C232.113 311.742 231.928 312.19 231.928 312.656C231.928 313.123 232.113 313.571 232.443 313.901C232.773 314.231 233.221 314.416 233.688 314.416C233.791 314.415 233.906 314.42 233.859 314.417C233.838 314.414 233.815 314.417 233.683 314.386C233.606 314.362 233.523 314.361 233.246 314.207C233.1 314.112 232.863 313.986 232.61 313.548C232.336 313.098 232.372 312.397 232.51 312.102C232.776 311.511 232.908 311.513 232.992 311.414C233.071 311.347 233.113 311.321 233.144 311.301C233.204 311.263 233.218 311.258 233.227 311.252C233.223 311.255 233.218 311.257 233.214 311.259C231.013 312.347 226.885 310.206 223.047 308.98C223.044 308.979 223.041 308.978 223.038 308.977C218.626 307.518 214.624 304.073 212.29 299.996C212.254 299.932 212.219 299.868 212.184 299.803C211.489 298.515 211.111 296.89 210.932 295.234C210.607 292.099 210.911 288.799 211.533 285.601C211.563 285.446 211.595 285.292 211.627 285.138C212.185 281.997 217.023 280.942 221.368 279.901C221.518 279.864 221.667 279.827 221.816 279.789C226.361 278.488 230.442 280.668 233.803 284.58C233.917 284.704 234.026 284.841 234.126 284.98C234.253 285.175 234.368 285.426 234.517 285.718C234.592 285.864 234.675 286.021 234.791 286.203C234.918 286.39 235.026 286.577 235.395 286.923C235.575 287.07 235.753 287.28 236.385 287.521C236.692 287.631 237.203 287.726 237.74 287.611C238.287 287.498 238.702 287.218 238.956 286.981C240.614 285.268 240.598 283.778 240.892 282.716C241.103 281.635 241.368 280.763 241.569 280.54C241.584 280.521 241.597 280.505 241.609 280.492C243.641 278.091 248.893 278.311 253.574 278.405C253.712 278.408 253.851 278.412 253.99 278.415C254.071 278.424 254.11 278.412 254.345 278.588C254.567 278.759 254.873 279.102 255.178 279.529C255.81 280.393 256.406 281.529 257.36 282.777C257.436 282.875 257.516 282.975 257.599 283.074C257.896 283.332 258.244 284.95 258.259 286.405C258.306 287.912 258.219 289.526 258.106 291.152C258.096 291.29 258.086 291.429 258.075 291.568C257.849 295.794 253.922 299.133 250.216 302.985C250.081 303.126 249.945 303.268 249.808 303.411C247.074 306.246 243.364 307.917 239.325 309.109C239.087 309.18 238.847 309.25 238.606 309.318C236.893 309.807 235.286 310.252 233.821 310.546C233.573 310.595 233.329 310.639 233.09 310.676C231.585 311.14 227.84 308.439 223.914 306.02C223.623 305.848 223.325 305.678 223.02 305.511C218.815 303.336 217.232 300.259 216.184 294.091C216.117 293.792 216.044 293.485 215.964 293.174C215.438 291.251 215.842 289.003 216.938 287.305C217.055 287.125 217.177 286.957 217.297 286.81C217.838 286.111 219.018 285.53 220.714 285.122C221.014 285.047 221.327 284.976 221.65 284.905C224.837 284.096 228.12 285.786 232.065 288.354C232.393 288.559 232.757 288.728 233.13 288.889C233.899 289.257 234.704 289.525 235.718 289.712C236.445 289.828 237.383 289.908 238.531 289.378C240.391 288.383 240.856 287.143 241.35 286.341C241.804 285.495 242.132 284.808 242.463 284.298C242.609 284.07 242.755 283.885 242.891 283.75C244.24 282.394 245.999 282.343 248.867 282.259C249.26 282.237 249.686 282.216 250.253 282.133C250.317 282.139 250.279 282.154 250.302 282.17C250.322 282.189 250.418 282.24 250.574 282.378C250.891 282.649 251.35 283.235 251.756 283.937C252.587 285.363 253.293 287.179 253.968 289.074C254.07 289.361 254.173 289.653 254.275 289.944C254.386 290.292 254.395 290.495 254.345 290.818C254.293 291.135 254.128 291.592 253.836 292.119C253.249 293.184 252.241 294.421 251.156 295.618C248.944 298.042 246.403 300.461 243.894 302.931C243.647 303.173 243.396 303.419 243.142 303.668C239.956 307.024 234.983 307.279 229.186 307.159C228.74 307.149 228.3 307.136 227.846 307.12C225.413 307.555 223.224 302.365 221.851 296.635C221.749 296.271 221.642 295.899 221.528 295.521C221.344 295.026 221.38 293.145 221.686 291.693C221.746 291.382 221.815 291.075 221.889 290.797C222.123 290.058 222.244 289.928 222.803 289.602C223.386 289.292 224.455 289.08 225.909 289.016C226.215 288.998 226.53 288.985 226.984 288.943C227.731 288.819 229.008 289.122 230.829 289.948C232.614 290.654 235 292.172 238.583 291.82C238.842 291.788 239.094 291.745 239.351 291.689C241.6 291.219 243.705 289.91 245.138 288.518C245.869 287.83 246.482 287.125 246.98 286.58C247.225 286.31 247.449 286.08 247.574 285.967C247.697 285.844 247.709 285.909 247.325 286.005C247.294 286.012 247.261 286.018 247.226 286.023C247.042 286.04 246.965 285.954 247.074 285.958C247.173 285.958 247.396 286.041 247.616 286.21C247.639 286.227 247.661 286.245 247.684 286.264C248.459 286.871 248.854 288.312 249.138 289.935C249.149 289.998 249.161 290.063 249.172 290.127C249.84 292.629 244.382 297.964 240.409 301.978C240.303 302.085 240.196 302.192 240.089 302.299C237.685 304.81 233.32 304.933 228.497 304.587C228.305 304.575 228.108 304.564 227.913 304.553C227.845 304.541 227.967 304.635 227.814 304.563C227.677 304.492 227.391 304.189 227.131 303.738C226.594 302.826 226.147 301.473 225.821 300.055C225.783 299.889 225.743 299.72 225.704 299.553C225.348 298.141 225.08 296.276 225.346 294.785C225.376 294.617 225.412 294.457 225.45 294.312C225.647 293.65 225.768 293.464 226.275 293.129C226.394 293.055 226.542 292.981 226.722 292.904C227.889 292.43 229.364 292.934 230.927 293.367C231.139 293.425 231.355 293.486 231.573 293.55C232.556 293.783 233.814 294.664 235.415 296.136C235.666 296.356 235.937 296.587 236.249 296.823C236.899 297.328 237.932 297.858 239.123 297.854C240.309 297.859 241.269 297.378 241.902 296.937C243.175 296.014 243.802 295.088 244.429 294.228C245.035 293.364 245.545 292.532 246.041 291.783C246.287 291.411 246.529 291.059 246.752 290.775C246.959 290.497 247.229 290.264 247.142 290.335C247.133 290.34 247.124 290.346 247.115 290.351C246.889 290.474 246.737 290.558 246.659 290.668C246.579 290.765 246.435 290.897 246.249 290.616C246.25 290.618 246.25 290.621 246.251 290.623C246.598 290.891 245.683 293.743 244.383 296.358C244.381 296.361 244.38 296.364 244.378 296.367C243.634 298.122 241.434 299.376 238.587 300.225C238.551 300.235 238.516 300.246 238.481 300.257C237.069 300.674 234.243 300.641 232.094 300.195C232.026 300.181 231.958 300.166 231.894 300.152C231.354 300.041 231.106 299.857 231.216 299.936C231.253 299.968 231.272 300.02 231.233 299.936C231.197 299.857 231.134 299.661 231.081 299.398C231.064 299.317 231.048 299.229 231.032 299.135C230.776 297.682 230.797 295.535 231.074 294.686C231.089 294.64 231.1 294.617 231.091 294.637C231.072 294.675 230.995 294.828 230.787 295.007C230.585 295.187 230.267 295.321 230.094 295.348C229.734 295.394 229.942 295.34 230.294 295.446C230.399 295.473 230.521 295.505 230.66 295.54C231.899 295.817 233.425 296.405 234.941 297.638C235.082 297.752 235.224 297.87 235.367 297.991C236.228 298.761 237.739 299.174 238.812 299.03C239.906 298.917 240.67 298.578 241.324 298.263C242.593 297.63 243.568 296.857 244.179 296.417C244.239 296.373 244.287 296.336 244.302 296.317C243.923 296.567 243.241 296.773 242.654 296.71C242.06 296.654 241.694 296.448 241.475 296.304C241.051 296.002 241.016 295.859 240.974 295.784C240.925 295.64 241.027 295.697 241.101 295.769C241.266 295.922 241.429 296.239 241.44 296.402C241.442 296.428 241.443 296.447 241.443 296.454C241.454 296.575 241.359 296.919 240.858 297.457C240.811 297.508 240.762 297.559 240.71 297.611C239.897 298.52 237.238 298.963 234.845 298.748C234.716 298.739 234.588 298.729 234.458 298.717C230.188 298.455 226.18 294.218 222.322 290.252C222.165 290.088 222.006 289.922 221.845 289.755C221.869 289.791 222.014 289.942 222.082 290.319C222.157 290.701 222.006 291.133 221.901 291.271C221.677 291.555 221.776 291.377 221.899 291.347C221.954 291.323 222.02 291.307 222.027 291.306C225.473 290.926 230.38 295.43 234.514 298.854C234.697 299.007 234.884 299.163 235.068 299.315C235.421 299.602 235.827 299.904 236.452 300.149C237.044 300.393 238.049 300.535 238.937 300.171C240.709 299.343 240.959 298.192 241.282 297.425C241.4 297.076 241.464 296.737 241.494 296.406C241.602 294.96 241.179 293.723 241.217 292.489C241.225 292.2 241.228 291.907 241.228 291.62C241.228 291.606 241.228 291.599 241.228 291.579C241.228 291.574 241.228 291.568 241.228 291.56C241.227 291.543 241.23 291.574 241.224 291.467C241.22 291.43 241.226 291.411 241.192 291.239C241.181 291.192 241.168 291.133 241.128 291.026C241.107 290.972 241.08 290.906 241.028 290.814C240.989 290.751 240.874 290.527 240.567 290.312C240.277 290.076 239.589 289.948 239.162 290.142C238.731 290.316 238.573 290.539 238.471 290.667C238.287 290.934 238.279 291.026 238.249 291.104C238.177 291.355 238.197 291.339 238.188 291.382C238.184 291.411 238.183 291.42 238.183 291.422C238.182 291.438 238.181 291.446 238.18 291.454C238.177 291.496 238.176 291.504 238.175 291.525C238.172 291.56 238.169 291.595 238.166 291.629C238.159 291.698 238.151 291.768 238.142 291.838C238.124 291.979 238.101 292.118 238.074 292.254C238.02 292.527 237.95 292.785 237.864 293.009C237.816 293.136 237.763 293.251 237.709 293.346C237.062 294.648 234.476 295.1 231.892 295.653C231.694 295.701 231.489 295.753 231.283 295.811C230.524 295.945 229.76 296.957 229.746 297.59C229.666 298.24 229.801 298.681 229.944 299.07C230.249 299.835 230.711 300.404 231.301 300.872C231.509 301.034 231.733 301.179 231.974 301.303C234.176 302.291 236.075 302.08 238.001 301.616C238.229 301.554 238.455 301.483 238.681 301.402C241.757 300.386 243.962 297.537 244.912 294.795C244.999 294.564 245.079 294.335 245.155 294.107C245.36 293.442 245.664 292.767 245.707 291.647C245.711 291.262 245.66 290.781 245.423 290.287C244.597 288.778 243.283 288.614 242.366 288.541C242.016 288.526 241.678 288.545 241.35 288.59C238.46 288.996 236.398 291.025 235.047 293.036C234.873 293.295 234.708 293.56 234.551 293.828C233.666 295.397 233.023 297.095 233.141 299.172C233.176 299.585 233.253 300.023 233.419 300.476C233.625 301.196 234.506 302.117 235.398 302.265C236.263 302.448 236.882 302.292 237.423 302.147C238.49 301.826 239.302 301.361 240.096 300.877C241.658 299.898 243.029 298.793 244.351 297.604C244.477 297.489 244.612 297.367 244.737 297.253C246.935 295.291 248.858 292.754 249.987 290.295C250.05 290.16 250.175 289.956 250.096 290.076C250.096 290.075 250.091 290.087 250.027 290.153C249.985 290.194 249.923 290.254 249.803 290.336C249.68 290.405 249.336 290.684 248.604 290.626C248.184 290.589 247.745 290.354 247.505 290.107C247.268 289.864 247.217 289.745 247.143 289.606C247.018 289.331 247.019 289.244 247.003 289.172C246.981 289.027 246.988 289.019 246.987 289.007C246.99 289.009 246.97 289.213 246.939 289.385C246.878 289.752 246.785 290.166 246.683 290.58C246.478 291.406 246.23 292.256 245.964 293.091C245.427 294.757 244.807 296.441 244.062 297.892C244.014 297.984 243.966 298.069 243.916 298.152C243.482 298.841 243.052 299.148 242.402 299.268C242.353 299.277 242.305 299.282 242.26 299.284C242.022 299.297 241.885 299.225 241.853 299.193C241.84 299.181 241.831 299.17 241.818 299.15C241.794 299.11 241.772 299.07 241.751 299.027C241.259 298.208 241.866 296.113 242.855 294.351C242.888 294.29 242.921 294.231 242.955 294.172C243.986 292.349 246.038 290.834 248.043 290.248C247.967 290.269 247.882 290.284 247.792 290.289C247.322 290.312 247.05 290.08 247.013 290.042C246.959 289.987 247.003 290.026 247.035 290.096C247.111 290.233 247.177 290.513 247.172 290.606L247.316 289.867C247.294 289.918 247.273 289.97 247.252 290.021C245.975 293.062 244.211 295.953 242.668 298.503C242.667 298.504 242.666 298.505 242.665 298.507L242.626 298.573C242.41 298.956 242.309 299.226 242.291 299.408C242.267 299.592 242.374 299.698 242.385 299.921C242.438 300.38 241.69 301.058 240.705 301.629C241.307 302.572 242.278 303.442 243.857 303.233C245.487 302.982 246.487 301.576 246.823 300.977L246.784 301.043C246.785 301.041 246.786 301.039 246.788 301.038C248.685 297.875 249.424 294.555 250.73 291.465C250.752 291.413 250.773 291.361 250.795 291.309L250.938 290.569C250.917 289.73 250.734 289.086 250.394 288.391C250.215 288.045 249.998 287.69 249.607 287.312C249.238 286.954 248.523 286.474 247.58 286.528C247.393 286.539 247.212 286.57 247.041 286.617C243.927 287.568 241.361 289.473 239.69 292.294C239.638 292.384 239.587 292.476 239.537 292.569C238.529 294.669 236.953 297.228 238.366 300.679C238.44 300.831 238.521 300.977 238.609 301.122C238.811 301.45 239.066 301.755 239.358 302.014C240.274 302.824 241.445 303.102 242.458 303.045C242.658 303.035 242.855 303.012 243.048 302.978C244.752 302.736 246.361 301.46 247.126 300.121C247.226 299.958 247.316 299.798 247.403 299.633C248.324 297.833 248.976 296.071 249.58 294.265C249.876 293.363 250.151 292.452 250.392 291.513C250.513 291.036 250.625 290.564 250.719 290.027C250.764 289.745 250.812 289.494 250.823 289.039C250.822 288.908 250.827 288.797 250.785 288.531C250.775 288.468 250.761 288.4 250.741 288.323C250.715 288.228 250.671 288.087 250.597 287.934C250.51 287.768 250.449 287.632 250.191 287.367C249.928 287.098 249.463 286.851 249.015 286.811C248.235 286.745 247.827 287.053 247.658 287.154C247.498 287.262 247.393 287.36 247.304 287.448C247.162 287.594 247.094 287.683 247.012 287.791C246.714 288.218 246.663 288.375 246.553 288.581C245.408 291.049 244.458 293.267 242.647 295.02C242.537 295.126 242.416 295.239 242.301 295.343C241.098 296.429 239.807 297.46 238.488 298.284C237.833 298.691 237.144 299.051 236.577 299.216C236.304 299.302 236.061 299.298 236.088 299.293C236.099 299.293 236.188 299.329 236.241 299.383C236.296 299.436 236.298 299.466 236.283 299.425C236.236 299.299 236.198 299.122 236.182 298.922C236.1 297.87 236.528 296.486 237.186 295.367C237.312 295.151 237.444 294.94 237.581 294.734C238.666 293.102 240.169 291.812 241.764 291.613C241.927 291.591 242.085 291.583 242.229 291.589C242.428 291.597 242.602 291.639 242.688 291.678C242.782 291.718 242.735 291.731 242.674 291.61C242.641 291.539 242.658 291.534 242.656 291.616C242.663 291.875 242.477 292.509 242.26 293.143C242.194 293.34 242.126 293.535 242.054 293.726C241.226 296.016 239.759 297.809 237.656 298.529C237.507 298.582 237.353 298.63 237.196 298.673C235.906 299.036 234.232 299.026 233.367 298.588C233.304 298.556 233.24 298.515 233.179 298.467C233.003 298.335 232.841 298.112 232.789 297.969C232.759 297.907 232.782 297.854 232.767 298.02C232.756 298.101 232.714 298.267 232.576 298.436C232.44 298.608 232.23 298.718 232.113 298.747C232.267 298.703 232.432 298.661 232.6 298.621C234.821 297.976 238.195 298.157 240.372 294.836C240.512 294.586 240.623 294.338 240.716 294.095C240.878 293.668 240.986 293.255 241.068 292.844C241.108 292.639 241.141 292.436 241.168 292.231C241.181 292.128 241.193 292.026 241.203 291.922C241.208 291.872 241.212 291.818 241.216 291.768C241.218 291.743 241.221 291.708 241.221 291.707C241.221 291.709 241.22 291.713 241.219 291.725C241.219 291.727 241.219 291.733 241.215 291.76C241.206 291.8 241.226 291.783 241.155 292.034C241.124 292.111 241.117 292.202 240.933 292.47C240.831 292.598 240.673 292.821 240.242 292.995C239.815 293.188 239.127 293.061 238.837 292.825C238.53 292.609 238.415 292.386 238.376 292.323C238.324 292.231 238.297 292.165 238.276 292.111C238.236 292.004 238.223 291.945 238.212 291.898C238.178 291.727 238.184 291.709 238.18 291.673C238.174 291.534 238.178 291.611 238.177 291.594C238.177 291.598 238.177 291.607 238.177 291.62C238.177 291.884 238.174 292.148 238.167 292.413C238.138 293.535 237.578 294.665 237.229 295.535C237.158 295.702 237.094 295.855 237.05 295.985C236.999 296.138 236.937 296.255 236.926 296.268C236.915 296.292 236.983 296.143 237.309 296.007C237.641 295.868 238.007 295.948 238.053 295.976C238.12 296.005 238.03 295.968 237.921 295.874C237.743 295.726 237.561 295.574 237.381 295.424C232.901 292.184 229.483 286.806 221.26 286.902C220.857 286.974 220.518 287.081 220.187 287.218C219.496 287.533 218.8 287.848 218.089 288.886C217.745 289.398 217.471 290.288 217.629 291.111C217.776 291.929 218.169 292.468 218.495 292.834C218.65 293.011 218.805 293.185 218.958 293.357C222.763 297.329 226.554 302.97 233.97 303.881C234.133 303.896 234.294 303.91 234.457 303.923C237.506 304.04 241.03 304.282 244.399 301.277C244.491 301.185 244.583 301.089 244.675 300.989C245.59 300.011 246.668 298.42 246.643 296.41C246.642 296.25 246.634 296.099 246.622 295.956C246.54 295.12 246.451 294.456 246.242 293.678C246.127 293.286 246.007 292.888 245.663 292.339C245.472 292.063 245.267 291.726 244.633 291.289C244.306 291.078 243.824 290.823 243.103 290.757C242.391 290.683 241.585 290.925 241.098 291.244C240.923 291.345 240.778 291.441 240.65 291.533C239.6 292.319 239.023 292.933 238.496 293.332C238.255 293.528 238.059 293.624 238.124 293.647C238.174 293.649 238.604 293.786 238.665 293.89C238.519 293.779 238.372 293.664 238.224 293.546C236.673 292.304 234.94 290.464 232.335 289.665C232.181 289.616 232.009 289.566 231.818 289.517C231.16 289.368 230.309 289.099 228.911 289.341C227.453 289.536 225.971 290.97 225.579 291.972C225.435 292.27 225.335 292.537 225.253 292.789C224.455 295.778 224.668 297.709 224.996 300.164C225.023 300.317 225.051 300.472 225.084 300.632C225.291 301.614 225.692 303.11 226.961 304.338C228.227 305.533 229.55 305.884 230.55 306.125C230.645 306.146 230.744 306.167 230.839 306.187C233.898 306.721 236.541 307.257 240.313 306.33C240.356 306.317 240.4 306.304 240.443 306.291C243.773 305.276 248.148 303.335 250.07 298.863C250.073 298.856 250.076 298.849 250.079 298.842C250.911 296.247 253.592 293.353 251.552 287.97C251.538 287.944 251.525 287.918 251.511 287.893C250.002 285.44 247.341 284.839 244.756 286.114C244.701 286.144 244.646 286.176 244.593 286.209C242.972 287.363 242.64 288.207 241.999 289.041C241.43 289.864 240.923 290.633 240.412 291.306C239.919 291.966 239.352 292.565 239.059 292.725C238.915 292.811 238.955 292.723 239.188 292.711C239.423 292.702 239.549 292.804 239.457 292.723C239.305 292.596 239.133 292.438 238.948 292.262C237.711 291.099 236.214 288.983 233.427 287.976C233.119 287.865 232.804 287.765 232.482 287.677C230.103 287.028 227.156 287.244 224.585 288.652C224.339 288.789 224.066 288.941 223.78 289.119C222.428 289.877 221.234 291.564 220.865 292.969C220.779 293.246 220.709 293.513 220.647 293.775C220.158 296.032 219.791 298.046 219.959 300.418C219.974 300.612 219.992 300.812 220.014 301.01C220.212 302.723 220.446 304.513 221.247 306.495C221.909 308.33 224.118 311.27 227.474 311.416C227.673 311.431 227.877 311.445 228.08 311.457C232.996 311.748 239.844 311.827 244.72 306.924C244.828 306.815 244.936 306.707 245.043 306.599C247.187 304.437 249.362 302.285 251.473 299.786C253.377 297.344 256.325 294.137 255.625 289.043C255.609 288.948 255.592 288.85 255.574 288.754C255.111 286.323 253.945 283.582 251.409 281.559C251.353 281.515 251.296 281.472 251.239 281.428C250.153 280.639 248.602 279.497 246.183 279.815C246.08 279.832 245.979 279.851 245.88 279.874C243.54 280.575 243.031 281.596 242.341 282.19C241.719 282.834 241.237 283.348 240.761 283.767C239.816 284.605 238.994 285.023 238.019 285.186C237.97 285.192 237.922 285.195 237.873 285.197C236.5 285.743 233.214 281.166 226.327 281.235C226.146 281.247 225.817 281.26 225.481 281.279C223.754 281.38 221.555 281.552 219.268 282.706C216.936 283.797 214.94 286.426 214.401 288.804C214.273 289.286 214.169 289.751 214.078 290.217C213.709 292.504 213.292 294.544 214.111 297.764C214.202 298.065 214.295 298.39 214.388 298.724C215.162 301.47 215.888 304.596 217.526 307.803C218.938 310.894 222.848 314.905 227.57 314.864C228.056 314.882 228.53 314.896 229.015 314.906C234.865 315.063 243.13 314.594 248.363 308.883C248.609 308.632 248.852 308.384 249.093 308.14C251.544 305.634 254.042 303.205 256.527 300.406C257.755 298.991 259.014 297.507 260.106 295.483C261.202 293.589 261.985 290.243 260.877 287.553C260.768 287.259 260.654 286.956 260.538 286.652C259.758 284.621 258.915 282.511 257.555 280.354C256.856 279.279 256.041 278.159 254.71 277.123C253.446 276.083 251.162 275.26 249.171 275.685C249.018 275.721 248.704 275.762 248.366 275.797C245.653 275.969 241.292 277.027 238.829 280.103C238.461 280.53 238.16 280.959 237.898 281.366C237.319 282.273 236.93 283.112 236.582 283.745C236.412 284.057 236.251 284.317 236.145 284.452C236.037 284.595 236.01 284.564 236.173 284.48C236.602 284.292 236.711 284.374 236.665 284.355C236.598 284.346 236.382 284.156 236.221 283.946C235.95 283.704 235.67 283.461 235.36 283.254C231.842 280.828 226.403 277.158 220.294 278.597C219.924 278.676 219.544 278.761 219.156 278.858C217.044 279.389 214.289 280.296 212.297 282.726C212.01 283.079 211.755 283.434 211.521 283.794C209.456 287.015 208.723 290.995 209.65 294.758C209.705 294.984 209.757 295.221 209.808 295.466C210.322 297.958 210.557 301.278 212.096 304.544C213.592 307.839 216.414 310.533 219.335 312.143C219.571 312.277 219.809 312.415 220.05 312.558C223.546 314.249 226.777 318.598 234.316 317.975C234.671 317.912 235.02 317.841 235.362 317.765C237.384 317.312 239.163 316.62 240.829 315.985C241.092 315.885 241.357 315.783 241.622 315.677C246.131 313.922 250.719 311.179 254.027 307.165C254.146 307.021 254.265 306.878 254.384 306.736C257.473 302.87 262.281 298.581 262.771 291.913C262.781 291.769 262.791 291.625 262.801 291.482C262.777 288.019 264.076 284.872 261.212 280.058C261.168 280.005 261.122 279.947 261.075 279.888C260.467 279.111 259.858 277.982 258.995 276.774C258.177 275.665 256.714 273.798 254.105 273.71C253.966 273.706 253.827 273.703 253.688 273.699C249.017 273.857 243.178 272.449 238.107 277.347C238 277.466 237.9 277.588 237.808 277.711C236.682 279.29 236.543 280.677 236.287 281.742C236.103 282.805 235.727 283.666 235.757 283.528C235.956 283.342 236.309 283.099 236.784 283.002C237.25 282.902 237.686 282.987 237.925 283.073C238.418 283.264 238.481 283.383 238.552 283.432C238.668 283.546 238.564 283.46 238.481 283.375C238.388 283.284 238.268 283.162 238.139 283.033C237.877 282.772 237.575 282.477 237.24 282.161C237.108 282.043 236.976 281.916 236.855 281.784C233.546 277.614 226.83 273.749 220.789 275.694C220.646 275.73 220.5 275.766 220.353 275.802C218.136 276.358 215.782 276.926 213.427 278.05C211.144 279.092 208.459 281.295 207.952 284.409C207.921 284.578 207.89 284.747 207.86 284.915C207.253 288.416 206.977 291.987 207.397 295.639C207.64 297.578 208.066 299.565 209.09 301.481C209.132 301.559 209.175 301.638 209.219 301.716C212.085 306.64 216.482 310.467 221.962 312.329C221.966 312.33 221.97 312.331 221.974 312.333C225.617 313.215 229.16 316.382 234.788 314.407C234.799 314.402 234.81 314.397 234.82 314.391C234.881 314.36 234.941 314.329 235.048 314.261C235.103 314.225 235.167 314.183 235.267 314.1C235.373 313.982 235.524 313.965 235.802 313.348C235.945 313.04 235.981 312.324 235.7 311.863C235.44 311.412 235.192 311.277 235.034 311.175C234.733 311.007 234.624 310.998 234.519 310.967C234.334 310.924 234.255 310.92 234.18 310.912C233.913 310.891 233.806 310.898 233.688 310.896Z" fill="#B70000"/>
<path d="M203.052 206.081C203.074 204.476 202.457 202.928 201.337 201.778C200.217 200.627 198.686 199.969 197.081 199.948C195.476 199.926 193.928 200.543 192.778 201.663C191.627 202.783 190.969 204.314 190.948 205.919C191.036 208.247 191.605 208.74 191.817 209.254C191.964 209.515 192.07 209.676 192.179 209.837C192.289 209.998 192.385 210.129 192.47 210.24C192.83 210.704 193.075 210.964 193.328 211.23C193.805 211.725 194.207 212.092 194.598 212.441C195.372 213.126 196.095 213.714 196.817 214.286C199.143 216.119 201.416 217.757 203.707 219.385C203.793 219.446 203.879 219.507 203.965 219.567C210.198 223.871 216.763 224.197 221.522 225.757C221.589 225.778 221.657 225.799 221.724 225.821C233.398 228.619 242.651 227.582 252.922 226.544C252.986 226.536 253.049 226.528 253.112 226.519C259.578 225.675 266.193 224.907 272.952 223.307L273.62 223.101C273.768 223.046 273.916 222.989 274.064 222.932C279.837 220.686 284.888 217.671 289.741 214.729C289.795 214.696 289.848 214.664 289.901 214.631L290.761 214.002C290.894 213.882 291.021 213.761 291.142 213.64C293.127 211.564 290.771 208.186 290 206C290 206 290 206 290 206C287.66 206.448 283.779 205.788 283.57 205.885C283.554 205.9 283.539 205.911 283.528 205.92L284.388 205.29C284.335 205.321 284.282 205.351 284.23 205.381C279.436 208.114 274.704 210.655 270.023 212.468C269.903 212.514 269.784 212.559 269.665 212.604L270.333 212.399C264.429 213.809 258.116 214.709 251.688 215.548C251.625 215.557 251.562 215.565 251.499 215.573C242.667 216.627 232.201 217.101 225.064 215.289C224.981 215.263 224.899 215.237 224.817 215.212C218.91 213.438 214 211.97 210.953 209.683C210.871 209.624 210.789 209.566 210.706 209.507C208.514 207.951 206.325 206.367 204.33 204.794C203.721 204.311 203.127 203.824 202.637 203.39C202.396 203.176 202.171 202.963 202.064 202.85C202.013 202.799 201.987 202.76 202.081 202.879C202.127 202.943 202.206 203.035 202.379 203.338C202.465 203.495 202.568 203.68 202.714 204.069C202.83 204.401 203.06 205.052 203.052 206.081Z" fill="black"/>
<path d="M234.402 321.169C234.945 321.536 235.611 321.672 236.254 321.548C236.897 321.424 237.464 321.05 237.831 320.508C238.198 319.965 238.335 319.299 238.211 318.656C238.087 318.013 237.713 317.446 237.17 317.079C237.17 317.079 237.17 317.079 237.17 317.079C236.082 316.425 235.617 316.483 235.127 316.383C234.661 316.321 234.267 316.297 233.888 316.277C233.132 316.239 232.452 316.225 231.78 316.196C230.446 316.142 229.177 316.041 227.969 315.824C227.396 315.722 226.838 315.595 226.298 315.438C226.294 315.437 226.29 315.436 226.286 315.435C222.17 314.216 220.132 309.285 217.193 304.842C217.178 304.819 217.162 304.795 217.147 304.772C214.549 300.892 212.465 296.565 210.724 291.946C210.692 291.86 210.659 291.774 210.627 291.688C209.007 288.207 211.699 283.808 215.298 279.414C215.342 279.357 215.385 279.301 215.429 279.245C217.045 277.008 223.396 277.619 228.159 278.849C228.215 278.863 228.27 278.876 228.325 278.89C229.209 279.042 230.175 280.255 231.615 282.422C231.655 282.477 231.696 282.533 231.738 282.59C232.101 283.137 233.127 283.92 234.17 283.972C235.182 284.041 235.765 283.758 236.186 283.566C236.99 283.155 237.391 282.78 237.792 282.437C238.561 281.748 239.145 281.115 239.732 280.5C240.89 279.274 241.981 278.127 243.133 277.141C243.138 277.137 243.147 277.13 243.159 277.121C243.518 276.785 245.497 276.511 247.192 276.566C248.961 276.591 250.833 276.753 252.727 276.915C252.76 276.918 252.793 276.922 252.825 276.926C254.656 277.062 256.82 279.597 259.044 282.324C259.063 282.347 259.081 282.37 259.1 282.394C262.247 286.469 259.763 295.299 256.247 300.686C256.21 300.741 256.172 300.795 256.135 300.849C252.738 305.893 247.96 308.621 242.052 312.189C241.896 312.29 241.74 312.392 241.585 312.495C241.566 312.508 241.546 312.521 241.527 312.534C240.414 313.276 239.429 314.211 238.482 315.202C238.478 315.206 238.474 315.21 238.47 315.214C237.509 316.073 238.544 318.226 236.919 319.124C237.796 320.779 241.124 321.206 242.17 320.763C242.175 320.761 242.18 320.759 242.185 320.758C243.465 320.264 244.706 319.715 245.82 318.972C245.839 318.96 245.858 318.947 245.877 318.934C246.007 318.847 246.14 318.759 246.275 318.671C251.533 315.496 258 310.692 261.665 304.502C261.707 304.435 261.75 304.367 261.792 304.3C265.711 296.78 269.788 287.914 263.583 278.637C263.542 278.589 263.5 278.541 263.458 278.494C261.146 276.132 258.784 272.274 253.392 271.5C253.304 271.492 253.215 271.485 253.126 271.479C249.162 271.522 245.734 270.082 240.112 272.869C239.984 272.96 239.855 273.06 239.731 273.166C238.331 274.363 237.09 275.638 235.923 276.829C235.346 277.416 234.768 278.004 234.28 278.424C234.053 278.625 233.787 278.795 233.847 278.753C233.888 278.744 234.06 278.601 234.651 278.634C234.938 278.655 235.295 278.771 235.552 278.939C235.804 279.099 235.953 279.268 236.04 279.383C236.016 279.351 235.991 279.316 235.965 279.28C234.877 277.803 233.342 274.617 229.623 273.649C229.563 273.634 229.502 273.619 229.441 273.604C226.678 272.937 223.839 272.405 220.786 272.355C217.855 272.381 213.981 272.576 211.195 275.978C211.155 276.03 211.114 276.083 211.073 276.135C208.009 280.102 202.147 285.98 204.705 293.751C204.735 293.843 204.765 293.935 204.795 294.027C206.4 298.968 208.366 304.032 211.413 308.594C211.429 308.617 211.444 308.639 211.459 308.662C214.413 312.949 218.383 318.181 224.905 320.176C224.911 320.178 224.918 320.18 224.924 320.182C225.649 320.392 226.377 320.557 227.101 320.686C228.624 320.958 230.137 321.071 231.575 321.13C232.293 321.16 232.995 321.176 233.631 321.209C233.945 321.225 234.246 321.247 234.466 321.277C234.575 321.291 234.662 321.309 234.686 321.316C234.706 321.315 234.668 321.337 234.402 321.169Z" fill="black"/>
<defs>
<filter id="filter0_f_9_87" x="0" y="0" width="478" height="478" filterUnits="userSpaceOnUse" color-interpolation-filters="sRGB">
<feFlood flood-opacity="0" result="BackgroundImageFix"/>
<feBlend mode="normal" in="SourceGraphic" in2="BackgroundImageFix" result="shape"/>
<feGaussianBlur stdDeviation="19.5" result="effect1_foregroundBlur_9_87"/>
</filter>
<filter id="filter1_f_9_87" x="101" y="146.953" width="127" height="118.188" filterUnits="userSpaceOnUse" color-interpolation-filters="sRGB">
<feFlood flood-opacity="0" result="BackgroundImageFix"/>
<feBlend mode="normal" in="SourceGraphic" in2="BackgroundImageFix" result="shape"/>
<feGaussianBlur stdDeviation="18.5" result="effect1_foregroundBlur_9_87"/>
</filter>
<filter id="filter2_f_9_87" x="99.2271" y="142.953" width="130.538" height="126.188" filterUnits="userSpaceOnUse" color-interpolation-filters="sRGB">
<feFlood flood-opacity="0" result="BackgroundImageFix"/>
<feBlend mode="normal" in="SourceGraphic" in2="BackgroundImageFix" result="shape"/>
<feGaussianBlur stdDeviation="20.5" result="effect1_foregroundBlur_9_87"/>
</filter>
<filter id="filter3_f_9_87" x="232" y="121" width="167.365" height="169.264" filterUnits="userSpaceOnUse" color-interpolation-filters="sRGB">
<feFlood flood-opacity="0" result="BackgroundImageFix"/>
<feBlend mode="normal" in="SourceGraphic" in2="BackgroundImageFix" result="shape"/>
<feGaussianBlur stdDeviation="29" result="effect1_foregroundBlur_9_87"/>
</filter>
</defs>
</svg>
